Radio_CanadaDisplay-BoldItalic.ufo
<glyph name="exclam" format="2">
  <advance width="273"/>
  <unicode hex="0021"/>
  <outline>
    <contour>
      <point x="133" y="690" type="line"/>
      <point x="93" y="502" type="line"/>
      <point x="66" y="247" type="line"/>
      <point x="168" y="247" type="line"/>
      <point x="249" y="502" type="line"/>
      <point x="289" y="690" type="line"/>
    </contour>
    <contour>
      <point x="74" y="-14" type="curve"/>
      <point x="127" y="-14"/>
      <point x="169" y="23"/>
      <point x="169" y="81" type="curve"/>
      <point x="169" y="129"/>
      <point x="138" y="161"/>
      <point x="86" y="161" type="curve"/>
      <point x="34" y="161"/>
      <point x="-8" y="123"/>
      <point x="-8" y="65" type="curve"/>
      <point x="-8" y="17"/>
      <point x="23" y="-14"/>
    </contour>
  </outline>
</glyph>
<glyph name="quotedbl" format="2">
  <advance width="420"/>
  <unicode hex="0022"/>
  <outline>
    <contour>
      <point x="106" y="690" type="line"/>
      <point x="75" y="383" type="line"/>
      <point x="169" y="383" type="line"/>
      <point x="270" y="690" type="line"/>
    </contour>
    <contour>
      <point x="300" y="690" type="line"/>
      <point x="269" y="383" type="line"/>
      <point x="363" y="383" type="line"/>
      <point x="464" y="690" type="line"/>
    </contour>
  </outline>
</glyph>
<glyph name="numbersign" format="2">
  <advance width="602"/>
  <unicode hex="0023"/>
  <outline>
    <contour>
      <point x="-41" y="0" type="line"/>
      <point x="101" y="0" type="line"/>
      <point x="404" y="690" type="line"/>
      <point x="262" y="690" type="line"/>
    </contour>
    <contour>
      <point x="197" y="0" type="line"/>
      <point x="339" y="0" type="line"/>
      <point x="642" y="690" type="line"/>
      <point x="500" y="690" type="line"/>
    </contour>
    <contour>
      <point x="102" y="530" type="line"/>
      <point x="75" y="406" type="line"/>
      <point x="601" y="406" type="line"/>
      <point x="628" y="530" type="line"/>
    </contour>
    <contour>
      <point x="6" y="300" type="line"/>
      <point x="-21" y="176" type="line"/>
      <point x="505" y="176" type="line"/>
      <point x="532" y="300" type="line"/>
    </contour>
  </outline>
</glyph>
<glyph name="ampersand" format="2">
  <advance width="647"/>
  <unicode hex="0026"/>
  <outline>
    <contour>
      <point x="397" y="0" type="line"/>
      <point x="173" y="319" type="line" smooth="yes"/>
      <point x="131" y="379"/>
      <point x="102" y="436"/>
      <point x="102" y="498" type="curve"/>
      <point x="102" y="606"/>
      <point x="185" y="704"/>
      <point x="328" y="704" type="curve"/>
      <point x="448" y="704"/>
      <point x="521" y="633"/>
      <point x="521" y="542" type="curve"/>
      <point x="521" y="285"/>
      <point x="136" y="364"/>
      <point x="136" y="184" type="curve"/>
      <point x="136" y="147"/>
      <point x="160" y="116"/>
      <point x="216" y="116" type="curve"/>
      <point x="333" y="116"/>
      <point x="438" y="208"/>
      <point x="494" y="364" type="curve"/>
      <point x="630" y="323" type="line"/>
      <point x="537" y="112"/>
      <point x="369" y="-14"/>
      <point x="189" y="-14" type="curve"/>
      <point x="47" y="-14"/>
      <point x="-19" y="68"/>
      <point x="-19" y="152" type="curve"/>
      <point x="-19" y="431"/>
      <point x="380" y="356"/>
      <point x="380" y="525" type="curve"/>
      <point x="380" y="558"/>
      <point x="358" y="579"/>
      <point x="323" y="579" type="curve"/>
      <point x="278" y="579"/>
      <point x="249" y="541"/>
      <point x="249" y="492" type="curve" smooth="yes"/>
      <point x="249" y="464"/>
      <point x="260" y="439"/>
      <point x="279" y="413" type="curve" smooth="yes"/>
      <point x="577" y="0" type="line"/>
    </contour>
  </outline>
</glyph>
<glyph name="parenleft" format="2">
  <advance width="352"/>
  <unicode hex="0028"/>
  <outline>
    <contour>
      <point x="186" y="438"/>
      <point x="328" y="658"/>
      <point x="454" y="706" type="curve"/>
      <point x="414" y="800" type="line"/>
      <point x="200" y="744"/>
      <point x="43" y="472"/>
      <point x="43" y="198" type="curve"/>
      <point x="43" y="16"/>
      <point x="106" y="-94"/>
      <point x="234" y="-147" type="curve"/>
      <point x="292" y="-56" type="line"/>
      <point x="218" y="-9"/>
      <point x="186" y="58"/>
      <point x="186" y="210" type="curve"/>
    </contour>
  </outline>
</glyph>
<glyph name="parenright" format="2">
  <advance width="350"/>
  <unicode hex="0029"/>
  <outline>
    <contour>
      <point x="159" y="212"/>
      <point x="17" y="-8"/>
      <point x="-109" y="-56" type="curve"/>
      <point x="-69" y="-150" type="line"/>
      <point x="145" y="-94"/>
      <point x="302" y="178"/>
      <point x="302" y="452" type="curve"/>
      <point x="302" y="634"/>
      <point x="239" y="744"/>
      <point x="111" y="797" type="curve"/>
      <point x="53" y="706" type="line"/>
      <point x="127" y="659"/>
      <point x="159" y="592"/>
      <point x="159" y="440" type="curve"/>
    </contour>
  </outline>
</glyph>
<glyph name="comma" format="2">
  <advance width="246"/>
  <unicode hex="002C"/>
  <outline>
    <contour>
      <point x="6" y="148" type="line"/>
      <point x="-59" y="-159" type="line"/>
      <point x="39" y="-159" type="line"/>
      <point x="166" y="148" type="line"/>
    </contour>
  </outline>
</glyph>
<glyph name="hyphen" format="2">
  <advance width="365"/>
  <unicode hex="002D"/>
  <outline>
    <contour>
      <point x="51" y="368" type="line"/>
      <point x="24" y="239" type="line"/>
      <point x="298" y="239" type="line"/>
      <point x="325" y="368" type="line"/>
    </contour>
  </outline>
</glyph>
<glyph name="period" format="2">
  <advance width="249"/>
  <unicode hex="002E"/>
  <outline>
    <contour>
      <point x="61" y="-14" type="curve"/>
      <point x="114" y="-14"/>
      <point x="156" y="23"/>
      <point x="156" y="81" type="curve"/>
      <point x="156" y="129"/>
      <point x="125" y="161"/>
      <point x="73" y="161" type="curve"/>
      <point x="21" y="161"/>
      <point x="-21" y="123"/>
      <point x="-21" y="65" type="curve"/>
      <point x="-21" y="17"/>
      <point x="10" y="-14"/>
    </contour>
  </outline>
</glyph>
<glyph name="zero" format="2">
  <advance width="627"/>
  <unicode hex="0030"/>
  <outline>
    <contour>
      <point x="251" y="-14" type="curve"/>
      <point x="464" y="-14"/>
      <point x="598" y="219"/>
      <point x="598" y="455" type="curve"/>
      <point x="598" y="612"/>
      <point x="512" y="704"/>
      <point x="378" y="704" type="curve"/>
      <point x="165" y="704"/>
      <point x="31" y="471"/>
      <point x="31" y="235" type="curve"/>
      <point x="31" y="78"/>
      <point x="117" y="-14"/>
    </contour>
    <contour>
      <point x="356" y="558" type="curve"/>
      <point x="408" y="558"/>
      <point x="439" y="521"/>
      <point x="439" y="445" type="curve"/>
      <point x="439" y="277"/>
      <point x="362" y="132"/>
      <point x="273" y="132" type="curve"/>
      <point x="221" y="132"/>
      <point x="190" y="169"/>
      <point x="190" y="245" type="curve"/>
      <point x="190" y="413"/>
      <point x="267" y="558"/>
    </contour>
  </outline>
</glyph>
<glyph name="one" format="2">
  <advance width="376"/>
  <unicode hex="0031"/>
  <outline>
    <contour>
      <point x="67" y="0" type="line"/>
      <point x="222" y="0" type="line"/>
      <point x="369" y="690" type="line"/>
      <point x="248" y="690" type="line"/>
      <point x="178" y="520" type="line"/>
    </contour>
    <contour>
      <point x="37" y="463" type="line"/>
      <point x="221" y="463" type="line"/>
      <point x="248" y="690" type="line"/>
      <point x="212" y="608"/>
      <point x="164" y="576"/>
      <point x="60" y="567" type="curve"/>
    </contour>
  </outline>
</glyph>
<glyph name="four" format="2">
  <advance width="569"/>
  <unicode hex="0034"/>
  <outline>
    <contour>
      <point x="-24" y="204" type="line"/>
      <point x="-42" y="118" type="line"/>
      <point x="516" y="118" type="line"/>
      <point x="544" y="248" type="line"/>
      <point x="26" y="248" type="line"/>
    </contour>
    <contour>
      <point x="247" y="0" type="line"/>
      <point x="402" y="0" type="line"/>
      <point x="549" y="690" type="line"/>
      <point x="394" y="690" type="line"/>
    </contour>
    <contour>
      <point x="-24" y="204" type="line"/>
      <point x="128" y="204" type="line"/>
      <point x="478" y="690" type="line"/>
      <point x="324" y="690" type="line"/>
    </contour>
  </outline>
</glyph>
<glyph name="eight" format="2">
  <advance width="584"/>
  <unicode hex="0038"/>
  <outline>
    <contour>
      <point x="235" y="-14" type="curve"/>
      <point x="411" y="-14"/>
      <point x="523" y="99"/>
      <point x="523" y="215" type="curve"/>
      <point x="523" y="321"/>
      <point x="438" y="394"/>
      <point x="296" y="394" type="curve" smooth="yes"/>
      <point x="113" y="394"/>
      <point x="-2" y="291"/>
      <point x="-2" y="168" type="curve" smooth="yes"/>
      <point x="-2" y="69"/>
      <point x="84" y="-14"/>
    </contour>
    <contour>
      <point x="250" y="117" type="curve"/>
      <point x="182" y="117"/>
      <point x="149" y="152"/>
      <point x="149" y="195" type="curve"/>
      <point x="149" y="250"/>
      <point x="199" y="296"/>
      <point x="274" y="296" type="curve"/>
      <point x="339" y="296"/>
      <point x="376" y="262"/>
      <point x="376" y="214" type="curve"/>
      <point x="376" y="167"/>
      <point x="337" y="117"/>
    </contour>
    <contour>
      <point x="299" y="332" type="curve" smooth="yes"/>
      <point x="467" y="332"/>
      <point x="572" y="435"/>
      <point x="572" y="529" type="curve"/>
      <point x="572" y="632"/>
      <point x="483" y="704"/>
      <point x="353" y="704" type="curve" smooth="yes"/>
      <point x="190" y="704"/>
      <point x="80" y="606"/>
      <point x="80" y="497" type="curve"/>
      <point x="80" y="401"/>
      <point x="166" y="332"/>
    </contour>
    <contour>
      <point x="313" y="418" type="curve"/>
      <point x="256" y="418"/>
      <point x="225" y="446"/>
      <point x="225" y="489" type="curve"/>
      <point x="225" y="535"/>
      <point x="268" y="573"/>
      <point x="334" y="573" type="curve"/>
      <point x="391" y="573"/>
      <point x="422" y="545"/>
      <point x="422" y="502" type="curve"/>
      <point x="422" y="456"/>
      <point x="379" y="418"/>
    </contour>
  </outline>
</glyph>
<glyph name="colon" format="2">
  <advance width="250"/>
  <unicode hex="003A"/>
  <outline>
    <contour>
      <point x="61" y="-14" type="curve"/>
      <point x="114" y="-14"/>
      <point x="156" y="23"/>
      <point x="156" y="81" type="curve"/>
      <point x="156" y="129"/>
      <point x="125" y="161"/>
      <point x="73" y="161" type="curve"/>
      <point x="21" y="161"/>
      <point x="-21" y="123"/>
      <point x="-21" y="65" type="curve"/>
      <point x="-21" y="17"/>
      <point x="10" y="-14"/>
    </contour>
    <contour>
      <point x="143" y="369" type="curve"/>
      <point x="196" y="369"/>
      <point x="238" y="406"/>
      <point x="238" y="464" type="curve"/>
      <point x="238" y="512"/>
      <point x="207" y="544"/>
      <point x="155" y="544" type="curve"/>
      <point x="103" y="544"/>
      <point x="61" y="506"/>
      <point x="61" y="448" type="curve"/>
      <point x="61" y="400"/>
      <point x="92" y="369"/>
    </contour>
  </outline>
</glyph>
<glyph name="semicolon" format="2">
  <advance width="251"/>
  <unicode hex="003B"/>
  <outline>
    <contour>
      <point x="7" y="148" type="line"/>
      <point x="-58" y="-159" type="line"/>
      <point x="40" y="-159" type="line"/>
      <point x="167" y="148" type="line"/>
    </contour>
    <contour>
      <point x="144" y="369" type="curve"/>
      <point x="197" y="369"/>
      <point x="239" y="406"/>
      <point x="239" y="464" type="curve"/>
      <point x="239" y="512"/>
      <point x="208" y="544"/>
      <point x="156" y="544" type="curve"/>
      <point x="104" y="544"/>
      <point x="62" y="506"/>
      <point x="62" y="448" type="curve"/>
      <point x="62" y="400"/>
      <point x="93" y="369"/>
    </contour>
  </outline>
</glyph>
<glyph name="less" format="2">
  <advance width="533"/>
  <unicode hex="003C"/>
  <outline>
    <contour>
      <point x="45" y="385" type="line"/>
      <point x="10" y="221" type="line"/>
      <point x="163" y="299" type="line"/>
      <point x="496" y="378" type="line"/>
      <point x="527" y="523" type="line"/>
    </contour>
    <contour>
      <point x="434" y="83" type="line"/>
      <point x="463" y="220" type="line"/>
      <point x="163" y="299" type="line"/>
      <point x="45" y="385" type="line"/>
      <point x="10" y="221" type="line"/>
    </contour>
  </outline>
</glyph>
<glyph name="greater" format="2">
  <advance width="532"/>
  <unicode hex="003E"/>
  <outline>
    <contour>
      <point x="472" y="221" type="line"/>
      <point x="507" y="385" type="line"/>
      <point x="354" y="307" type="line"/>
      <point x="20" y="228" type="line"/>
      <point x="-10" y="83" type="line"/>
    </contour>
    <contour>
      <point x="83" y="523" type="line"/>
      <point x="54" y="386" type="line"/>
      <point x="354" y="307" type="line"/>
      <point x="472" y="221" type="line"/>
      <point x="507" y="385" type="line"/>
    </contour>
  </outline>
</glyph>
<glyph name="at" format="2">
  <advance width="894"/>
  <unicode hex="0040"/>
  <outline>
    <contour>
      <point x="600" y="-10" type="curve"/>
      <point x="746" y="-10"/>
      <point x="846" y="150"/>
      <point x="846" y="357" type="curve"/>
      <point x="846" y="572"/>
      <point x="708" y="700"/>
      <point x="514" y="700" type="curve"/>
      <point x="220" y="700"/>
      <point x="19" y="470"/>
      <point x="19" y="192" type="curve"/>
      <point x="19" y="-15"/>
      <point x="149" y="-149"/>
      <point x="326" y="-149" type="curve"/>
      <point x="400" y="-149"/>
      <point x="459" y="-136"/>
      <point x="521" y="-109" type="curve"/>
      <point x="493" y="-35" type="line"/>
      <point x="443" y="-58"/>
      <point x="400" y="-69"/>
      <point x="333" y="-69" type="curve"/>
      <point x="202" y="-69"/>
      <point x="109" y="30"/>
      <point x="109" y="200" type="curve"/>
      <point x="109" y="428"/>
      <point x="270" y="620"/>
      <point x="507" y="620" type="curve"/>
      <point x="655" y="620"/>
      <point x="755" y="522"/>
      <point x="755" y="350" type="curve"/>
      <point x="755" y="195"/>
      <point x="696" y="91"/>
      <point x="652" y="91" type="curve"/>
      <point x="632" y="91"/>
      <point x="622" y="101"/>
      <point x="634" y="157" type="curve"/>
      <point x="708" y="505" type="line"/>
      <point x="563" y="505" type="line"/>
      <point x="534" y="367" type="line"/>
      <point x="527" y="265" type="line"/>
      <point x="490" y="162" type="line"/>
      <point x="485" y="128" type="line" smooth="yes"/>
      <point x="474" y="54"/>
      <point x="504" y="-10"/>
    </contour>
    <contour>
      <point x="453" y="387" type="curve"/>
      <point x="495" y="387"/>
      <point x="522" y="363"/>
      <point x="522" y="307" type="curve"/>
      <point x="522" y="212"/>
      <point x="466" y="143"/>
      <point x="401" y="143" type="curve"/>
      <point x="359" y="143"/>
      <point x="332" y="167"/>
      <point x="332" y="226" type="curve"/>
      <point x="332" y="320"/>
      <point x="389" y="387"/>
    </contour>
    <contour>
      <point x="531" y="221" type="curve"/>
      <point x="550" y="309" type="line"/>
      <point x="556" y="335"/>
      <point x="558" y="359"/>
      <point x="558" y="381" type="curve" smooth="yes"/>
      <point x="558" y="468"/>
      <point x="507" y="515"/>
      <point x="429" y="515" type="curve"/>
      <point x="292" y="515"/>
      <point x="179" y="384"/>
      <point x="179" y="209" type="curve"/>
      <point x="179" y="87"/>
      <point x="240" y="15"/>
      <point x="336" y="15" type="curve"/>
      <point x="427" y="15"/>
      <point x="503" y="89"/>
    </contour>
  </outline>
</glyph>
<glyph name="A" format="2">
  <advance width="675"/>
  <unicode hex="0041"/>
  <anchor x="410.66402755231525" y="690" name="top"/>
  <anchor x="264.0" y="0" name="bottom"/>
  <outline>
    <contour>
      <point x="143.0" y="295" type="line"/>
      <point x="114.0" y="158" type="line"/>
      <point x="482.0" y="158" type="line"/>
      <point x="511.0" y="295" type="line"/>
    </contour>
    <contour>
      <point x="530.0" y="690.0" type="line"/>
      <point x="380.0" y="690.0" type="line"/>
      <point x="443.0" y="0.0" type="line"/>
      <point x="602.0" y="0.0" type="line"/>
    </contour>
    <contour>
      <point x="450.0" y="690.0" type="line"/>
      <point x="293.0" y="690.0" type="line"/>
      <point x="-73.0" y="0.0" type="line"/>
      <point x="103.0" y="0.0" type="line"/>
    </contour>
  </outline>
</glyph>
<glyph name="B" format="2">
  <advance width="636"/>
  <unicode hex="0042"/>
  <outline>
    <contour>
      <point x="-11" y="0" type="line"/>
      <point x="144" y="0" type="line"/>
      <point x="291" y="690" type="line"/>
      <point x="136" y="690" type="line"/>
    </contour>
    <contour>
      <point x="285.0" y="0.0" type="line"/>
      <point x="475" y="0.0"/>
      <point x="578.0" y="101.0"/>
      <point x="578.0" y="232.0" type="curve"/>
      <point x="578.0" y="320.0"/>
      <point x="505.48148148148164" y="380.0"/>
      <point x="380.0" y="380.0" type="curve"/>
      <point x="143.0" y="380.0" type="line"/>
      <point x="123.0" y="287.0" type="line"/>
      <point x="333.0" y="287.0" type="line"/>
      <point x="396.52631578947364" y="287.0"/>
      <point x="418.0" y="265.0"/>
      <point x="418.0" y="231.0" type="curve"/>
      <point x="418.0" y="180.0"/>
      <point x="385.6923076923077" y="144.0"/>
      <point x="298.0" y="144.0" type="curve"/>
      <point x="88" y="144" type="line"/>
      <point x="57" y="0" type="line"/>
    </contour>
    <contour>
      <point x="366.0" y="349.0" type="line"/>
      <point x="522.617363344051" y="349.0"/>
      <point x="612.0" y="424.9812379288145"/>
      <point x="612.0" y="525.0" type="curve"/>
      <point x="612.0" y="621.4615384615386"/>
      <point x="538.8620689655173" y="690.0"/>
      <point x="410.0" y="690.0" type="curve"/>
      <point x="204" y="690" type="line"/>
      <point x="173" y="546" type="line"/>
      <point x="387.0" y="546.0" type="line"/>
      <point x="436" y="546.0"/>
      <point x="457.0" y="524.0"/>
      <point x="457.0" y="491.0" type="curve"/>
      <point x="457.0" y="449.0"/>
      <point x="425.5" y="414.0"/>
      <point x="352.0" y="414.0" type="curve"/>
      <point x="137.0" y="414.0" type="line"/>
      <point x="127.0" y="349.0" type="line"/>
    </contour>
  </outline>
</glyph>
<glyph name="C" format="2">
  <advance width="688"/>
  <unicode hex="0043"/>
  <anchor x="286" y="0" name="bottom"/>
  <anchor x="433" y="690" name="top"/>
  <outline>
    <contour>
      <point x="671.0" y="466.0" type="line"/>
      <point x="657.2671755725191" y="607.0"/>
      <point x="564.0801526717557" y="704.0"/>
      <point x="414.0" y="704.0" type="curve"/>
      <point x="189.88235294117646" y="704.0"/>
      <point x="33.0" y="506.0"/>
      <point x="33" y="267" type="curve"/>
      <point x="33.0" y="106.99999999999997"/>
      <point x="137.0935251798561" y="-14.0"/>
      <point x="306.0" y="-14.0" type="curve"/>
      <point x="465.16224188790557" y="-14.0"/>
      <point x="587.4454277286136" y="85.0"/>
      <point x="635.0" y="227.0" type="curve"/>
      <point x="477.0" y="262.0" type="line"/>
      <point x="452.5757575757575" y="185.0"/>
      <point x="397.1515151515151" y="132.0"/>
      <point x="322.0" y="132.0" type="curve"/>
      <point x="231.58778625954199" y="132.0"/>
      <point x="196.0" y="193.0"/>
      <point x="196" y="278" type="curve"/>
      <point x="196.0" y="432.0"/>
      <point x="277.8252427184466" y="558.0"/>
      <point x="392.0" y="558.0" type="curve"/>
      <point x="472.5853658536586" y="558.0"/>
      <point x="505.20325203252037" y="506.0"/>
      <point x="510.0" y="432.0" type="curve"/>
    </contour>
  </outline>
</glyph>
<glyph name="D" format="2">
  <advance width="689"/>
  <unicode hex="0044"/>
  <anchor x="383.66402755231525" y="690" name="top"/>
  <outline>
    <contour>
      <point x="-11" y="0" type="line"/>
      <point x="144" y="0" type="line"/>
      <point x="291" y="690" type="line"/>
      <point x="136" y="690" type="line"/>
    </contour>
    <contour>
      <point x="368" y="545" type="line"/>
      <point x="464.0" y="545.0"/>
      <point x="499.0" y="488.26712328767127"/>
      <point x="499" y="412" type="curve"/>
      <point x="499.0" y="266.25"/>
      <point x="415.0" y="145.0"/>
      <point x="280.0" y="145.0" type="curve"/>
      <point x="88" y="145" type="line"/>
      <point x="57" y="0" type="line"/>
      <point x="259" y="0" type="line"/>
      <point x="505.0" y="0.0"/>
      <point x="660.0" y="193"/>
      <point x="660" y="424" type="curve"/>
      <point x="660.0" y="575"/>
      <point x="561.0" y="690.0"/>
      <point x="388.0" y="690.0" type="curve"/>
      <point x="204" y="690" type="line"/>
      <point x="173" y="545" type="line"/>
    </contour>
  </outline>
</glyph>
<glyph name="G" format="2">
  <advance width="722"/>
  <unicode hex="0047"/>
  <anchor x="432.66402755231525" y="690" name="top"/>
  <anchor x="285" y="0" name="bottom"/>
  <outline>
    <contour>
      <point x="330" y="250" type="line"/>
      <point x="584" y="250" type="line"/>
      <point x="611" y="377" type="line"/>
      <point x="357" y="377" type="line"/>
    </contour>
    <contour>
      <point x="488" y="214" type="line"/>
      <point x="471" y="0" type="line"/>
      <point x="594" y="0" type="line"/>
      <point x="674" y="377" type="line"/>
      <point x="523" y="377" type="line"/>
      <point x="499.0" y="262.0" type="line" smooth="yes"/>
      <point x="482" y="182"/>
      <point x="407.09677419354847" y="132.0"/>
      <point x="320" y="132" type="curve"/>
      <point x="230" y="132"/>
      <point x="194" y="193"/>
      <point x="194" y="278" type="curve"/>
      <point x="194.0" y="432.0"/>
      <point x="280.1836734693877" y="558.0"/>
      <point x="400.0" y="558.0" type="curve"/>
      <point x="487.86440677966107" y="558.0"/>
      <point x="521" y="507"/>
      <point x="526.0" y="439.0" type="curve"/>
      <point x="687.0" y="473.0" type="line"/>
      <point x="672" y="608"/>
      <point x="577.8365758754865" y="704.0"/>
      <point x="422.0" y="704.0" type="curve"/>
      <point x="192.12073490813646" y="704.0"/>
      <point x="31.0" y="506.0"/>
      <point x="31" y="267" type="curve"/>
      <point x="31.0" y="106.99999999999997"/>
      <point x="123" y="-14.0"/>
      <point x="283.0" y="-14.0" type="curve"/>
      <point x="413" y="-14.0"/>
      <point x="498" y="74.0"/>
      <point x="538.0" y="216.0" type="curve"/>
    </contour>
  </outline>
</glyph>
<glyph name="H" format="2">
  <advance width="714"/>
  <unicode hex="0048"/>
  <anchor x="431.66402755231525" y="690" name="top"/>
  <outline>
    <contour>
      <point x="-11" y="0" type="line"/>
      <point x="144" y="0" type="line"/>
      <point x="291" y="690" type="line"/>
      <point x="136" y="690" type="line"/>
    </contour>
    <contour>
      <point x="426" y="0" type="line"/>
      <point x="580" y="0" type="line"/>
      <point x="727" y="690" type="line"/>
      <point x="573" y="690" type="line"/>
    </contour>
    <contour>
      <point x="147" y="423" type="line"/>
      <point x="116" y="278" type="line"/>
      <point x="571" y="278" type="line"/>
      <point x="602" y="423" type="line"/>
    </contour>
  </outline>
</glyph>
<glyph name="I" format="2">
  <advance width="278"/>
  <unicode hex="0049"/>
  <anchor x="212.66402755231525" y="690" name="top"/>
  <anchor x="66" y="0" name="bottom"/>
  <outline>
    <contour>
      <point x="-11" y="0" type="line"/>
      <point x="144" y="0" type="line"/>
      <point x="291" y="690" type="line"/>
      <point x="136" y="690" type="line"/>
    </contour>
  </outline>
</glyph>
<glyph name="K" format="2">
  <advance width="657"/>
  <unicode hex="004B"/>
  <anchor x="404.66402755231525" y="690" name="top"/>
  <anchor x="258" y="0" name="bottom"/>
  <outline>
    <contour>
      <point x="375" y="415" type="line"/>
      <point x="267" y="309" type="line"/>
      <point x="411" y="0" type="line"/>
      <point x="584" y="0" type="line"/>
    </contour>
    <contour>
      <point x="183" y="367" type="line"/>
      <point x="138" y="148" type="line"/>
      <point x="713" y="690" type="line"/>
      <point x="511" y="690" type="line"/>
    </contour>
    <contour>
      <point x="-11" y="0" type="line"/>
      <point x="144" y="0" type="line"/>
      <point x="291" y="690" type="line"/>
      <point x="136" y="690" type="line"/>
    </contour>
  </outline>
</glyph>
<glyph name="L" format="2">
  <advance width="544"/>
  <unicode hex="004C"/>
  <anchor x="209" y="0" name="bottom"/>
  <anchor x="212.66402755231525" y="690" name="top"/>
  <outline>
    <contour>
      <point x="-11" y="0" type="line"/>
      <point x="144" y="0" type="line"/>
      <point x="291" y="690" type="line"/>
      <point x="136" y="690" type="line"/>
    </contour>
    <contour>
      <point x="88" y="145" type="line"/>
      <point x="57" y="0" type="line"/>
      <point x="442" y="0" type="line"/>
      <point x="473" y="145" type="line"/>
    </contour>
  </outline>
</glyph>
<glyph name="M" format="2">
  <advance width="893"/>
  <unicode hex="004D"/>
  <outline>
    <contour>
      <point x="404.0" y="690.0" type="line"/>
      <point x="253.0" y="690.0" type="line"/>
      <point x="259.0" y="0.0" type="line"/>
      <point x="398.0" y="0.0" type="line"/>
    </contour>
    <contour>
      <point x="-11.0" y="0.0" type="line"/>
      <point x="136.0" y="0.0" type="line"/>
      <point x="283.0" y="690.0" type="line"/>
      <point x="136.0" y="690.0" type="line"/>
    </contour>
    <contour>
      <point x="627.0" y="690.0" type="line"/>
      <point x="341.0" y="0.0" type="line"/>
      <point x="484.0" y="0.0" type="line"/>
      <point x="781.0" y="690.0" type="line"/>
    </contour>
    <contour>
      <point x="604.0" y="0.0" type="line"/>
      <point x="759.0" y="0.0" type="line"/>
      <point x="906.0" y="690.0" type="line"/>
      <point x="751.0" y="690.0" type="line"/>
    </contour>
  </outline>
</glyph>
<glyph name="N" format="2">
  <advance width="716"/>
  <unicode hex="004E"/>
  <anchor x="431" y="690" name="top"/>
  <anchor x="284" y="0" name="bottom"/>
  <outline>
    <contour>
      <point x="386" y="690" type="line"/>
      <point x="235" y="690" type="line"/>
      <point x="332" y="0" type="line"/>
      <point x="483" y="0" type="line"/>
    </contour>
    <contour>
      <point x="-11" y="0" type="line"/>
      <point x="136" y="0" type="line"/>
      <point x="283" y="690" type="line"/>
      <point x="136" y="690" type="line"/>
    </contour>
    <contour>
      <point x="435" y="0" type="line"/>
      <point x="582" y="0" type="line"/>
      <point x="729" y="690" type="line"/>
      <point x="582" y="690" type="line"/>
    </contour>
  </outline>
</glyph>
<glyph name="P" format="2">
  <advance width="631"/>
  <unicode hex="0050"/>
  <outline>
    <contour>
      <point x="-11" y="0" type="line"/>
      <point x="144" y="0" type="line"/>
      <point x="291" y="690" type="line"/>
      <point x="136" y="690" type="line"/>
    </contour>
    <contour>
      <point x="306" y="213" type="line"/>
      <point x="517" y="213.0"/>
      <point x="637.0" y="337"/>
      <point x="637" y="491" type="curve"/>
      <point x="637" y="611"/>
      <point x="551" y="690"/>
      <point x="400" y="690" type="curve"/>
      <point x="204" y="690" type="line"/>
      <point x="173" y="545" type="line"/>
      <point x="372" y="545" type="line"/>
      <point x="446" y="545"/>
      <point x="477" y="515"/>
      <point x="477" y="469" type="curve"/>
      <point x="477.0" y="403"/>
      <point x="432" y="358.0"/>
      <point x="327" y="358" type="curve"/>
      <point x="133" y="358" type="line"/>
      <point x="102" y="213" type="line"/>
    </contour>
  </outline>
</glyph>
<glyph name="Q" format="2">
  <advance width="727"/>
  <unicode hex="0051"/>
  <anchor x="291" y="0.0" name="top"/>
  <anchor x="438" y="690" name="bottom"/>
  <outline>
    <contour>
      <point x="401" y="-60.0" type="line"/>
      <point x="350" y="67.0" type="line"/>
      <point x="266" y="231.0" type="line"/>
      <point x="412" y="231.0" type="line"/>
      <point x="467" y="106.0" type="line"/>
      <point x="557" y="-60.0" type="line"/>
    </contour>
    <contour>
      <point x="400" y="558" type="curve"/>
      <point x="280" y="558"/>
      <point x="194" y="432"/>
      <point x="194" y="278" type="curve"/>
      <point x="194" y="193"/>
      <point x="231" y="132"/>
      <point x="327" y="132" type="curve"/>
      <point x="447" y="132"/>
      <point x="533" y="258"/>
      <point x="533" y="412" type="curve"/>
      <point x="533" y="497"/>
      <point x="496" y="558"/>
    </contour>
    <contour>
      <point x="422" y="704" type="curve"/>
      <point x="595" y="704"/>
      <point x="696" y="584"/>
      <point x="696" y="424" type="curve"/>
      <point x="696" y="185"/>
      <point x="536" y="-14"/>
      <point x="305" y="-14" type="curve"/>
      <point x="133" y="-14"/>
      <point x="31" y="107"/>
      <point x="31" y="267" type="curve"/>
      <point x="31" y="506"/>
      <point x="192" y="704"/>
    </contour>
  </outline>
</glyph>
<glyph name="R" format="2">
  <advance width="642"/>
  <unicode hex="0052"/>
  <anchor x="402.66402755231525" y="690" name="top"/>
  <anchor x="256" y="0" name="bottom"/>
  <outline>
    <contour>
      <point x="386" y="0" type="line"/>
      <point x="548" y="0" type="line"/>
      <point x="406" y="299" type="line"/>
      <point x="257" y="299" type="line"/>
    </contour>
    <contour>
      <point x="-11" y="0" type="line"/>
      <point x="144" y="0" type="line"/>
      <point x="291" y="690" type="line"/>
      <point x="136" y="690" type="line"/>
    </contour>
    <contour>
      <point x="301.0" y="233.0" type="line"/>
      <point x="509" y="233.0"/>
      <point x="627.0" y="347.0"/>
      <point x="627.0" y="495.0" type="curve"/>
      <point x="627.0" y="609.0"/>
      <point x="543" y="690.0"/>
      <point x="395" y="690" type="curve"/>
      <point x="204" y="690" type="line"/>
      <point x="173" y="545" type="line"/>
      <point x="367" y="545" type="line"/>
      <point x="437" y="545.0"/>
      <point x="467.0" y="519"/>
      <point x="467.0" y="479.0" type="curve"/>
      <point x="467.0" y="419"/>
      <point x="424" y="378.0"/>
      <point x="322.0" y="378.0" type="curve"/>
      <point x="137.0" y="378.0" type="line"/>
      <point x="107.0" y="233.0" type="line"/>
    </contour>
  </outline>
</glyph>
<glyph name="T" format="2">
  <advance width="594"/>
  <unicode hex="0054"/>
  <anchor x="371.66402755231525" y="690" name="top"/>
  <anchor x="225" y="0" name="bottom"/>
  <outline>
    <contour>
      <point x="148" y="0" type="line"/>
      <point x="302" y="0" type="line"/>
      <point x="449" y="690" type="line"/>
      <point x="295" y="690" type="line"/>
    </contour>
    <contour>
      <point x="95" y="690" type="line"/>
      <point x="64" y="545" type="line"/>
      <point x="618" y="545" type="line"/>
      <point x="649" y="690" type="line"/>
    </contour>
  </outline>
</glyph>
<glyph name="U" format="2">
  <advance width="692"/>
  <unicode hex="0055"/>
  <anchor x="420" y="690" name="top"/>
  <anchor x="273" y="0" name="bottom"/>
  <outline>
    <contour>
      <point x="471" y="273" type="line" smooth="yes"/>
      <point x="452" y="184"/>
      <point x="388" y="131"/>
      <point x="299" y="131" type="curve"/>
      <point x="225" y="131"/>
      <point x="189" y="163"/>
      <point x="189" y="226" type="curve" smooth="yes"/>
      <point x="189" y="240"/>
      <point x="190" y="256"/>
      <point x="194" y="273" type="curve" smooth="yes"/>
      <point x="283" y="690" type="line"/>
      <point x="129" y="690" type="line"/>
      <point x="38" y="265" type="line" smooth="yes"/>
      <point x="33" y="243"/>
      <point x="31" y="221"/>
      <point x="31" y="201" type="curve" smooth="yes"/>
      <point x="31" y="74"/>
      <point x="121" y="-14"/>
      <point x="286" y="-14" type="curve"/>
      <point x="466" y="-14"/>
      <point x="583" y="87"/>
      <point x="621" y="265" type="curve" smooth="yes"/>
      <point x="712" y="690" type="line"/>
      <point x="560" y="690" type="line"/>
    </contour>
  </outline>
</glyph>
<glyph name="V" format="2">
  <advance width="675"/>
  <unicode hex="0056"/>
  <outline>
    <contour>
      <point x="147.0" y="0.0" type="line"/>
      <point x="297.0" y="0.0" type="line"/>
      <point x="234" y="690.0" type="line"/>
      <point x="75" y="690.0" type="line"/>
    </contour>
    <contour>
      <point x="227.0" y="0.0" type="line"/>
      <point x="384.0" y="0.0" type="line"/>
      <point x="750" y="690.0" type="line"/>
      <point x="574" y="690.0" type="line"/>
    </contour>
  </outline>
</glyph>
<glyph name="W" format="2">
  <advance width="986"/>
  <unicode hex="0057"/>
  <anchor x="565.6640275523152" y="690" name="top"/>
  <outline>
    <contour>
      <point x="72" y="0" type="line"/>
      <point x="218" y="0" type="line"/>
      <point x="235" y="690" type="line"/>
      <point x="79" y="690" type="line"/>
    </contour>
    <contour>
      <point x="175" y="0" type="line"/>
      <point x="323" y="0" type="line"/>
      <point x="592" y="690" type="line"/>
      <point x="446" y="690" type="line"/>
    </contour>
    <contour>
      <point x="519" y="0" type="line"/>
      <point x="663" y="0" type="line"/>
      <point x="682" y="690" type="line"/>
      <point x="544" y="690" type="line"/>
    </contour>
    <contour>
      <point x="620" y="0" type="line"/>
      <point x="770" y="0" type="line"/>
      <point x="1057" y="690" type="line"/>
      <point x="893" y="690" type="line"/>
    </contour>
  </outline>
</glyph>
<glyph name="Z" format="2">
  <advance width="616"/>
  <unicode hex="005A"/>
  <anchor x="381.66402755231525" y="690" name="top"/>
  <outline>
    <contour>
      <point x="114" y="690" type="line"/>
      <point x="84" y="550" type="line"/>
      <point x="566" y="550" type="line"/>
      <point x="632" y="587" type="line"/>
      <point x="654" y="690" type="line"/>
    </contour>
    <contour>
      <point x="-26" y="103" type="line"/>
      <point x="-48" y="0" type="line"/>
      <point x="519" y="0" type="line"/>
      <point x="549" y="140" type="line"/>
      <point x="40" y="140" type="line"/>
    </contour>
    <contour>
      <point x="-26" y="103" type="line"/>
      <point x="174" y="103" type="line"/>
      <point x="632" y="587" type="line"/>
      <point x="431" y="587" type="line"/>
    </contour>
  </outline>
</glyph>
<glyph name="bracketleft" format="2">
  <advance width="321"/>
  <unicode hex="005B"/>
  <outline>
    <contour>
      <point x="-29" y="-120" type="line"/>
      <point x="110" y="-120" type="line"/>
      <point x="300" y="770" type="line"/>
      <point x="161" y="770" type="line"/>
    </contour>
    <contour>
      <point x="209" y="770" type="line"/>
      <point x="181" y="640" type="line"/>
      <point x="375" y="640" type="line"/>
      <point x="403" y="770" type="line"/>
    </contour>
    <contour>
      <point x="47" y="10" type="line"/>
      <point x="19" y="-120" type="line"/>
      <point x="213" y="-120" type="line"/>
      <point x="241" y="10" type="line"/>
    </contour>
  </outline>
</glyph>
<glyph name="backslash" format="2">
  <advance width="340"/>
  <unicode hex="005C"/>
  <outline>
    <contour>
      <point x="241" y="-120" type="line"/>
      <point x="231" y="770" type="line"/>
      <point x="92" y="770" type="line"/>
      <point x="102" y="-120" type="line"/>
    </contour>
  </outline>
</glyph>
<glyph name="asciicircum" format="2">
  <advance width="499"/>
  <unicode hex="005E"/>
  <outline>
    <contour>
      <point x="400" y="690" type="line"/>
      <point x="248" y="690" type="line"/>
      <point x="299" y="537" type="line"/>
      <point x="329" y="277" type="line"/>
      <point x="466" y="277" type="line"/>
    </contour>
    <contour>
      <point x="6" y="278" type="line"/>
      <point x="159" y="278" type="line"/>
      <point x="299" y="537" type="line"/>
      <point x="400" y="690" type="line"/>
      <point x="248" y="690" type="line"/>
    </contour>
  </outline>
</glyph>
<glyph name="underscore" format="2">
  <advance width="471"/>
  <unicode hex="005F"/>
  <outline>
    <contour>
      <point x="-73" y="0" type="line"/>
      <point x="-101" y="-130" type="line"/>
      <point x="370" y="-130" type="line"/>
      <point x="398" y="0" type="line"/>
    </contour>
  </outline>
</glyph>
<glyph name="grave" format="2">
  <advance width="499"/>
  <unicode hex="0060"/>
  <anchor x="288.6549776851117" y="530" name="_top"/>
  <outline>
    <contour>
      <point x="363" y="585" type="line"/>
      <point x="314" y="730" type="line"/>
      <point x="164" y="730" type="line"/>
      <point x="261" y="585" type="line"/>
    </contour>
  </outline>
</glyph>
<glyph name="d" format="2">
  <advance width="584"/>
  <unicode hex="0064"/>
  <outline>
    <contour>
      <point x="459" y="0" type="line"/>
      <point x="611" y="715" type="line"/>
      <point x="462" y="715" type="line"/>
      <point x="393" y="391" type="line"/>
      <point x="386" y="265" type="line"/>
      <point x="341" y="147" type="line"/>
      <point x="310" y="0" type="line"/>
    </contour>
    <contour>
      <point x="384" y="226" type="curve"/>
      <point x="406" y="385" type="line"/>
      <point x="409" y="488"/>
      <point x="357" y="544"/>
      <point x="269" y="544" type="curve"/>
      <point x="112" y="544"/>
      <point x="10" y="376"/>
      <point x="10" y="189" type="curve"/>
      <point x="10" y="62"/>
      <point x="70" y="-14"/>
      <point x="168" y="-14" type="curve"/>
      <point x="269" y="-14"/>
      <point x="352" y="72"/>
    </contour>
    <contour>
      <point x="243" y="120" type="curve"/>
      <point x="192" y="120"/>
      <point x="164" y="151"/>
      <point x="164" y="212" type="curve"/>
      <point x="164" y="322"/>
      <point x="222" y="410"/>
      <point x="304" y="410" type="curve"/>
      <point x="355" y="410"/>
      <point x="383" y="379"/>
      <point x="383" y="318" type="curve"/>
      <point x="383" y="208"/>
      <point x="325" y="120"/>
    </contour>
  </outline>
</glyph>
<glyph name="h" format="2">
  <advance width="586"/>
  <unicode hex="0068"/>
  <anchor x="207" y="715" name="top"/>
  <anchor x="220" y="0" name="bottom"/>
  <outline>
    <contour>
      <point x="201" y="340" type="line"/>
      <point x="281" y="715" type="line"/>
      <point x="132" y="715" type="line"/>
      <point x="-20" y="0" type="line"/>
      <point x="129" y="0" type="line"/>
      <point x="194" y="304" type="line" smooth="yes"/>
      <point x="209" y="375"/>
      <point x="255" y="413"/>
      <point x="308" y="413" type="curve"/>
      <point x="352" y="413"/>
      <point x="380" y="387"/>
      <point x="380" y="338" type="curve" smooth="yes"/>
      <point x="380" y="328"/>
      <point x="379" y="318"/>
      <point x="376" y="304" type="curve" smooth="yes"/>
      <point x="311" y="0" type="line"/>
      <point x="460" y="0" type="line"/>
      <point x="526" y="312" type="line" smooth="yes"/>
      <point x="531" y="335"/>
      <point x="533" y="356"/>
      <point x="533" y="377" type="curve" smooth="yes"/>
      <point x="533" y="475"/>
      <point x="475" y="544"/>
      <point x="384" y="544" type="curve"/>
      <point x="283" y="544"/>
      <point x="200" y="457"/>
      <point x="168" y="304" type="curve"/>
    </contour>
  </outline>
</glyph>
<glyph name="i" format="2">
  <advance width="257"/>
  <unicode hex="0069"/>
  <anchor x="56.0" y="0" name="bottom"/>
  <outline>
    <contour>
      <point x="-18.0" y="0.0" type="line"/>
      <point x="131.0" y="0.0" type="line"/>
      <point x="244.0" y="530.0" type="line"/>
      <point x="95.0" y="530.0" type="line"/>
    </contour>
    <contour>
      <point x="192.0" y="580" type="curve"/>
      <point x="245.0" y="580"/>
      <point x="287.0" y="617"/>
      <point x="287.0" y="675" type="curve"/>
      <point x="287.0" y="723"/>
      <point x="256.0" y="755"/>
      <point x="204.0" y="755" type="curve"/>
      <point x="152.0" y="755"/>
      <point x="110.0" y="717"/>
      <point x="110.0" y="659" type="curve"/>
      <point x="110.0" y="611"/>
      <point x="141.0" y="580"/>
    </contour>
  </outline>
</glyph>
<glyph name="j" format="2">
  <advance width="257"/>
  <unicode hex="006A"/>
  <outline>
    <contour>
      <point x="-17" y="9" type="line" smooth="yes"/>
      <point x="-26" y="-32"/>
      <point x="-50" y="-54"/>
      <point x="-91" y="-54" type="curve"/>
      <point x="-116" y="-54"/>
      <point x="-138" y="-49"/>
      <point x="-158" y="-41" type="curve"/>
      <point x="-186" y="-172" type="line"/>
      <point x="-161" y="-183"/>
      <point x="-122" y="-189"/>
      <point x="-82" y="-189" type="curve"/>
      <point x="21" y="-189"/>
      <point x="100" y="-143"/>
      <point x="127" y="-14" type="curve" smooth="yes"/>
      <point x="243" y="530" type="line"/>
      <point x="94" y="530" type="line"/>
    </contour>
    <contour>
      <point x="191" y="580" type="curve"/>
      <point x="244" y="580"/>
      <point x="286" y="617"/>
      <point x="286" y="675" type="curve"/>
      <point x="286" y="723"/>
      <point x="255" y="755"/>
      <point x="203" y="755" type="curve"/>
      <point x="151" y="755"/>
      <point x="109" y="717"/>
      <point x="109" y="659" type="curve"/>
      <point x="109" y="611"/>
      <point x="140" y="580"/>
    </contour>
  </outline>
</glyph>
<glyph name="k" format="2">
  <advance width="544"/>
  <unicode hex="006B"/>
  <anchor x="214" y="0" name="bottom"/>
  <outline>
    <contour>
      <point x="208" y="244" type="line"/>
      <point x="313" y="0" type="line"/>
      <point x="471" y="0" type="line"/>
      <point x="310" y="343" type="line"/>
    </contour>
    <contour>
      <point x="147" y="138" type="line"/>
      <point x="571" y="530" type="line"/>
      <point x="383" y="530" type="line"/>
      <point x="190" y="341" type="line"/>
    </contour>
    <contour>
      <point x="-20" y="0" type="line"/>
      <point x="129" y="0" type="line"/>
      <point x="281" y="715" type="line"/>
      <point x="132" y="715" type="line"/>
    </contour>
  </outline>
</glyph>
<glyph name="l" format="2">
  <advance width="254"/>
  <unicode hex="006C"/>
  <anchor x="55" y="0" name="bottom"/>
  <anchor x="206.97794159406578" y="715" name="top"/>
  <outline>
    <contour>
      <point x="-20" y="0" type="line"/>
      <point x="129" y="0" type="line"/>
      <point x="281" y="715" type="line"/>
      <point x="132" y="715" type="line"/>
    </contour>
  </outline>
</glyph>
<glyph name="m" format="2">
  <advance width="875"/>
  <unicode hex="006D"/>
  <outline>
    <contour>
      <point x="129" y="0" type="line"/>
      <point x="-20" y="0" type="line"/>
      <point x="93" y="530" type="line"/>
      <point x="242" y="530" type="line"/>
      <point x="209" y="375" type="line"/>
      <point x="168" y="306" type="line"/>
      <point x="200" y="458"/>
      <point x="278" y="544"/>
      <point x="374" y="544" type="curve"/>
      <point x="457" y="544"/>
      <point x="508" y="472"/>
      <point x="506" y="374" type="curve"/>
      <point x="457" y="306" type="line"/>
      <point x="489" y="458"/>
      <point x="577" y="544"/>
      <point x="678" y="544" type="curve"/>
      <point x="765" y="544"/>
      <point x="821" y="471"/>
      <point x="821" y="374" type="curve"/>
      <point x="821" y="351"/>
      <point x="819" y="329"/>
      <point x="814" y="306" type="curve" smooth="yes"/>
      <point x="749" y="0" type="line"/>
      <point x="599" y="0" type="line"/>
      <point x="664" y="306" type="line" smooth="yes"/>
      <point x="667" y="320"/>
      <point x="668" y="332"/>
      <point x="668" y="343" type="curve" smooth="yes"/>
      <point x="668" y="389"/>
      <point x="645" y="413"/>
      <point x="607" y="413" type="curve"/>
      <point x="560" y="413"/>
      <point x="519" y="376"/>
      <point x="504" y="306" type="curve" smooth="yes"/>
      <point x="439" y="0" type="line"/>
      <point x="289" y="0" type="line"/>
      <point x="354" y="306" type="line" smooth="yes"/>
      <point x="357" y="320"/>
      <point x="358" y="333"/>
      <point x="358" y="344" type="curve" smooth="yes"/>
      <point x="358" y="389"/>
      <point x="335" y="413"/>
      <point x="297" y="413" type="curve"/>
      <point x="250" y="413"/>
      <point x="209" y="376"/>
      <point x="194" y="306" type="curve" smooth="yes"/>
    </contour>
  </outline>
</glyph>
<glyph name="o" format="2">
  <advance width="576"/>
  <unicode hex="006F"/>
  <anchor x="328" y="530" name="top"/>
  <anchor x="215" y="0" name="bottom"/>
  <outline>
    <contour>
      <point x="301" y="411" type="curve"/>
      <point x="355" y="411"/>
      <point x="382" y="371"/>
      <point x="382" y="312" type="curve"/>
      <point x="382" y="207"/>
      <point x="319" y="119"/>
      <point x="241" y="119" type="curve"/>
      <point x="187" y="119"/>
      <point x="160" y="159"/>
      <point x="160" y="218" type="curve"/>
      <point x="160" y="323"/>
      <point x="222" y="411"/>
    </contour>
    <contour>
      <point x="224" y="-14" type="curve"/>
      <point x="405" y="-14"/>
      <point x="536" y="143"/>
      <point x="536" y="329" type="curve"/>
      <point x="536" y="454"/>
      <point x="451" y="544"/>
      <point x="318" y="544" type="curve"/>
      <point x="137" y="544"/>
      <point x="6" y="387"/>
      <point x="6" y="201" type="curve"/>
      <point x="6" y="76"/>
      <point x="91" y="-14"/>
    </contour>
  </outline>
</glyph>
<glyph name="r" format="2">
  <advance width="369"/>
  <unicode hex="0072"/>
  <anchor x="241.6549776851117" y="530" name="top"/>
  <anchor x="55" y="0" name="bottom"/>
  <outline>
    <contour>
      <point x="-20" y="0" type="line"/>
      <point x="129" y="0" type="line"/>
      <point x="242" y="530" type="line"/>
      <point x="93" y="530" type="line"/>
    </contour>
    <contour>
      <point x="403" y="544" type="line"/>
      <point x="275" y="544"/>
      <point x="199" y="423"/>
      <point x="160" y="238" type="curve"/>
      <point x="187" y="271" type="line"/>
      <point x="203" y="348"/>
      <point x="242" y="373"/>
      <point x="304" y="373" type="curve"/>
      <point x="366" y="373" type="line"/>
    </contour>
  </outline>
</glyph>
<glyph name="s" format="2">
  <advance width="514"/>
  <unicode hex="0073"/>
  <anchor x="296" y="530" name="top"/>
  <anchor x="187" y="0" name="bottom"/>
  <outline>
    <contour>
      <point x="356" y="-14.0"/>
      <point x="450.0" y="66"/>
      <point x="450" y="167" type="curve"/>
      <point x="450" y="349"/>
      <point x="192" y="316"/>
      <point x="192" y="389" type="curve"/>
      <point x="192" y="410"/>
      <point x="210" y="429.0"/>
      <point x="262" y="429" type="curve"/>
      <point x="310" y="429"/>
      <point x="331" y="408"/>
      <point x="344" y="362" type="curve"/>
      <point x="488" y="404" type="line"/>
      <point x="468" y="494"/>
      <point x="397" y="544"/>
      <point x="284" y="544" type="curve"/>
      <point x="133" y="544.0"/>
      <point x="43.0" y="458"/>
      <point x="43" y="368" type="curve"/>
      <point x="43" y="190"/>
      <point x="292" y="226"/>
      <point x="292" y="147" type="curve"/>
      <point x="292" y="124"/>
      <point x="275" y="102.0"/>
      <point x="217" y="102" type="curve"/>
      <point x="169" y="102"/>
      <point x="140" y="127"/>
      <point x="126" y="183" type="curve"/>
      <point x="-21" y="140" type="line"/>
      <point x="-8.0" y="38.0"/>
      <point x="71" y="-14.0"/>
      <point x="198" y="-14" type="curve"/>
    </contour>
  </outline>
</glyph>
<glyph name="v" format="2">
  <advance width="542"/>
  <unicode hex="0076"/>
  <outline>
    <contour>
      <point x="80.0" y="0.0" type="line"/>
      <point x="221.0" y="0.0" type="line"/>
      <point x="202" y="530.0" type="line"/>
      <point x="46" y="530.0" type="line"/>
    </contour>
    <contour>
      <point x="172.0" y="0.0" type="line"/>
      <point x="318.0" y="0.0" type="line"/>
      <point x="578" y="530.0" type="line"/>
      <point x="411" y="530.0" type="line"/>
    </contour>
  </outline>
</glyph>
<glyph name="w" format="2">
  <advance width="837"/>
  <unicode hex="0077"/>
  <anchor x="459.6549776851117" y="530" name="top"/>
  <outline>
    <contour>
      <point x="40" y="0" type="line"/>
      <point x="172" y="0" type="line"/>
      <point x="199" y="530" type="line"/>
      <point x="51" y="530" type="line"/>
    </contour>
    <contour>
      <point x="141" y="0" type="line"/>
      <point x="275" y="0" type="line"/>
      <point x="477" y="530" type="line"/>
      <point x="342" y="530" type="line"/>
    </contour>
    <contour>
      <point x="419" y="0" type="line"/>
      <point x="552" y="0" type="line"/>
      <point x="572" y="530" type="line"/>
      <point x="441" y="530" type="line"/>
    </contour>
    <contour>
      <point x="521" y="0" type="line"/>
      <point x="653" y="0" type="line"/>
      <point x="868" y="530" type="line"/>
      <point x="713" y="530" type="line"/>
    </contour>
  </outline>
</glyph>
<glyph name="x" format="2">
  <advance width="522"/>
  <unicode hex="0078"/>
  <outline>
    <contour>
      <point x="288.0" y="0.0" type="line"/>
      <point x="444.0" y="0.0" type="line"/>
      <point x="211.0" y="530.0" type="line"/>
      <point x="55.0" y="530.0" type="line"/>
    </contour>
    <contour>
      <point x="106.0" y="0.0" type="line"/>
      <point x="259.0" y="206.0" type="line"/>
      <point x="309.0" y="248.0" type="line"/>
      <point x="547.0" y="530.0" type="line"/>
      <point x="373.0" y="530.0" type="line"/>
      <point x="233.0" y="340.0" type="line"/>
      <point x="182.0" y="297.0" type="line"/>
      <point x="-68.0" y="0.0" type="line"/>
    </contour>
  </outline>
</glyph>
<glyph name="z" format="2">
  <advance width="499"/>
  <unicode hex="007A"/>
  <anchor x="288.6549776851117" y="530" name="top"/>
  <outline>
    <contour>
      <point x="78" y="530" type="line"/>
      <point x="52" y="407" type="line"/>
      <point x="435" y="407" type="line"/>
      <point x="480" y="433" type="line"/>
      <point x="501" y="530" type="line"/>
    </contour>
    <contour>
      <point x="-24" y="97" type="line"/>
      <point x="-45" y="0" type="line"/>
      <point x="398" y="0" type="line"/>
      <point x="424" y="123" type="line"/>
      <point x="21" y="123" type="line"/>
    </contour>
    <contour>
      <point x="-24" y="97" type="line"/>
      <point x="156" y="88" type="line"/>
      <point x="480" y="433" type="line"/>
      <point x="300" y="442" type="line"/>
    </contour>
  </outline>
</glyph>
<glyph name="braceleft" format="2">
  <advance width="345"/>
  <unicode hex="007B"/>
  <outline>
    <contour>
      <point x="135" y="324" type="line"/>
      <point x="208" y="314"/>
      <point x="245" y="282"/>
      <point x="245" y="231" type="curve"/>
      <point x="245" y="140"/>
      <point x="130" y="88"/>
      <point x="130" y="28" type="curve"/>
      <point x="130" y="-7"/>
      <point x="174" y="-33"/>
      <point x="271" y="-46" type="curve"/>
      <point x="240" y="-152" type="line"/>
      <point x="68" y="-140"/>
      <point x="-5" y="-66"/>
      <point x="-5" y="16" type="curve" smooth="yes"/>
      <point x="-5" y="117"/>
      <point x="117" y="179"/>
      <point x="117" y="239" type="curve" smooth="yes"/>
      <point x="117" y="259"/>
      <point x="107" y="272"/>
      <point x="77" y="272" type="curve"/>
      <point x="35" y="272" type="line"/>
      <point x="57" y="378" type="line"/>
      <point x="96" y="378" type="line"/>
      <point x="143" y="378"/>
      <point x="157" y="400"/>
      <point x="157" y="434" type="curve" smooth="yes"/>
      <point x="157" y="477"/>
      <point x="117" y="526"/>
      <point x="117" y="592" type="curve"/>
      <point x="117" y="696"/>
      <point x="204" y="793"/>
      <point x="425" y="802" type="curve"/>
      <point x="429" y="696" type="line"/>
      <point x="289" y="677"/>
      <point x="247" y="634"/>
      <point x="247" y="592" type="curve"/>
      <point x="247" y="542"/>
      <point x="283" y="489"/>
      <point x="283" y="432" type="curve"/>
      <point x="283" y="368"/>
      <point x="231" y="321"/>
      <point x="133" y="316" type="curve"/>
    </contour>
  </outline>
</glyph>
<glyph name="braceright" format="2">
  <advance width="345"/>
  <unicode hex="007D"/>
  <outline>
    <contour>
      <point x="203" y="326" type="line"/>
      <point x="130" y="336"/>
      <point x="93" y="368"/>
      <point x="93" y="419" type="curve"/>
      <point x="93" y="510"/>
      <point x="208" y="562"/>
      <point x="208" y="622" type="curve"/>
      <point x="208" y="657"/>
      <point x="164" y="683"/>
      <point x="67" y="696" type="curve"/>
      <point x="98" y="802" type="line"/>
      <point x="270" y="790"/>
      <point x="343" y="716"/>
      <point x="343" y="634" type="curve" smooth="yes"/>
      <point x="343" y="533"/>
      <point x="221" y="471"/>
      <point x="221" y="411" type="curve" smooth="yes"/>
      <point x="221" y="391"/>
      <point x="231" y="378"/>
      <point x="261" y="378" type="curve"/>
      <point x="303" y="378" type="line"/>
      <point x="281" y="272" type="line"/>
      <point x="242" y="272" type="line"/>
      <point x="195" y="272"/>
      <point x="181" y="250"/>
      <point x="181" y="216" type="curve" smooth="yes"/>
      <point x="181" y="173"/>
      <point x="221" y="124"/>
      <point x="221" y="58" type="curve"/>
      <point x="221" y="-46"/>
      <point x="134" y="-143"/>
      <point x="-87" y="-152" type="curve"/>
      <point x="-91" y="-46" type="line"/>
      <point x="49" y="-27"/>
      <point x="91" y="16"/>
      <point x="91" y="58" type="curve"/>
      <point x="91" y="108"/>
      <point x="55" y="161"/>
      <point x="55" y="218" type="curve"/>
      <point x="55" y="282"/>
      <point x="107" y="329"/>
      <point x="205" y="334" type="curve"/>
    </contour>
  </outline>
</glyph>
<glyph name="asciitilde" format="2">
  <advance width="495"/>
  <unicode hex="007E"/>
  <outline>
    <contour>
      <point x="336" y="277" type="curve"/>
      <point x="424" y="277"/>
      <point x="486" y="348"/>
      <point x="503" y="475" type="curve"/>
      <point x="389" y="475" type="line"/>
      <point x="384" y="432"/>
      <point x="370" y="416"/>
      <point x="340" y="416" type="curve"/>
      <point x="291" y="416"/>
      <point x="256" y="475"/>
      <point x="174" y="475" type="curve"/>
      <point x="85" y="475"/>
      <point x="24" y="404"/>
      <point x="7" y="277" type="curve"/>
      <point x="121" y="277" type="line"/>
      <point x="126" y="320"/>
      <point x="139" y="336"/>
      <point x="169" y="336" type="curve"/>
      <point x="221" y="336"/>
      <point x="256" y="277"/>
    </contour>
  </outline>
</glyph>
<glyph name="exclamdown" format="2">
  <advance width="275"/>
  <unicode hex="00A1"/>
  <outline>
    <contour>
      <point x="106" y="-175" type="line"/>
      <point x="149" y="28" type="line"/>
      <point x="176" y="283" type="line"/>
      <point x="74" y="283" type="line"/>
      <point x="-7" y="28" type="line"/>
      <point x="-50" y="-175" type="line"/>
    </contour>
    <contour>
      <point x="155" y="369" type="curve"/>
      <point x="208" y="369"/>
      <point x="250" y="406"/>
      <point x="250" y="464" type="curve"/>
      <point x="250" y="512"/>
      <point x="219" y="544"/>
      <point x="167" y="544" type="curve"/>
      <point x="115" y="544"/>
      <point x="73" y="506"/>
      <point x="73" y="448" type="curve"/>
      <point x="73" y="400"/>
      <point x="104" y="369"/>
    </contour>
  </outline>
</glyph>
<glyph name="yen" format="2">
  <advance width="620"/>
  <unicode hex="00A5"/>
  <outline>
    <contour>
      <point x="160" y="0" type="line"/>
      <point x="314" y="0" type="line"/>
      <point x="410" y="453" type="line"/>
      <point x="256" y="453" type="line"/>
    </contour>
    <contour>
      <point x="61" y="290" type="line"/>
      <point x="38" y="183" type="line"/>
      <point x="514" y="183" type="line"/>
      <point x="537" y="290" type="line"/>
    </contour>
    <contour>
      <point x="91" y="432" type="line"/>
      <point x="68" y="325" type="line"/>
      <point x="544" y="325" type="line"/>
      <point x="567" y="432" type="line"/>
    </contour>
    <contour>
      <point x="491" y="690" type="line"/>
      <point x="285" y="415" type="line"/>
      <point x="358" y="293" type="line"/>
      <point x="667" y="690" type="line"/>
    </contour>
    <contour>
      <point x="103" y="690" type="line"/>
      <point x="241" y="292" type="line"/>
      <point x="357" y="415" type="line"/>
      <point x="266" y="690" type="line"/>
    </contour>
  </outline>
</glyph>
<glyph name="dieresis" format="2">
  <advance width="500"/>
  <unicode hex="00A8"/>
  <anchor x="289.6549776851117" y="530" name="_top"/>
  <outline>
    <contour>
      <point x="214" y="588" type="curve"/>
      <point x="256" y="588"/>
      <point x="290" y="618"/>
      <point x="290" y="664" type="curve"/>
      <point x="290" y="703"/>
      <point x="265" y="728"/>
      <point x="224" y="728" type="curve"/>
      <point x="182" y="728"/>
      <point x="148" y="698"/>
      <point x="148" y="652" type="curve"/>
      <point x="148" y="613"/>
      <point x="173" y="588"/>
    </contour>
    <contour>
      <point x="410" y="588" type="curve"/>
      <point x="452" y="588"/>
      <point x="486" y="618"/>
      <point x="486" y="664" type="curve"/>
      <point x="486" y="703"/>
      <point x="461" y="728"/>
      <point x="420" y="728" type="curve"/>
      <point x="378" y="728"/>
      <point x="344" y="698"/>
      <point x="344" y="652" type="curve"/>
      <point x="344" y="613"/>
      <point x="369" y="588"/>
    </contour>
  </outline>
</glyph>
<glyph name="macron" format="2">
  <advance width="498"/>
  <unicode hex="00AF"/>
  <anchor x="288.6549776851117" y="530" name="_top"/>
  <outline>
    <contour>
      <point x="157" y="603" type="line"/>
      <point x="451" y="603" type="line"/>
      <point x="476" y="718" type="line"/>
      <point x="182" y="718" type="line"/>
    </contour>
  </outline>
</glyph>
<glyph name="plusminus" format="2">
  <advance width="533"/>
  <unicode hex="00B1"/>
  <outline>
    <contour>
      <point x="66" y="458" type="line"/>
      <point x="37" y="322" type="line"/>
      <point x="486" y="322" type="line"/>
      <point x="515" y="458" type="line"/>
    </contour>
    <contour>
      <point x="382" y="560" type="line"/>
      <point x="243" y="560" type="line"/>
      <point x="171" y="220" type="line"/>
      <point x="310" y="220" type="line"/>
    </contour>
    <contour>
      <point x="7" y="179" type="line"/>
      <point x="-22" y="44" type="line"/>
      <point x="427" y="44" type="line"/>
      <point x="456" y="179" type="line"/>
    </contour>
  </outline>
</glyph>
<glyph name="threesuperior" format="2">
  <advance width="264"/>
  <unicode hex="00B3"/>
  <outline>
    <contour>
      <point x="86" y="690" type="line"/>
      <point x="69" y="610" type="line"/>
      <point x="277" y="610" type="line"/>
      <point x="308" y="628" type="line"/>
      <point x="322" y="690" type="line"/>
    </contour>
    <contour>
      <point x="172" y="561" type="curve"/>
      <point x="184" y="545" type="line"/>
      <point x="308" y="628" type="line"/>
      <point x="259" y="667" type="line"/>
      <point x="126" y="564" type="line"/>
      <point x="117" y="522" type="line"/>
      <point x="162" y="522" type="line"/>
      <point x="186" y="522"/>
      <point x="197" y="513"/>
      <point x="197" y="493" type="curve"/>
      <point x="197" y="474"/>
      <point x="181" y="456"/>
      <point x="156" y="456" type="curve"/>
      <point x="134" y="456"/>
      <point x="121" y="471"/>
      <point x="119" y="498" type="curve"/>
      <point x="33" y="481" type="line"/>
      <point x="38" y="411"/>
      <point x="85" y="376"/>
      <point x="151" y="376" type="curve"/>
      <point x="229" y="376"/>
      <point x="281" y="424"/>
      <point x="281" y="490" type="curve"/>
      <point x="281" y="529"/>
      <point x="260" y="568"/>
      <point x="215" y="568" type="curve"/>
      <point x="204" y="568"/>
      <point x="189" y="565"/>
    </contour>
  </outline>
</glyph>
<glyph name="acute" format="2">
  <advance width="499"/>
  <unicode hex="00B4"/>
  <anchor x="288.6549776851117" y="530" name="_top"/>
  <outline>
    <contour>
      <point x="230" y="585" type="line"/>
      <point x="345" y="585" type="line"/>
      <point x="501" y="730" type="line"/>
      <point x="340" y="730" type="line"/>
    </contour>
  </outline>
</glyph>
<glyph name="paragraph" format="2">
  <advance width="697"/>
  <unicode hex="00B6"/>
  <outline>
    <contour>
      <point x="388" y="-120" type="line"/>
      <point x="527" y="-120" type="line"/>
      <point x="700" y="690" type="line"/>
      <point x="561" y="690" type="line"/>
    </contour>
    <contour>
      <point x="188" y="-120" type="line"/>
      <point x="327" y="-120" type="line"/>
      <point x="500" y="690" type="line"/>
      <point x="361" y="690" type="line"/>
    </contour>
    <contour>
      <point x="334" y="690" type="line"/>
      <point x="175" y="690"/>
      <point x="59" y="566"/>
      <point x="59" y="422" type="curve"/>
      <point x="59" y="296"/>
      <point x="137" y="230"/>
      <point x="250" y="230" type="curve"/>
      <point x="326" y="230" type="line"/>
      <point x="424" y="690" type="line"/>
    </contour>
  </outline>
</glyph>
<glyph name="cedilla" format="2">
  <advance width="499"/>
  <unicode hex="00B8"/>
  <anchor x="176" y="0" name="_bottom"/>
  <outline>
    <contour>
      <point x="178" y="-29" type="curve"/>
      <point x="187" y="-43" type="line"/>
      <point x="204" y="9" type="line"/>
      <point x="136" y="11" type="line"/>
      <point x="103" y="-80" type="line"/>
      <point x="115" y="-76"/>
      <point x="125" y="-74"/>
      <point x="137" y="-74" type="curve"/>
      <point x="157" y="-74"/>
      <point x="167" y="-80"/>
      <point x="167" y="-91" type="curve"/>
      <point x="167.0" y="-103"/>
      <point x="156" y="-109"/>
      <point x="133" y="-109" type="curve"/>
      <point x="113" y="-109"/>
      <point x="91" y="-105"/>
      <point x="72" y="-94" type="curve"/>
      <point x="43" y="-174" type="line"/>
      <point x="68" y="-185"/>
      <point x="98" y="-190"/>
      <point x="126" y="-190" type="curve"/>
      <point x="217.76470588235293" y="-190.0"/>
      <point x="257" y="-146"/>
      <point x="257" y="-97" type="curve"/>
      <point x="257" y="-57"/>
      <point x="228" y="-29"/>
    </contour>
  </outline>
</glyph>
<glyph name="guillemetright" format="2">
  <advance width="505"/>
  <unicode hex="00BB"/>
  <outline>
    <contour>
      <point x="471" y="253" type="line"/>
      <point x="487" y="327" type="line"/>
      <point x="353" y="305" type="line"/>
      <point x="165" y="76" type="line"/>
      <point x="333" y="76" type="line"/>
    </contour>
    <contour>
      <point x="403" y="504" type="line"/>
      <point x="256" y="504" type="line"/>
      <point x="353" y="305" type="line"/>
      <point x="471" y="253" type="line"/>
      <point x="487" y="327" type="line"/>
    </contour>
    <contour>
      <point x="249" y="253" type="line"/>
      <point x="265" y="327" type="line"/>
      <point x="131" y="305" type="line"/>
      <point x="-57" y="76" type="line"/>
      <point x="111" y="76" type="line"/>
    </contour>
    <contour>
      <point x="181" y="504" type="line"/>
      <point x="34" y="504" type="line"/>
      <point x="131" y="305" type="line"/>
      <point x="249" y="253" type="line"/>
      <point x="265" y="327" type="line"/>
    </contour>
  </outline>
</glyph>
<glyph name="onehalf" format="2">
  <advance width="697"/>
  <unicode hex="00BD"/>
  <outline>
    <contour>
      <point x="97" y="384" type="line"/>
      <point x="188" y="384" type="line"/>
      <point x="253" y="690" type="line"/>
      <point x="177" y="690" type="line"/>
      <point x="141" y="593" type="line"/>
    </contour>
    <contour>
      <point x="79" y="574" type="line"/>
      <point x="173" y="574" type="line"/>
      <point x="177" y="690" type="line"/>
      <point x="161" y="647"/>
      <point x="138" y="634"/>
      <point x="91" y="631" type="curve"/>
    </contour>
    <contour>
      <point x="-24" y="0" type="line"/>
      <point x="106" y="0" type="line"/>
      <point x="679" y="690" type="line"/>
      <point x="549" y="690" type="line"/>
    </contour>
    <contour>
      <point x="599" y="152"/>
      <point x="618" y="188"/>
      <point x="618" y="229" type="curve" smooth="yes"/>
      <point x="618" y="275"/>
      <point x="579" y="314"/>
      <point x="515" y="314" type="curve"/>
      <point x="454" y="314"/>
      <point x="404" y="282"/>
      <point x="388" y="205" type="curve"/>
      <point x="471" y="189" type="line"/>
      <point x="478" y="224"/>
      <point x="494" y="231"/>
      <point x="506" y="231" type="curve"/>
      <point x="517" y="231"/>
      <point x="526" y="224"/>
      <point x="526" y="211" type="curve"/>
      <point x="526" y="194"/>
      <point x="518" y="181"/>
      <point x="469" y="146" type="curve" smooth="yes"/>
      <point x="355" y="63" type="line"/>
      <point x="455" y="58" type="line"/>
      <point x="544" y="116" type="line" smooth="yes"/>
    </contour>
    <contour>
      <point x="584" y="0" type="line"/>
      <point x="601" y="80" type="line"/>
      <point x="387" y="80" type="line"/>
      <point x="355" y="63" type="line"/>
      <point x="342" y="0" type="line"/>
    </contour>
  </outline>
</glyph>
<glyph name="threequarters" format="2">
  <advance width="746"/>
  <unicode hex="00BE"/>
  <outline>
    <contour>
      <point x="391" y="95" type="line"/>
      <point x="380" y="42" type="line"/>
      <point x="638" y="42" type="line"/>
      <point x="653" y="112" type="line"/>
      <point x="413" y="112" type="line"/>
    </contour>
    <contour>
      <point x="503" y="0" type="line"/>
      <point x="593" y="0" type="line"/>
      <point x="658" y="306" type="line"/>
      <point x="568" y="306" type="line"/>
    </contour>
    <contour>
      <point x="391" y="95" type="line"/>
      <point x="473" y="95" type="line"/>
      <point x="613" y="306" type="line"/>
      <point x="540" y="306" type="line"/>
    </contour>
    <contour>
      <point x="35" y="0" type="line"/>
      <point x="165" y="0" type="line"/>
      <point x="738" y="690" type="line"/>
      <point x="608" y="690" type="line"/>
    </contour>
    <contour>
      <point x="122" y="690" type="line"/>
      <point x="105" y="610" type="line"/>
      <point x="313" y="610" type="line"/>
      <point x="344" y="628" type="line"/>
      <point x="358" y="690" type="line"/>
    </contour>
    <contour>
      <point x="208" y="561" type="curve"/>
      <point x="220" y="545" type="line"/>
      <point x="344" y="628" type="line"/>
      <point x="295" y="667" type="line"/>
      <point x="162" y="564" type="line"/>
      <point x="153" y="522" type="line"/>
      <point x="198" y="522" type="line"/>
      <point x="222" y="522"/>
      <point x="233" y="513"/>
      <point x="233" y="493" type="curve"/>
      <point x="233" y="474"/>
      <point x="217" y="456"/>
      <point x="192" y="456" type="curve"/>
      <point x="170" y="456"/>
      <point x="157" y="471"/>
      <point x="155" y="498" type="curve"/>
      <point x="69" y="481" type="line"/>
      <point x="74" y="411"/>
      <point x="121" y="376"/>
      <point x="187" y="376" type="curve"/>
      <point x="265" y="376"/>
      <point x="317" y="424"/>
      <point x="317" y="490" type="curve"/>
      <point x="317" y="529"/>
      <point x="296" y="568"/>
      <point x="251" y="568" type="curve"/>
      <point x="240" y="568"/>
      <point x="225" y="565"/>
    </contour>
  </outline>
</glyph>
<glyph name="questiondown" format="2">
  <advance width="551"/>
  <unicode hex="00BF"/>
  <outline>
    <contour>
      <point x="189" y="175"/>
      <point x="-40" y="167"/>
      <point x="-40" y="-12" type="curve"/>
      <point x="-40" y="-115"/>
      <point x="42" y="-189"/>
      <point x="175" y="-189" type="curve"/>
      <point x="305" y="-189"/>
      <point x="406" y="-135"/>
      <point x="452" y="14" type="curve"/>
      <point x="305" y="50" type="line"/>
      <point x="285" y="-19"/>
      <point x="242" y="-48"/>
      <point x="188" y="-48" type="curve"/>
      <point x="143" y="-48"/>
      <point x="121" y="-27"/>
      <point x="121" y="0" type="curve"/>
      <point x="121" y="84"/>
      <point x="322" y="106"/>
      <point x="347" y="276" type="curve" smooth="yes"/>
      <point x="351" y="303" type="line"/>
      <point x="221" y="303" type="line"/>
      <point x="217" y="287" type="line" smooth="yes"/>
    </contour>
    <contour>
      <point x="316" y="544" type="curve"/>
      <point x="263" y="544"/>
      <point x="221" y="507"/>
      <point x="221" y="449" type="curve"/>
      <point x="221" y="401"/>
      <point x="252" y="369"/>
      <point x="304" y="369" type="curve"/>
      <point x="356" y="369"/>
      <point x="398" y="407"/>
      <point x="398" y="465" type="curve"/>
      <point x="398" y="513"/>
      <point x="367" y="544"/>
    </contour>
  </outline>
</glyph>
<glyph name="Agrave" format="2">
  <advance width="675"/>
  <unicode hex="00C0"/>
  <outline>
    <contour>
      <point x="143" y="295" type="line"/>
      <point x="114" y="158" type="line"/>
      <point x="482" y="158" type="line"/>
      <point x="511" y="295" type="line"/>
    </contour>
    <contour>
      <point x="530" y="690" type="line"/>
      <point x="380" y="690" type="line"/>
      <point x="443" y="0" type="line"/>
      <point x="602" y="0" type="line"/>
    </contour>
    <contour>
      <point x="450" y="690" type="line"/>
      <point x="293" y="690" type="line"/>
      <point x="-73" y="0" type="line"/>
      <point x="103" y="0" type="line"/>
    </contour>
    <contour>
      <point x="486" y="735" type="line"/>
      <point x="408" y="850" type="line"/>
      <point x="247" y="850" type="line"/>
      <point x="376" y="735" type="line"/>
    </contour>
  </outline>
</glyph>
<glyph name="Acircumflex" format="2">
  <advance width="675"/>
  <unicode hex="00C2"/>
  <outline>
    <contour>
      <point x="143" y="295" type="line"/>
      <point x="114" y="158" type="line"/>
      <point x="482" y="158" type="line"/>
      <point x="511" y="295" type="line"/>
    </contour>
    <contour>
      <point x="530" y="690" type="line"/>
      <point x="380" y="690" type="line"/>
      <point x="443" y="0" type="line"/>
      <point x="602" y="0" type="line"/>
    </contour>
    <contour>
      <point x="450" y="690" type="line"/>
      <point x="293" y="690" type="line"/>
      <point x="-73" y="0" type="line"/>
      <point x="103" y="0" type="line"/>
    </contour>
    <contour>
      <point x="226" y="735" type="line"/>
      <point x="353" y="735" type="line"/>
      <point x="468" y="812" type="line"/>
      <point x="490" y="850" type="line"/>
      <point x="361" y="850" type="line"/>
    </contour>
    <contour>
      <point x="614" y="735" type="line"/>
      <point x="529" y="850" type="line"/>
      <point x="400" y="850" type="line"/>
      <point x="416" y="812" type="line"/>
      <point x="497" y="735" type="line"/>
    </contour>
  </outline>
</glyph>
<glyph name="Atilde" format="2">
  <advance width="675"/>
  <unicode hex="00C3"/>
  <outline>
    <contour>
      <point x="143" y="295" type="line"/>
      <point x="114" y="158" type="line"/>
      <point x="482" y="158" type="line"/>
      <point x="511" y="295" type="line"/>
    </contour>
    <contour>
      <point x="530" y="690" type="line"/>
      <point x="380" y="690" type="line"/>
      <point x="443" y="0" type="line"/>
      <point x="602" y="0" type="line"/>
    </contour>
    <contour>
      <point x="450" y="690" type="line"/>
      <point x="293" y="690" type="line"/>
      <point x="-73" y="0" type="line"/>
      <point x="103" y="0" type="line"/>
    </contour>
    <contour>
      <point x="491" y="735" type="curve"/>
      <point x="554" y="735"/>
      <point x="601" y="781"/>
      <point x="613" y="854" type="curve"/>
      <point x="529" y="854" type="line"/>
      <point x="528" y="828"/>
      <point x="512" y="817"/>
      <point x="495" y="817" type="curve"/>
      <point x="464" y="817"/>
      <point x="440" y="854"/>
      <point x="375" y="854" type="curve"/>
      <point x="311" y="854"/>
      <point x="264" y="808"/>
      <point x="253" y="735" type="curve"/>
      <point x="337" y="735" type="line"/>
      <point x="338" y="761"/>
      <point x="354" y="772"/>
      <point x="371" y="772" type="curve"/>
      <point x="404" y="772"/>
      <point x="426" y="735"/>
    </contour>
  </outline>
</glyph>
<glyph name="Adieresis" format="2">
  <advance width="675"/>
  <unicode hex="00C4"/>
  <outline>
    <contour>
      <point x="143" y="295" type="line"/>
      <point x="114" y="158" type="line"/>
      <point x="482" y="158" type="line"/>
      <point x="511" y="295" type="line"/>
    </contour>
    <contour>
      <point x="530" y="690" type="line"/>
      <point x="380" y="690" type="line"/>
      <point x="443" y="0" type="line"/>
      <point x="602" y="0" type="line"/>
    </contour>
    <contour>
      <point x="450" y="690" type="line"/>
      <point x="293" y="690" type="line"/>
      <point x="-73" y="0" type="line"/>
      <point x="103" y="0" type="line"/>
    </contour>
    <contour>
      <point x="321" y="742" type="curve"/>
      <point x="363" y="742"/>
      <point x="395" y="770"/>
      <point x="395" y="813" type="curve"/>
      <point x="395" y="850"/>
      <point x="371" y="873"/>
      <point x="330" y="873" type="curve"/>
      <point x="288" y="873"/>
      <point x="256" y="845"/>
      <point x="256" y="802" type="curve"/>
      <point x="256" y="765"/>
      <point x="279" y="742"/>
    </contour>
    <contour>
      <point x="541" y="742" type="curve"/>
      <point x="583" y="742"/>
      <point x="615" y="770"/>
      <point x="615" y="813" type="curve"/>
      <point x="615" y="850"/>
      <point x="591" y="873"/>
      <point x="550" y="873" type="curve"/>
      <point x="508" y="873"/>
      <point x="476" y="845"/>
      <point x="476" y="802" type="curve"/>
      <point x="476" y="765"/>
      <point x="499" y="742"/>
    </contour>
  </outline>
</glyph>
<glyph name="Ecircumflex" format="2">
  <advance width="617"/>
  <unicode hex="00CA"/>
  <outline>
    <contour>
      <point x="-11" y="0" type="line"/>
      <point x="144" y="0" type="line"/>
      <point x="291" y="690" type="line"/>
      <point x="136" y="690" type="line"/>
    </contour>
    <contour>
      <point x="146" y="419" type="line"/>
      <point x="117" y="282" type="line"/>
      <point x="522" y="282" type="line"/>
      <point x="551" y="419" type="line"/>
    </contour>
    <contour>
      <point x="88" y="145" type="line"/>
      <point x="57" y="0" type="line"/>
      <point x="509" y="0" type="line"/>
      <point x="540" y="145" type="line"/>
    </contour>
    <contour>
      <point x="204" y="690" type="line"/>
      <point x="173" y="545" type="line"/>
      <point x="621" y="545" type="line"/>
      <point x="652" y="690" type="line"/>
    </contour>
    <contour>
      <point x="216" y="735" type="line"/>
      <point x="343" y="735" type="line"/>
      <point x="458" y="812" type="line"/>
      <point x="480" y="850" type="line"/>
      <point x="351" y="850" type="line"/>
    </contour>
    <contour>
      <point x="604" y="735" type="line"/>
      <point x="519" y="850" type="line"/>
      <point x="390" y="850" type="line"/>
      <point x="406" y="812" type="line"/>
      <point x="487" y="735" type="line"/>
    </contour>
  </outline>
</glyph>
<glyph name="Edieresis" format="2">
  <advance width="617"/>
  <unicode hex="00CB"/>
  <outline>
    <contour>
      <point x="-11" y="0" type="line"/>
      <point x="144" y="0" type="line"/>
      <point x="291" y="690" type="line"/>
      <point x="136" y="690" type="line"/>
    </contour>
    <contour>
      <point x="146" y="419" type="line"/>
      <point x="117" y="282" type="line"/>
      <point x="522" y="282" type="line"/>
      <point x="551" y="419" type="line"/>
    </contour>
    <contour>
      <point x="88" y="145" type="line"/>
      <point x="57" y="0" type="line"/>
      <point x="509" y="0" type="line"/>
      <point x="540" y="145" type="line"/>
    </contour>
    <contour>
      <point x="204" y="690" type="line"/>
      <point x="173" y="545" type="line"/>
      <point x="621" y="545" type="line"/>
      <point x="652" y="690" type="line"/>
    </contour>
    <contour>
      <point x="311" y="742" type="curve"/>
      <point x="353" y="742"/>
      <point x="385" y="770"/>
      <point x="385" y="813" type="curve"/>
      <point x="385" y="850"/>
      <point x="361" y="873"/>
      <point x="320" y="873" type="curve"/>
      <point x="278" y="873"/>
      <point x="246" y="845"/>
      <point x="246" y="802" type="curve"/>
      <point x="246" y="765"/>
      <point x="269" y="742"/>
    </contour>
    <contour>
      <point x="531" y="742" type="curve"/>
      <point x="573" y="742"/>
      <point x="605" y="770"/>
      <point x="605" y="813" type="curve"/>
      <point x="605" y="850"/>
      <point x="581" y="873"/>
      <point x="540" y="873" type="curve"/>
      <point x="498" y="873"/>
      <point x="466" y="845"/>
      <point x="466" y="802" type="curve"/>
      <point x="466" y="765"/>
      <point x="489" y="742"/>
    </contour>
  </outline>
</glyph>
<glyph name="Igrave" format="2">
  <advance width="279"/>
  <unicode hex="00CC"/>
  <outline>
    <contour>
      <point x="-10" y="0" type="line"/>
      <point x="145" y="0" type="line"/>
      <point x="292" y="690" type="line"/>
      <point x="137" y="690" type="line"/>
    </contour>
    <contour>
      <point x="289" y="735" type="line"/>
      <point x="211" y="850" type="line"/>
      <point x="50" y="850" type="line"/>
      <point x="179" y="735" type="line"/>
    </contour>
  </outline>
</glyph>
<glyph name="Iacute" format="2">
  <advance width="278"/>
  <unicode hex="00CD"/>
  <outline>
    <contour>
      <point x="-11" y="0" type="line"/>
      <point x="144" y="0" type="line"/>
      <point x="291" y="690" type="line"/>
      <point x="136" y="690" type="line"/>
    </contour>
    <contour>
      <point x="149" y="735" type="line"/>
      <point x="274" y="735" type="line"/>
      <point x="450" y="850" type="line"/>
      <point x="277" y="850" type="line"/>
    </contour>
  </outline>
</glyph>
<glyph name="Icircumflex" format="2">
  <advance width="279"/>
  <unicode hex="00CE"/>
  <outline>
    <contour>
      <point x="-11" y="0" type="line"/>
      <point x="144" y="0" type="line"/>
      <point x="291" y="690" type="line"/>
      <point x="136" y="690" type="line"/>
    </contour>
    <contour>
      <point x="28" y="735" type="line"/>
      <point x="155" y="735" type="line"/>
      <point x="270" y="812" type="line"/>
      <point x="292" y="850" type="line"/>
      <point x="163" y="850" type="line"/>
    </contour>
    <contour>
      <point x="416" y="735" type="line"/>
      <point x="331" y="850" type="line"/>
      <point x="202" y="850" type="line"/>
      <point x="218" y="812" type="line"/>
      <point x="299" y="735" type="line"/>
    </contour>
  </outline>
</glyph>
<glyph name="Ocircumflex" format="2">
  <advance width="727"/>
  <unicode hex="00D4"/>
  <outline>
    <contour>
      <point x="400" y="558" type="curve"/>
      <point x="496" y="558"/>
      <point x="533" y="497"/>
      <point x="533" y="412" type="curve"/>
      <point x="533" y="258"/>
      <point x="447" y="132"/>
      <point x="327" y="132" type="curve"/>
      <point x="231" y="132"/>
      <point x="194" y="193"/>
      <point x="194" y="278" type="curve"/>
      <point x="194" y="432"/>
      <point x="280" y="558"/>
    </contour>
    <contour>
      <point x="422" y="704" type="curve"/>
      <point x="192" y="704"/>
      <point x="31" y="506"/>
      <point x="31" y="267" type="curve"/>
      <point x="31" y="107"/>
      <point x="133" y="-14"/>
      <point x="305" y="-14" type="curve"/>
      <point x="536" y="-14"/>
      <point x="696" y="185"/>
      <point x="696" y="424" type="curve"/>
      <point x="696" y="584"/>
      <point x="595" y="704"/>
    </contour>
    <contour>
      <point x="253" y="735" type="line"/>
      <point x="380" y="735" type="line"/>
      <point x="495" y="812" type="line"/>
      <point x="517" y="850" type="line"/>
      <point x="388" y="850" type="line"/>
    </contour>
    <contour>
      <point x="641" y="735" type="line"/>
      <point x="556" y="850" type="line"/>
      <point x="427" y="850" type="line"/>
      <point x="443" y="812" type="line"/>
      <point x="524" y="735" type="line"/>
    </contour>
  </outline>
</glyph>
<glyph name="Odieresis" format="2">
  <advance width="727"/>
  <unicode hex="00D6"/>
  <outline>
    <contour>
      <point x="400" y="558" type="curve"/>
      <point x="496" y="558"/>
      <point x="533" y="497"/>
      <point x="533" y="412" type="curve"/>
      <point x="533" y="258"/>
      <point x="447" y="132"/>
      <point x="327" y="132" type="curve"/>
      <point x="231" y="132"/>
      <point x="194" y="193"/>
      <point x="194" y="278" type="curve"/>
      <point x="194" y="432"/>
      <point x="280" y="558"/>
    </contour>
    <contour>
      <point x="422" y="704" type="curve"/>
      <point x="192" y="704"/>
      <point x="31" y="506"/>
      <point x="31" y="267" type="curve"/>
      <point x="31" y="107"/>
      <point x="133" y="-14"/>
      <point x="305" y="-14" type="curve"/>
      <point x="536" y="-14"/>
      <point x="696" y="185"/>
      <point x="696" y="424" type="curve"/>
      <point x="696" y="584"/>
      <point x="595" y="704"/>
    </contour>
    <contour>
      <point x="348" y="742" type="curve"/>
      <point x="390" y="742"/>
      <point x="422" y="770"/>
      <point x="422" y="813" type="curve"/>
      <point x="422" y="850"/>
      <point x="398" y="873"/>
      <point x="357" y="873" type="curve"/>
      <point x="315" y="873"/>
      <point x="283" y="845"/>
      <point x="283" y="802" type="curve"/>
      <point x="283" y="765"/>
      <point x="306" y="742"/>
    </contour>
    <contour>
      <point x="568" y="742" type="curve"/>
      <point x="610" y="742"/>
      <point x="642" y="770"/>
      <point x="642" y="813" type="curve"/>
      <point x="642" y="850"/>
      <point x="618" y="873"/>
      <point x="577" y="873" type="curve"/>
      <point x="535" y="873"/>
      <point x="503" y="845"/>
      <point x="503" y="802" type="curve"/>
      <point x="503" y="765"/>
      <point x="526" y="742"/>
    </contour>
  </outline>
</glyph>
<glyph name="multiply" format="2">
  <advance width="534"/>
  <unicode hex="00D7"/>
  <outline>
    <contour>
      <point x="2" y="178" type="line"/>
      <point x="88" y="75" type="line"/>
      <point x="516" y="429" type="line"/>
      <point x="430" y="532" type="line"/>
    </contour>
    <contour>
      <point x="166" y="532" type="line"/>
      <point x="58" y="442" type="line"/>
      <point x="352" y="75" type="line"/>
      <point x="460" y="165" type="line"/>
    </contour>
  </outline>
</glyph>
<glyph name="Ugrave" format="2">
  <advance width="692"/>
  <unicode hex="00D9"/>
  <outline>
    <contour>
      <point x="471" y="273" type="line" smooth="yes"/>
      <point x="452" y="184"/>
      <point x="388" y="131"/>
      <point x="299" y="131" type="curve"/>
      <point x="225" y="131"/>
      <point x="189" y="163"/>
      <point x="189" y="226" type="curve" smooth="yes"/>
      <point x="189" y="240"/>
      <point x="190" y="256"/>
      <point x="194" y="273" type="curve" smooth="yes"/>
      <point x="283" y="690" type="line"/>
      <point x="129" y="690" type="line"/>
      <point x="38" y="265" type="line" smooth="yes"/>
      <point x="33" y="243"/>
      <point x="31" y="221"/>
      <point x="31" y="201" type="curve" smooth="yes"/>
      <point x="31" y="74"/>
      <point x="121" y="-14"/>
      <point x="286" y="-14" type="curve"/>
      <point x="466" y="-14"/>
      <point x="583" y="87"/>
      <point x="621" y="265" type="curve" smooth="yes"/>
      <point x="712" y="690" type="line"/>
      <point x="560" y="690" type="line"/>
    </contour>
    <contour>
      <point x="495" y="735" type="line"/>
      <point x="417" y="850" type="line"/>
      <point x="256" y="850" type="line"/>
      <point x="385" y="735" type="line"/>
    </contour>
  </outline>
</glyph>
<glyph name="Ucircumflex" format="2">
  <advance width="692"/>
  <unicode hex="00DB"/>
  <outline>
    <contour>
      <point x="471" y="273" type="line" smooth="yes"/>
      <point x="452" y="184"/>
      <point x="388" y="131"/>
      <point x="299" y="131" type="curve"/>
      <point x="225" y="131"/>
      <point x="189" y="163"/>
      <point x="189" y="226" type="curve" smooth="yes"/>
      <point x="189" y="240"/>
      <point x="190" y="256"/>
      <point x="194" y="273" type="curve" smooth="yes"/>
      <point x="283" y="690" type="line"/>
      <point x="129" y="690" type="line"/>
      <point x="38" y="265" type="line" smooth="yes"/>
      <point x="33" y="243"/>
      <point x="31" y="221"/>
      <point x="31" y="201" type="curve" smooth="yes"/>
      <point x="31" y="74"/>
      <point x="121" y="-14"/>
      <point x="286" y="-14" type="curve"/>
      <point x="466" y="-14"/>
      <point x="583" y="87"/>
      <point x="621" y="265" type="curve" smooth="yes"/>
      <point x="712" y="690" type="line"/>
      <point x="560" y="690" type="line"/>
    </contour>
    <contour>
      <point x="235" y="735" type="line"/>
      <point x="362" y="735" type="line"/>
      <point x="477" y="812" type="line"/>
      <point x="499" y="850" type="line"/>
      <point x="370" y="850" type="line"/>
    </contour>
    <contour>
      <point x="623" y="735" type="line"/>
      <point x="538" y="850" type="line"/>
      <point x="409" y="850" type="line"/>
      <point x="425" y="812" type="line"/>
      <point x="506" y="735" type="line"/>
    </contour>
  </outline>
</glyph>
<glyph name="Udieresis" format="2">
  <advance width="692"/>
  <unicode hex="00DC"/>
  <outline>
    <contour>
      <point x="471" y="273" type="line" smooth="yes"/>
      <point x="452" y="184"/>
      <point x="388" y="131"/>
      <point x="299" y="131" type="curve"/>
      <point x="225" y="131"/>
      <point x="189" y="163"/>
      <point x="189" y="226" type="curve" smooth="yes"/>
      <point x="189" y="240"/>
      <point x="190" y="256"/>
      <point x="194" y="273" type="curve" smooth="yes"/>
      <point x="283" y="690" type="line"/>
      <point x="129" y="690" type="line"/>
      <point x="38" y="265" type="line" smooth="yes"/>
      <point x="33" y="243"/>
      <point x="31" y="221"/>
      <point x="31" y="201" type="curve" smooth="yes"/>
      <point x="31" y="74"/>
      <point x="121" y="-14"/>
      <point x="286" y="-14" type="curve"/>
      <point x="466" y="-14"/>
      <point x="583" y="87"/>
      <point x="621" y="265" type="curve" smooth="yes"/>
      <point x="712" y="690" type="line"/>
      <point x="560" y="690" type="line"/>
    </contour>
    <contour>
      <point x="330" y="742" type="curve"/>
      <point x="372" y="742"/>
      <point x="404" y="770"/>
      <point x="404" y="813" type="curve"/>
      <point x="404" y="850"/>
      <point x="380" y="873"/>
      <point x="339" y="873" type="curve"/>
      <point x="297" y="873"/>
      <point x="265" y="845"/>
      <point x="265" y="802" type="curve"/>
      <point x="265" y="765"/>
      <point x="288" y="742"/>
    </contour>
    <contour>
      <point x="550" y="742" type="curve"/>
      <point x="592" y="742"/>
      <point x="624" y="770"/>
      <point x="624" y="813" type="curve"/>
      <point x="624" y="850"/>
      <point x="600" y="873"/>
      <point x="559" y="873" type="curve"/>
      <point x="517" y="873"/>
      <point x="485" y="845"/>
      <point x="485" y="802" type="curve"/>
      <point x="485" y="765"/>
      <point x="508" y="742"/>
    </contour>
  </outline>
</glyph>
<glyph name="Yacute" format="2">
  <advance width="640"/>
  <unicode hex="00DD"/>
  <outline>
    <contour>
      <point x="236" y="220" type="line"/>
      <point x="349" y="343" type="line"/>
      <point x="234" y="690" type="line"/>
      <point x="73" y="690" type="line"/>
    </contour>
    <contour>
      <point x="277" y="343" type="line"/>
      <point x="353" y="221" type="line"/>
      <point x="717" y="690" type="line"/>
      <point x="536" y="690" type="line"/>
    </contour>
    <contour>
      <point x="170" y="0" type="line"/>
      <point x="324" y="0" type="line"/>
      <point x="405" y="381" type="line"/>
      <point x="251" y="381" type="line"/>
    </contour>
    <contour>
      <point x="336" y="735" type="line"/>
      <point x="461" y="735" type="line"/>
      <point x="637" y="850" type="line"/>
      <point x="464" y="850" type="line"/>
    </contour>
  </outline>
</glyph>
<glyph name="Thorn" format="2">
  <advance width="632"/>
  <unicode hex="00DE"/>
  <outline>
    <contour>
      <point x="-11" y="0" type="line"/>
      <point x="144" y="0" type="line"/>
      <point x="291" y="690" type="line"/>
      <point x="136" y="690" type="line"/>
    </contour>
    <contour>
      <point x="284" y="110" type="line"/>
      <point x="495" y="110"/>
      <point x="615" y="234"/>
      <point x="615" y="388" type="curve"/>
      <point x="615" y="508"/>
      <point x="529" y="587"/>
      <point x="378" y="587" type="curve"/>
      <point x="182" y="587" type="line"/>
      <point x="151" y="442" type="line"/>
      <point x="350" y="442" type="line"/>
      <point x="424" y="442"/>
      <point x="455" y="412"/>
      <point x="455" y="366" type="curve"/>
      <point x="455" y="300"/>
      <point x="410" y="255"/>
      <point x="305" y="255" type="curve"/>
      <point x="111" y="255" type="line"/>
      <point x="80" y="110" type="line"/>
    </contour>
  </outline>
</glyph>
<glyph name="germandbls" format="2">
  <advance width="592"/>
  <unicode hex="00DF"/>
  <outline>
    <contour>
      <point x="332" y="593" type="curve"/>
      <point x="372" y="593"/>
      <point x="392" y="575"/>
      <point x="392" y="544" type="curve"/>
      <point x="392" y="465"/>
      <point x="263" y="455"/>
      <point x="263" y="350" type="curve" smooth="yes"/>
      <point x="263" y="268"/>
      <point x="389" y="245"/>
      <point x="389" y="166" type="curve"/>
      <point x="389" y="125"/>
      <point x="360" y="102"/>
      <point x="311" y="102" type="curve"/>
      <point x="280" y="102"/>
      <point x="250" y="115"/>
      <point x="224" y="136" type="curve"/>
      <point x="152" y="29" type="line"/>
      <point x="190" y="4"/>
      <point x="240" y="-14"/>
      <point x="321" y="-14" type="curve"/>
      <point x="451" y="-14"/>
      <point x="535" y="71"/>
      <point x="535" y="166" type="curve"/>
      <point x="535" y="290"/>
      <point x="417" y="322"/>
      <point x="417" y="368" type="curve"/>
      <point x="417" y="432"/>
      <point x="534" y="422"/>
      <point x="534" y="570" type="curve"/>
      <point x="534" y="661"/>
      <point x="467" y="729"/>
      <point x="358" y="729" type="curve"/>
      <point x="213" y="729"/>
      <point x="118" y="650"/>
      <point x="84" y="491" type="curve"/>
      <point x="-20" y="0" type="line"/>
      <point x="129" y="0" type="line"/>
      <point x="235" y="501" type="line"/>
      <point x="249" y="563"/>
      <point x="281" y="593"/>
    </contour>
  </outline>
</glyph>
<glyph name="ae" format="2">
  <advance width="927"/>
  <unicode hex="00E6"/>
  <anchor x="496" y="530" name="top"/>
  <outline>
    <contour>
      <point x="872" y="223" type="line"/>
      <point x="882" y="256"/>
      <point x="887" y="292"/>
      <point x="887" y="327" type="curve"/>
      <point x="887" y="454"/>
      <point x="822" y="544"/>
      <point x="711" y="544" type="curve"/>
      <point x="570" y="544"/>
      <point x="468" y="371"/>
      <point x="468" y="166" type="curve"/>
      <point x="468" y="61"/>
      <point x="529" y="-14"/>
      <point x="627" y="-14" type="curve"/>
      <point x="719" y="-14"/>
      <point x="796" y="42"/>
      <point x="835" y="128" type="curve"/>
      <point x="699" y="177" type="line"/>
      <point x="682" y="141"/>
      <point x="646" y="114"/>
      <point x="598" y="114" type="curve"/>
      <point x="544" y="114"/>
      <point x="517" y="159"/>
      <point x="517" y="218" type="curve"/>
      <point x="517" y="328"/>
      <point x="580" y="419"/>
      <point x="659" y="419" type="curve"/>
      <point x="713" y="419"/>
      <point x="739" y="387"/>
      <point x="739" y="312" type="curve"/>
      <point x="739" y="296"/>
      <point x="738" y="280"/>
      <point x="735" y="265" type="curve"/>
      <point x="785" y="323" type="line"/>
      <point x="469" y="323" type="line"/>
      <point x="447" y="223" type="line"/>
    </contour>
    <contour>
      <point x="459" y="0" type="line"/>
      <point x="572" y="530" type="line"/>
      <point x="423" y="530" type="line"/>
      <point x="393" y="391" type="line"/>
      <point x="386" y="265" type="line"/>
      <point x="341" y="147" type="line"/>
      <point x="310" y="0" type="line"/>
    </contour>
    <contour>
      <point x="384" y="226" type="curve"/>
      <point x="406" y="385" type="line"/>
      <point x="409" y="488"/>
      <point x="357" y="544"/>
      <point x="269" y="544" type="curve"/>
      <point x="112" y="544"/>
      <point x="10" y="376"/>
      <point x="10" y="189" type="curve"/>
      <point x="10" y="62"/>
      <point x="70" y="-14"/>
      <point x="168" y="-14" type="curve"/>
      <point x="269" y="-14"/>
      <point x="352" y="72"/>
    </contour>
    <contour>
      <point x="243" y="120" type="curve"/>
      <point x="192" y="120"/>
      <point x="164" y="151"/>
      <point x="164" y="212" type="curve"/>
      <point x="164" y="322"/>
      <point x="222" y="410"/>
      <point x="304" y="410" type="curve"/>
      <point x="355" y="410"/>
      <point x="383" y="379"/>
      <point x="383" y="318" type="curve"/>
      <point x="383" y="208"/>
      <point x="325" y="120"/>
    </contour>
  </outline>
</glyph>
<glyph name="ccedilla" format="2">
  <advance width="559"/>
  <unicode hex="00E7"/>
  <outline>
    <contour>
      <point x="221" y="-14" type="curve"/>
      <point x="352" y="-14"/>
      <point x="453" y="58"/>
      <point x="501" y="177" type="curve"/>
      <point x="355" y="207" type="line"/>
      <point x="337" y="148"/>
      <point x="292" y="119"/>
      <point x="242" y="119" type="curve"/>
      <point x="185" y="119"/>
      <point x="160" y="159"/>
      <point x="160" y="218" type="curve"/>
      <point x="160" y="323"/>
      <point x="222" y="411"/>
      <point x="301" y="411" type="curve"/>
      <point x="356" y="411"/>
      <point x="384" y="381"/>
      <point x="386" y="325" type="curve"/>
      <point x="534" y="355" type="line"/>
      <point x="523" y="472"/>
      <point x="441" y="544"/>
      <point x="318" y="544" type="curve"/>
      <point x="137" y="544"/>
      <point x="6" y="387"/>
      <point x="6" y="201" type="curve"/>
      <point x="6" y="76"/>
      <point x="88" y="-14"/>
    </contour>
    <contour>
      <point x="222" y="-29" type="curve"/>
      <point x="231" y="-43" type="line"/>
      <point x="248" y="9" type="line"/>
      <point x="180" y="11" type="line"/>
      <point x="147" y="-80" type="line"/>
      <point x="159" y="-76"/>
      <point x="169" y="-74"/>
      <point x="181" y="-74" type="curve"/>
      <point x="201" y="-74"/>
      <point x="211" y="-80"/>
      <point x="211" y="-91" type="curve"/>
      <point x="211" y="-103"/>
      <point x="200" y="-109"/>
      <point x="177" y="-109" type="curve"/>
      <point x="157" y="-109"/>
      <point x="135" y="-105"/>
      <point x="116" y="-94" type="curve"/>
      <point x="87" y="-174" type="line"/>
      <point x="112" y="-185"/>
      <point x="142" y="-190"/>
      <point x="170" y="-190" type="curve"/>
      <point x="262" y="-190"/>
      <point x="301" y="-146"/>
      <point x="301" y="-97" type="curve"/>
      <point x="301" y="-57"/>
      <point x="272" y="-29"/>
    </contour>
  </outline>
</glyph>
<glyph name="egrave" format="2">
  <advance width="572"/>
  <unicode hex="00E8"/>
  <outline>
    <contour>
      <point x="517" y="223" type="line"/>
      <point x="527" y="256"/>
      <point x="532" y="292"/>
      <point x="532" y="327" type="curve"/>
      <point x="532" y="454"/>
      <point x="452" y="544"/>
      <point x="316" y="544" type="curve"/>
      <point x="138" y="544"/>
      <point x="8" y="387"/>
      <point x="8" y="201" type="curve"/>
      <point x="8" y="76"/>
      <point x="93" y="-14"/>
      <point x="232" y="-14" type="curve"/>
      <point x="342" y="-14"/>
      <point x="433" y="42"/>
      <point x="480" y="128" type="curve"/>
      <point x="344" y="177" type="line"/>
      <point x="327" y="141"/>
      <point x="291" y="114"/>
      <point x="243" y="114" type="curve"/>
      <point x="189" y="114"/>
      <point x="162" y="159"/>
      <point x="162" y="218" type="curve"/>
      <point x="162" y="328"/>
      <point x="225" y="419"/>
      <point x="304" y="419" type="curve"/>
      <point x="358" y="419"/>
      <point x="384" y="387"/>
      <point x="384" y="312" type="curve"/>
      <point x="384" y="296"/>
      <point x="383" y="280"/>
      <point x="380" y="265" type="curve"/>
      <point x="430" y="323" type="line"/>
      <point x="114" y="323" type="line"/>
      <point x="92" y="223" type="line"/>
    </contour>
    <contour>
      <point x="404" y="585" type="line"/>
      <point x="355" y="730" type="line"/>
      <point x="205" y="730" type="line"/>
      <point x="302" y="585" type="line"/>
    </contour>
  </outline>
</glyph>
<glyph name="ecircumflex" format="2">
  <advance width="572"/>
  <unicode hex="00EA"/>
  <outline>
    <contour>
      <point x="517" y="223" type="line"/>
      <point x="527" y="256"/>
      <point x="532" y="292"/>
      <point x="532" y="327" type="curve"/>
      <point x="532" y="454"/>
      <point x="452" y="544"/>
      <point x="316" y="544" type="curve"/>
      <point x="138" y="544"/>
      <point x="8" y="387"/>
      <point x="8" y="201" type="curve"/>
      <point x="8" y="76"/>
      <point x="93" y="-14"/>
      <point x="232" y="-14" type="curve"/>
      <point x="342" y="-14"/>
      <point x="433" y="42"/>
      <point x="480" y="128" type="curve"/>
      <point x="344" y="177" type="line"/>
      <point x="327" y="141"/>
      <point x="291" y="114"/>
      <point x="243" y="114" type="curve"/>
      <point x="189" y="114"/>
      <point x="162" y="159"/>
      <point x="162" y="218" type="curve"/>
      <point x="162" y="328"/>
      <point x="225" y="419"/>
      <point x="304" y="419" type="curve"/>
      <point x="358" y="419"/>
      <point x="384" y="387"/>
      <point x="384" y="312" type="curve"/>
      <point x="384" y="296"/>
      <point x="383" y="280"/>
      <point x="380" y="265" type="curve"/>
      <point x="430" y="323" type="line"/>
      <point x="114" y="323" type="line"/>
      <point x="92" y="223" type="line"/>
    </contour>
    <contour>
      <point x="513" y="585" type="line"/>
      <point x="442" y="730" type="line"/>
      <point x="336" y="730" type="line"/>
      <point x="341" y="686" type="line"/>
      <point x="409" y="585" type="line"/>
    </contour>
    <contour>
      <point x="169" y="585" type="line"/>
      <point x="285" y="585" type="line"/>
      <point x="396" y="686" type="line"/>
      <point x="408" y="730" type="line"/>
      <point x="302" y="730" type="line"/>
    </contour>
  </outline>
</glyph>
<glyph name="igrave" format="2">
  <advance width="254"/>
  <unicode hex="00EC"/>
  <outline>
    <contour>
      <point x="-20" y="0" type="line"/>
      <point x="129" y="0" type="line"/>
      <point x="242" y="530" type="line"/>
      <point x="93" y="530" type="line"/>
    </contour>
    <contour>
      <point x="242" y="585" type="line"/>
      <point x="193" y="730" type="line"/>
      <point x="43" y="730" type="line"/>
      <point x="140" y="585" type="line"/>
    </contour>
  </outline>
</glyph>
<glyph name="iacute" format="2">
  <advance width="255"/>
  <unicode hex="00ED"/>
  <outline>
    <contour>
      <point x="-20" y="0" type="line"/>
      <point x="129" y="0" type="line"/>
      <point x="242" y="530" type="line"/>
      <point x="93" y="530" type="line"/>
    </contour>
    <contour>
      <point x="109" y="585" type="line"/>
      <point x="224" y="585" type="line"/>
      <point x="380" y="730" type="line"/>
      <point x="219" y="730" type="line"/>
    </contour>
  </outline>
</glyph>
<glyph name="icircumflex" format="2">
  <advance width="255"/>
  <unicode hex="00EE"/>
  <outline>
    <contour>
      <point x="-20" y="0" type="line"/>
      <point x="129" y="0" type="line"/>
      <point x="242" y="530" type="line"/>
      <point x="93" y="530" type="line"/>
    </contour>
    <contour>
      <point x="351" y="585" type="line"/>
      <point x="280" y="730" type="line"/>
      <point x="174" y="730" type="line"/>
      <point x="179" y="686" type="line"/>
      <point x="247" y="585" type="line"/>
    </contour>
    <contour>
      <point x="7" y="585" type="line"/>
      <point x="123" y="585" type="line"/>
      <point x="234" y="686" type="line"/>
      <point x="246" y="730" type="line"/>
      <point x="140" y="730" type="line"/>
    </contour>
  </outline>
</glyph>
<glyph name="idieresis" format="2">
  <advance width="256"/>
  <unicode hex="00EF"/>
  <outline>
    <contour>
      <point x="-19" y="0" type="line"/>
      <point x="130" y="0" type="line"/>
      <point x="243" y="530" type="line"/>
      <point x="94" y="530" type="line"/>
    </contour>
    <contour>
      <point x="93" y="588" type="curve"/>
      <point x="135" y="588"/>
      <point x="169" y="618"/>
      <point x="169" y="664" type="curve"/>
      <point x="169" y="703"/>
      <point x="144" y="728"/>
      <point x="103" y="728" type="curve"/>
      <point x="61" y="728"/>
      <point x="27" y="698"/>
      <point x="27" y="652" type="curve"/>
      <point x="27" y="613"/>
      <point x="52" y="588"/>
    </contour>
    <contour>
      <point x="289" y="588" type="curve"/>
      <point x="331" y="588"/>
      <point x="365" y="618"/>
      <point x="365" y="664" type="curve"/>
      <point x="365" y="703"/>
      <point x="340" y="728"/>
      <point x="299" y="728" type="curve"/>
      <point x="257" y="728"/>
      <point x="223" y="698"/>
      <point x="223" y="652" type="curve"/>
      <point x="223" y="613"/>
      <point x="248" y="588"/>
    </contour>
  </outline>
</glyph>
<glyph name="eth" format="2">
  <advance width="574"/>
  <unicode hex="00F0"/>
  <outline>
    <contour>
      <point x="248" y="120" type="curve"/>
      <point x="188" y="120"/>
      <point x="158" y="156"/>
      <point x="158" y="213" type="curve"/>
      <point x="158" y="278"/>
      <point x="207" y="334"/>
      <point x="281" y="334" type="curve"/>
      <point x="341" y="334"/>
      <point x="373" y="301"/>
      <point x="373" y="249" type="curve"/>
      <point x="373" y="184"/>
      <point x="315" y="120"/>
    </contour>
    <contour>
      <point x="383" y="715" type="curve"/>
      <point x="184" y="715" type="line"/>
      <point x="332" y="570"/>
      <point x="391" y="444"/>
      <point x="391" y="284" type="curve" smooth="yes"/>
      <point x="391" y="276"/>
      <point x="391" y="268"/>
      <point x="391" y="260" type="curve"/>
      <point x="399" y="260" type="line"/>
      <point x="399" y="268"/>
      <point x="400" y="276"/>
      <point x="400" y="283" type="curve" smooth="yes"/>
      <point x="400" y="394"/>
      <point x="341" y="461"/>
      <point x="244" y="461" type="curve"/>
      <point x="117" y="461"/>
      <point x="4" y="339"/>
      <point x="4" y="197" type="curve"/>
      <point x="4" y="76"/>
      <point x="91" y="-14"/>
      <point x="223" y="-14" type="curve"/>
      <point x="388" y="-14"/>
      <point x="536" y="99"/>
      <point x="536" y="349" type="curve" smooth="yes"/>
      <point x="536" y="452"/>
      <point x="488" y="594"/>
    </contour>
    <contour>
      <point x="197" y="575" type="line"/>
      <point x="249" y="481" type="line"/>
      <point x="533" y="636" type="line"/>
      <point x="481" y="730" type="line"/>
    </contour>
  </outline>
</glyph>
<glyph name="otilde" format="2">
  <advance width="576"/>
  <unicode hex="00F5"/>
  <outline>
    <contour>
      <point x="301" y="411" type="curve"/>
      <point x="355" y="411"/>
      <point x="382" y="371"/>
      <point x="382" y="312" type="curve"/>
      <point x="382" y="207"/>
      <point x="319" y="119"/>
      <point x="241" y="119" type="curve"/>
      <point x="187" y="119"/>
      <point x="160" y="159"/>
      <point x="160" y="218" type="curve"/>
      <point x="160" y="323"/>
      <point x="222" y="411"/>
    </contour>
    <contour>
      <point x="224" y="-14" type="curve"/>
      <point x="405" y="-14"/>
      <point x="536" y="143"/>
      <point x="536" y="329" type="curve"/>
      <point x="536" y="454"/>
      <point x="451" y="544"/>
      <point x="318" y="544" type="curve"/>
      <point x="137" y="544"/>
      <point x="6" y="387"/>
      <point x="6" y="201" type="curve"/>
      <point x="6" y="76"/>
      <point x="91" y="-14"/>
    </contour>
    <contour>
      <point x="406" y="585" type="curve"/>
      <point x="468" y="585"/>
      <point x="515" y="641"/>
      <point x="529" y="730" type="curve"/>
      <point x="445" y="730" type="line"/>
      <point x="444" y="702"/>
      <point x="430" y="690"/>
      <point x="411" y="690" type="curve"/>
      <point x="379" y="690"/>
      <point x="361" y="730"/>
      <point x="303" y="730" type="curve"/>
      <point x="240" y="730"/>
      <point x="193" y="674"/>
      <point x="180" y="585" type="curve"/>
      <point x="264" y="585" type="line"/>
      <point x="265" y="612"/>
      <point x="280" y="624"/>
      <point x="299" y="624" type="curve"/>
      <point x="333" y="624"/>
      <point x="348" y="585"/>
    </contour>
  </outline>
</glyph>
<glyph name="odieresis" format="2">
  <advance width="576"/>
  <unicode hex="00F6"/>
  <outline>
    <contour>
      <point x="301" y="411" type="curve"/>
      <point x="355" y="411"/>
      <point x="382" y="371"/>
      <point x="382" y="312" type="curve"/>
      <point x="382" y="207"/>
      <point x="319" y="119"/>
      <point x="241" y="119" type="curve"/>
      <point x="187" y="119"/>
      <point x="160" y="159"/>
      <point x="160" y="218" type="curve"/>
      <point x="160" y="323"/>
      <point x="222" y="411"/>
    </contour>
    <contour>
      <point x="224" y="-14" type="curve"/>
      <point x="405" y="-14"/>
      <point x="536" y="143"/>
      <point x="536" y="329" type="curve"/>
      <point x="536" y="454"/>
      <point x="451" y="544"/>
      <point x="318" y="544" type="curve"/>
      <point x="137" y="544"/>
      <point x="6" y="387"/>
      <point x="6" y="201" type="curve"/>
      <point x="6" y="76"/>
      <point x="91" y="-14"/>
    </contour>
    <contour>
      <point x="252" y="588" type="curve"/>
      <point x="294" y="588"/>
      <point x="328" y="618"/>
      <point x="328" y="664" type="curve"/>
      <point x="328" y="703"/>
      <point x="303" y="728"/>
      <point x="262" y="728" type="curve"/>
      <point x="220" y="728"/>
      <point x="186" y="698"/>
      <point x="186" y="652" type="curve"/>
      <point x="186" y="613"/>
      <point x="211" y="588"/>
    </contour>
    <contour>
      <point x="448" y="588" type="curve"/>
      <point x="490" y="588"/>
      <point x="524" y="618"/>
      <point x="524" y="664" type="curve"/>
      <point x="524" y="703"/>
      <point x="499" y="728"/>
      <point x="458" y="728" type="curve"/>
      <point x="416" y="728"/>
      <point x="382" y="698"/>
      <point x="382" y="652" type="curve"/>
      <point x="382" y="613"/>
      <point x="407" y="588"/>
    </contour>
  </outline>
</glyph>
<glyph name="uacute" format="2">
  <advance width="585"/>
  <unicode hex="00FA"/>
  <outline>
    <contour>
      <point x="351" y="190" type="line"/>
      <point x="311" y="0" type="line"/>
      <point x="460" y="0" type="line"/>
      <point x="573" y="530" type="line"/>
      <point x="424" y="530" type="line"/>
      <point x="359" y="226" type="line" smooth="yes"/>
      <point x="344" y="155"/>
      <point x="298" y="117"/>
      <point x="245" y="117" type="curve"/>
      <point x="201" y="117"/>
      <point x="173" y="143"/>
      <point x="173" y="192" type="curve" smooth="yes"/>
      <point x="173" y="202"/>
      <point x="174" y="212"/>
      <point x="177" y="226" type="curve" smooth="yes"/>
      <point x="242" y="530" type="line"/>
      <point x="93" y="530" type="line"/>
      <point x="26" y="218" type="line" smooth="yes"/>
      <point x="21" y="195"/>
      <point x="19" y="174"/>
      <point x="19" y="153" type="curve" smooth="yes"/>
      <point x="19" y="55"/>
      <point x="78" y="-14"/>
      <point x="169" y="-14" type="curve"/>
      <point x="270" y="-14"/>
      <point x="353" y="73"/>
      <point x="385" y="226" type="curve"/>
    </contour>
    <contour>
      <point x="274" y="585" type="line"/>
      <point x="389" y="585" type="line"/>
      <point x="545" y="730" type="line"/>
      <point x="384" y="730" type="line"/>
    </contour>
  </outline>
</glyph>
<glyph name="Amacron" format="2">
  <advance width="675"/>
  <unicode hex="0100"/>
  <outline>
    <contour>
      <point x="143" y="295" type="line"/>
      <point x="114" y="158" type="line"/>
      <point x="482" y="158" type="line"/>
      <point x="511" y="295" type="line"/>
    </contour>
    <contour>
      <point x="530" y="690" type="line"/>
      <point x="380" y="690" type="line"/>
      <point x="443" y="0" type="line"/>
      <point x="602" y="0" type="line"/>
    </contour>
    <contour>
      <point x="450" y="690" type="line"/>
      <point x="293" y="690" type="line"/>
      <point x="-73" y="0" type="line"/>
      <point x="103" y="0" type="line"/>
    </contour>
    <contour>
      <point x="255" y="735" type="line"/>
      <point x="585" y="735" type="line"/>
      <point x="610" y="850" type="line"/>
      <point x="280" y="850" type="line"/>
    </contour>
  </outline>
</glyph>
<glyph name="Abreve" format="2">
  <advance width="675"/>
  <unicode hex="0102"/>
  <outline>
    <contour>
      <point x="143" y="295" type="line"/>
      <point x="114" y="158" type="line"/>
      <point x="482" y="158" type="line"/>
      <point x="511" y="295" type="line"/>
    </contour>
    <contour>
      <point x="530" y="690" type="line"/>
      <point x="380" y="690" type="line"/>
      <point x="443" y="0" type="line"/>
      <point x="602" y="0" type="line"/>
    </contour>
    <contour>
      <point x="450" y="690" type="line"/>
      <point x="293" y="690" type="line"/>
      <point x="-73" y="0" type="line"/>
      <point x="103" y="0" type="line"/>
    </contour>
    <contour>
      <point x="436" y="814" type="curve"/>
      <point x="395" y="814"/>
      <point x="383" y="827"/>
      <point x="383" y="850" type="curve"/>
      <point x="286" y="850" type="line"/>
      <point x="285" y="843"/>
      <point x="284" y="837"/>
      <point x="284" y="831" type="curve" smooth="yes"/>
      <point x="284" y="770"/>
      <point x="337" y="730"/>
      <point x="431" y="730" type="curve"/>
      <point x="535" y="730"/>
      <point x="588" y="779"/>
      <point x="604" y="850" type="curve"/>
      <point x="507" y="850" type="line"/>
      <point x="499" y="827"/>
      <point x="477" y="814"/>
    </contour>
  </outline>
</glyph>
<glyph name="abreve" format="2">
  <advance width="584"/>
  <unicode hex="0103"/>
  <outline>
    <contour>
      <point x="459" y="0" type="line"/>
      <point x="572" y="530" type="line"/>
      <point x="423" y="530" type="line"/>
      <point x="393" y="391" type="line"/>
      <point x="386" y="265" type="line"/>
      <point x="341" y="147" type="line"/>
      <point x="310" y="0" type="line"/>
    </contour>
    <contour>
      <point x="384" y="226" type="curve"/>
      <point x="406" y="385" type="line"/>
      <point x="409" y="488"/>
      <point x="357" y="544"/>
      <point x="269" y="544" type="curve"/>
      <point x="112" y="544"/>
      <point x="10" y="376"/>
      <point x="10" y="189" type="curve"/>
      <point x="10" y="62"/>
      <point x="70" y="-14"/>
      <point x="168" y="-14" type="curve"/>
      <point x="269" y="-14"/>
      <point x="352" y="72"/>
    </contour>
    <contour>
      <point x="243" y="120" type="curve"/>
      <point x="192" y="120"/>
      <point x="164" y="151"/>
      <point x="164" y="212" type="curve"/>
      <point x="164" y="322"/>
      <point x="222" y="410"/>
      <point x="304" y="410" type="curve"/>
      <point x="355" y="410"/>
      <point x="383" y="379"/>
      <point x="383" y="318" type="curve"/>
      <point x="383" y="208"/>
      <point x="325" y="120"/>
    </contour>
    <contour>
      <point x="361" y="671" type="curve"/>
      <point x="330" y="671"/>
      <point x="315" y="686"/>
      <point x="315" y="713" type="curve" smooth="yes"/>
      <point x="315" y="718"/>
      <point x="316" y="724"/>
      <point x="317" y="730" type="curve"/>
      <point x="226" y="730" type="line"/>
      <point x="224" y="718"/>
      <point x="223" y="708"/>
      <point x="223" y="697" type="curve" smooth="yes"/>
      <point x="223" y="626"/>
      <point x="273" y="585"/>
      <point x="354" y="585" type="curve"/>
      <point x="459" y="585"/>
      <point x="505" y="639"/>
      <point x="524" y="730" type="curve"/>
      <point x="433" y="730" type="line"/>
      <point x="426" y="693"/>
      <point x="398" y="671"/>
    </contour>
  </outline>
</glyph>
<glyph name="aogonek" format="2">
  <advance width="584"/>
  <unicode hex="0105"/>
  <outline>
    <contour>
      <point x="354" y="0" type="line"/>
      <point x="261" y="-36"/>
      <point x="230" y="-82"/>
      <point x="230" y="-121" type="curve"/>
      <point x="230" y="-158"/>
      <point x="260" y="-190"/>
      <point x="329" y="-190" type="curve"/>
      <point x="357" y="-190"/>
      <point x="392" y="-183"/>
      <point x="423" y="-170" type="curve"/>
      <point x="434" y="-75" type="line"/>
      <point x="412" y="-87"/>
      <point x="384" y="-96"/>
      <point x="365" y="-96" type="curve"/>
      <point x="352" y="-96"/>
      <point x="345" y="-90"/>
      <point x="345" y="-82" type="curve" smooth="yes"/>
      <point x="345" y="-65"/>
      <point x="370" y="-36"/>
      <point x="459" y="0" type="curve"/>
    </contour>
    <contour>
      <point x="459" y="0" type="line"/>
      <point x="572" y="530" type="line"/>
      <point x="423" y="530" type="line"/>
      <point x="393" y="391" type="line"/>
      <point x="386" y="265" type="line"/>
      <point x="341" y="147" type="line"/>
      <point x="310" y="0" type="line"/>
    </contour>
    <contour>
      <point x="384" y="226" type="curve"/>
      <point x="406" y="385" type="line"/>
      <point x="409" y="488"/>
      <point x="357" y="544"/>
      <point x="269" y="544" type="curve"/>
      <point x="112" y="544"/>
      <point x="10" y="376"/>
      <point x="10" y="189" type="curve"/>
      <point x="10" y="62"/>
      <point x="70" y="-14"/>
      <point x="168" y="-14" type="curve"/>
      <point x="269" y="-14"/>
      <point x="352" y="72"/>
    </contour>
    <contour>
      <point x="243" y="120" type="curve"/>
      <point x="192" y="120"/>
      <point x="164" y="151"/>
      <point x="164" y="212" type="curve"/>
      <point x="164" y="322"/>
      <point x="222" y="410"/>
      <point x="304" y="410" type="curve"/>
      <point x="355" y="410"/>
      <point x="383" y="379"/>
      <point x="383" y="318" type="curve"/>
      <point x="383" y="208"/>
      <point x="325" y="120"/>
    </contour>
  </outline>
</glyph>
<glyph name="cacute" format="2">
  <advance width="559"/>
  <unicode hex="0107"/>
  <outline>
    <contour>
      <point x="221" y="-14" type="curve"/>
      <point x="352" y="-14"/>
      <point x="453" y="58"/>
      <point x="501" y="177" type="curve"/>
      <point x="355" y="207" type="line"/>
      <point x="337" y="148"/>
      <point x="292" y="119"/>
      <point x="242" y="119" type="curve"/>
      <point x="185" y="119"/>
      <point x="160" y="159"/>
      <point x="160" y="218" type="curve"/>
      <point x="160" y="323"/>
      <point x="222" y="411"/>
      <point x="301" y="411" type="curve"/>
      <point x="356" y="411"/>
      <point x="384" y="381"/>
      <point x="386" y="325" type="curve"/>
      <point x="534" y="355" type="line"/>
      <point x="523" y="472"/>
      <point x="441" y="544"/>
      <point x="318" y="544" type="curve"/>
      <point x="137" y="544"/>
      <point x="6" y="387"/>
      <point x="6" y="201" type="curve"/>
      <point x="6" y="76"/>
      <point x="88" y="-14"/>
    </contour>
    <contour>
      <point x="274" y="585" type="line"/>
      <point x="389" y="585" type="line"/>
      <point x="545" y="730" type="line"/>
      <point x="384" y="730" type="line"/>
    </contour>
  </outline>
</glyph>
<glyph name="ccircumflex" format="2">
  <advance width="559"/>
  <unicode hex="0109"/>
  <outline>
    <contour>
      <point x="221" y="-14" type="curve"/>
      <point x="352" y="-14"/>
      <point x="453" y="58"/>
      <point x="501" y="177" type="curve"/>
      <point x="355" y="207" type="line"/>
      <point x="337" y="148"/>
      <point x="292" y="119"/>
      <point x="242" y="119" type="curve"/>
      <point x="185" y="119"/>
      <point x="160" y="159"/>
      <point x="160" y="218" type="curve"/>
      <point x="160" y="323"/>
      <point x="222" y="411"/>
      <point x="301" y="411" type="curve"/>
      <point x="356" y="411"/>
      <point x="384" y="381"/>
      <point x="386" y="325" type="curve"/>
      <point x="534" y="355" type="line"/>
      <point x="523" y="472"/>
      <point x="441" y="544"/>
      <point x="318" y="544" type="curve"/>
      <point x="137" y="544"/>
      <point x="6" y="387"/>
      <point x="6" y="201" type="curve"/>
      <point x="6" y="76"/>
      <point x="88" y="-14"/>
    </contour>
    <contour>
      <point x="516" y="585" type="line"/>
      <point x="445" y="730" type="line"/>
      <point x="339" y="730" type="line"/>
      <point x="344" y="686" type="line"/>
      <point x="412" y="585" type="line"/>
    </contour>
    <contour>
      <point x="172" y="585" type="line"/>
      <point x="288" y="585" type="line"/>
      <point x="399" y="686" type="line"/>
      <point x="411" y="730" type="line"/>
      <point x="305" y="730" type="line"/>
    </contour>
  </outline>
</glyph>
<glyph name="Dcaron" format="2">
  <advance width="689"/>
  <unicode hex="010E"/>
  <outline>
    <contour>
      <point x="-11" y="0" type="line"/>
      <point x="144" y="0" type="line"/>
      <point x="291" y="690" type="line"/>
      <point x="136" y="690" type="line"/>
    </contour>
    <contour>
      <point x="368" y="545" type="line"/>
      <point x="464" y="545"/>
      <point x="499" y="488"/>
      <point x="499" y="412" type="curve"/>
      <point x="499" y="266"/>
      <point x="415" y="145"/>
      <point x="280" y="145" type="curve"/>
      <point x="88" y="145" type="line"/>
      <point x="57" y="0" type="line"/>
      <point x="259" y="0" type="line"/>
      <point x="505" y="0"/>
      <point x="660" y="193"/>
      <point x="660" y="424" type="curve"/>
      <point x="660" y="575"/>
      <point x="561" y="690"/>
      <point x="388" y="690" type="curve"/>
      <point x="204" y="690" type="line"/>
      <point x="173" y="545" type="line"/>
    </contour>
    <contour>
      <point x="612" y="850" type="line"/>
      <point x="485" y="850" type="line"/>
      <point x="370" y="773" type="line"/>
      <point x="348" y="735" type="line"/>
      <point x="477" y="735" type="line"/>
    </contour>
    <contour>
      <point x="224" y="850" type="line"/>
      <point x="309" y="735" type="line"/>
      <point x="438" y="735" type="line"/>
      <point x="422" y="773" type="line"/>
      <point x="341" y="850" type="line"/>
    </contour>
  </outline>
</glyph>
<glyph name="Ebreve" format="2">
  <advance width="617"/>
  <unicode hex="0114"/>
  <outline>
    <contour>
      <point x="-11" y="0" type="line"/>
      <point x="144" y="0" type="line"/>
      <point x="291" y="690" type="line"/>
      <point x="136" y="690" type="line"/>
    </contour>
    <contour>
      <point x="146" y="419" type="line"/>
      <point x="117" y="282" type="line"/>
      <point x="522" y="282" type="line"/>
      <point x="551" y="419" type="line"/>
    </contour>
    <contour>
      <point x="88" y="145" type="line"/>
      <point x="57" y="0" type="line"/>
      <point x="509" y="0" type="line"/>
      <point x="540" y="145" type="line"/>
    </contour>
    <contour>
      <point x="204" y="690" type="line"/>
      <point x="173" y="545" type="line"/>
      <point x="621" y="545" type="line"/>
      <point x="652" y="690" type="line"/>
    </contour>
    <contour>
      <point x="426" y="814" type="curve"/>
      <point x="385" y="814"/>
      <point x="373" y="827"/>
      <point x="373" y="850" type="curve"/>
      <point x="276" y="850" type="line"/>
      <point x="275" y="843"/>
      <point x="274" y="837"/>
      <point x="274" y="831" type="curve" smooth="yes"/>
      <point x="274" y="770"/>
      <point x="327" y="730"/>
      <point x="421" y="730" type="curve"/>
      <point x="525" y="730"/>
      <point x="578" y="779"/>
      <point x="594" y="850" type="curve"/>
      <point x="497" y="850" type="line"/>
      <point x="489" y="827"/>
      <point x="467" y="814"/>
    </contour>
  </outline>
</glyph>
<glyph name="Edotaccent" format="2">
  <advance width="617"/>
  <unicode hex="0116"/>
  <outline>
    <contour>
      <point x="-11" y="0" type="line"/>
      <point x="144" y="0" type="line"/>
      <point x="291" y="690" type="line"/>
      <point x="136" y="690" type="line"/>
    </contour>
    <contour>
      <point x="146" y="419" type="line"/>
      <point x="117" y="282" type="line"/>
      <point x="522" y="282" type="line"/>
      <point x="551" y="419" type="line"/>
    </contour>
    <contour>
      <point x="88" y="145" type="line"/>
      <point x="57" y="0" type="line"/>
      <point x="509" y="0" type="line"/>
      <point x="540" y="145" type="line"/>
    </contour>
    <contour>
      <point x="204" y="690" type="line"/>
      <point x="173" y="545" type="line"/>
      <point x="621" y="545" type="line"/>
      <point x="652" y="690" type="line"/>
    </contour>
    <contour>
      <point x="422" y="741" type="curve"/>
      <point x="467" y="741"/>
      <point x="503" y="771"/>
      <point x="503" y="817" type="curve"/>
      <point x="503" y="856"/>
      <point x="476" y="881"/>
      <point x="432" y="881" type="curve"/>
      <point x="387" y="881"/>
      <point x="351" y="851"/>
      <point x="351" y="804" type="curve"/>
      <point x="351" y="766"/>
      <point x="378" y="741"/>
    </contour>
  </outline>
</glyph>
<glyph name="Eogonek" format="2">
  <advance width="617"/>
  <unicode hex="0118"/>
  <outline>
    <contour>
      <point x="404" y="0" type="line"/>
      <point x="311" y="-36"/>
      <point x="280" y="-82"/>
      <point x="280" y="-121" type="curve"/>
      <point x="280" y="-158"/>
      <point x="310" y="-190"/>
      <point x="379" y="-190" type="curve"/>
      <point x="407" y="-190"/>
      <point x="442" y="-183"/>
      <point x="473" y="-170" type="curve"/>
      <point x="484" y="-75" type="line"/>
      <point x="462" y="-87"/>
      <point x="434" y="-96"/>
      <point x="415" y="-96" type="curve"/>
      <point x="402" y="-96"/>
      <point x="395" y="-90"/>
      <point x="395" y="-82" type="curve" smooth="yes"/>
      <point x="395" y="-65"/>
      <point x="420" y="-36"/>
      <point x="509" y="0" type="curve"/>
    </contour>
    <contour>
      <point x="-11" y="0" type="line"/>
      <point x="144" y="0" type="line"/>
      <point x="291" y="690" type="line"/>
      <point x="136" y="690" type="line"/>
    </contour>
    <contour>
      <point x="146" y="419" type="line"/>
      <point x="117" y="282" type="line"/>
      <point x="522" y="282" type="line"/>
      <point x="551" y="419" type="line"/>
    </contour>
    <contour>
      <point x="88" y="145" type="line"/>
      <point x="57" y="0" type="line"/>
      <point x="509" y="0" type="line"/>
      <point x="540" y="145" type="line"/>
    </contour>
    <contour>
      <point x="204" y="690" type="line"/>
      <point x="173" y="545" type="line"/>
      <point x="621" y="545" type="line"/>
      <point x="652" y="690" type="line"/>
    </contour>
  </outline>
</glyph>
<glyph name="eogonek" format="2">
  <advance width="572"/>
  <unicode hex="0119"/>
  <outline>
    <contour>
      <point x="398" y="36" type="curve" smooth="yes"/>
      <point x="432" y="61"/>
      <point x="460" y="91"/>
      <point x="480" y="128" type="curve"/>
      <point x="344" y="177" type="line"/>
      <point x="327" y="141"/>
      <point x="291" y="114"/>
      <point x="243" y="114" type="curve"/>
      <point x="189" y="114"/>
      <point x="162" y="159"/>
      <point x="162" y="218" type="curve"/>
      <point x="162" y="328"/>
      <point x="225" y="419"/>
      <point x="304" y="419" type="curve"/>
      <point x="358" y="419"/>
      <point x="384" y="387"/>
      <point x="384" y="312" type="curve"/>
      <point x="384" y="296"/>
      <point x="383" y="280"/>
      <point x="380" y="265" type="curve"/>
      <point x="430" y="323" type="line"/>
      <point x="114" y="323" type="line"/>
      <point x="92" y="223" type="line"/>
      <point x="517" y="223" type="line"/>
      <point x="527" y="256"/>
      <point x="532" y="292"/>
      <point x="532" y="327" type="curve"/>
      <point x="532" y="454"/>
      <point x="452" y="544"/>
      <point x="316" y="544" type="curve"/>
      <point x="138" y="544"/>
      <point x="8" y="387"/>
      <point x="8" y="201" type="curve"/>
      <point x="8" y="76"/>
      <point x="93" y="-14"/>
      <point x="232" y="-14" type="curve"/>
      <point x="256" y="-14"/>
      <point x="278" y="-11"/>
      <point x="300" y="-7" type="curve"/>
      <point x="296" y="-2" type="line"/>
      <point x="199" y="-36"/>
      <point x="167" y="-82"/>
      <point x="167" y="-121" type="curve"/>
      <point x="167" y="-158"/>
      <point x="197" y="-190"/>
      <point x="266" y="-190" type="curve"/>
      <point x="294" y="-190"/>
      <point x="329" y="-183"/>
      <point x="360" y="-170" type="curve"/>
      <point x="371" y="-75" type="line"/>
      <point x="349" y="-87"/>
      <point x="321" y="-96"/>
      <point x="302" y="-96" type="curve"/>
      <point x="289" y="-96"/>
      <point x="282" y="-90"/>
      <point x="282" y="-80" type="curve"/>
      <point x="282" y="-65"/>
      <point x="303" y="-34"/>
    </contour>
  </outline>
</glyph>
<glyph name="Ecaron" format="2">
  <advance width="617"/>
  <unicode hex="011A"/>
  <outline>
    <contour>
      <point x="-11" y="0" type="line"/>
      <point x="144" y="0" type="line"/>
      <point x="291" y="690" type="line"/>
      <point x="136" y="690" type="line"/>
    </contour>
    <contour>
      <point x="146" y="419" type="line"/>
      <point x="117" y="282" type="line"/>
      <point x="522" y="282" type="line"/>
      <point x="551" y="419" type="line"/>
    </contour>
    <contour>
      <point x="88" y="145" type="line"/>
      <point x="57" y="0" type="line"/>
      <point x="509" y="0" type="line"/>
      <point x="540" y="145" type="line"/>
    </contour>
    <contour>
      <point x="204" y="690" type="line"/>
      <point x="173" y="545" type="line"/>
      <point x="621" y="545" type="line"/>
      <point x="652" y="690" type="line"/>
    </contour>
    <contour>
      <point x="629" y="850" type="line"/>
      <point x="502" y="850" type="line"/>
      <point x="387" y="773" type="line"/>
      <point x="365" y="735" type="line"/>
      <point x="494" y="735" type="line"/>
    </contour>
    <contour>
      <point x="241" y="850" type="line"/>
      <point x="326" y="735" type="line"/>
      <point x="455" y="735" type="line"/>
      <point x="439" y="773" type="line"/>
      <point x="358" y="850" type="line"/>
    </contour>
  </outline>
</glyph>
<glyph name="Gcedilla" format="2">
  <advance width="722"/>
  <unicode hex="0122"/>
  <outline>
    <contour>
      <point x="330" y="250" type="line"/>
      <point x="584" y="250" type="line"/>
      <point x="611" y="377" type="line"/>
      <point x="357" y="377" type="line"/>
    </contour>
    <contour>
      <point x="488" y="214" type="line"/>
      <point x="471" y="0" type="line"/>
      <point x="594" y="0" type="line"/>
      <point x="674" y="377" type="line"/>
      <point x="523" y="377" type="line"/>
      <point x="499" y="262" type="line" smooth="yes"/>
      <point x="482" y="182"/>
      <point x="407" y="132"/>
      <point x="320" y="132" type="curve"/>
      <point x="230" y="132"/>
      <point x="194" y="193"/>
      <point x="194" y="278" type="curve"/>
      <point x="194" y="432"/>
      <point x="280" y="558"/>
      <point x="400" y="558" type="curve"/>
      <point x="488" y="558"/>
      <point x="521" y="507"/>
      <point x="526" y="439" type="curve"/>
      <point x="687" y="473" type="line"/>
      <point x="672" y="608"/>
      <point x="578" y="704"/>
      <point x="422" y="704" type="curve"/>
      <point x="192" y="704"/>
      <point x="31" y="506"/>
      <point x="31" y="267" type="curve"/>
      <point x="31" y="107"/>
      <point x="123" y="-14"/>
      <point x="283" y="-14" type="curve"/>
      <point x="413" y="-14"/>
      <point x="498" y="74"/>
      <point x="538" y="216" type="curve"/>
    </contour>
    <contour>
      <point x="212" y="-54" type="line"/>
      <point x="166" y="-270" type="line"/>
      <point x="256" y="-270" type="line"/>
      <point x="344" y="-54" type="line"/>
    </contour>
  </outline>
</glyph>
<glyph name="Hcircumflex" format="2">
  <advance width="714"/>
  <unicode hex="0124"/>
  <outline>
    <contour>
      <point x="-11" y="0" type="line"/>
      <point x="144" y="0" type="line"/>
      <point x="291" y="690" type="line"/>
      <point x="136" y="690" type="line"/>
    </contour>
    <contour>
      <point x="426" y="0" type="line"/>
      <point x="580" y="0" type="line"/>
      <point x="727" y="690" type="line"/>
      <point x="573" y="690" type="line"/>
    </contour>
    <contour>
      <point x="147" y="423" type="line"/>
      <point x="116" y="278" type="line"/>
      <point x="571" y="278" type="line"/>
      <point x="602" y="423" type="line"/>
    </contour>
    <contour>
      <point x="247" y="735" type="line"/>
      <point x="374" y="735" type="line"/>
      <point x="489" y="812" type="line"/>
      <point x="511" y="850" type="line"/>
      <point x="382" y="850" type="line"/>
    </contour>
    <contour>
      <point x="635" y="735" type="line"/>
      <point x="550" y="850" type="line"/>
      <point x="421" y="850" type="line"/>
      <point x="437" y="812" type="line"/>
      <point x="518" y="735" type="line"/>
    </contour>
  </outline>
</glyph>
<glyph name="itilde" format="2">
  <advance width="255"/>
  <unicode hex="0129"/>
  <outline>
    <contour>
      <point x="-19" y="0" type="line"/>
      <point x="130" y="0" type="line"/>
      <point x="243" y="530" type="line"/>
      <point x="94" y="530" type="line"/>
    </contour>
    <contour>
      <point x="247" y="585" type="curve"/>
      <point x="309" y="585"/>
      <point x="356" y="641"/>
      <point x="370" y="730" type="curve"/>
      <point x="286" y="730" type="line"/>
      <point x="285" y="702"/>
      <point x="271" y="690"/>
      <point x="252" y="690" type="curve"/>
      <point x="220" y="690"/>
      <point x="202" y="730"/>
      <point x="144" y="730" type="curve"/>
      <point x="81" y="730"/>
      <point x="34" y="674"/>
      <point x="21" y="585" type="curve"/>
      <point x="105" y="585" type="line"/>
      <point x="106" y="612"/>
      <point x="121" y="624"/>
      <point x="140" y="624" type="curve"/>
      <point x="174" y="624"/>
      <point x="189" y="585"/>
    </contour>
  </outline>
</glyph>
<glyph name="Imacron" format="2">
  <advance width="278"/>
  <unicode hex="012A"/>
  <outline>
    <contour>
      <point x="-11" y="0" type="line"/>
      <point x="144" y="0" type="line"/>
      <point x="291" y="690" type="line"/>
      <point x="136" y="690" type="line"/>
    </contour>
    <contour>
      <point x="57" y="735" type="line"/>
      <point x="387" y="735" type="line"/>
      <point x="412" y="850" type="line"/>
      <point x="82" y="850" type="line"/>
    </contour>
  </outline>
</glyph>
<glyph name="imacron" format="2">
  <advance width="254"/>
  <unicode hex="012B"/>
  <outline>
    <contour>
      <point x="-20" y="0" type="line"/>
      <point x="129" y="0" type="line"/>
      <point x="242" y="530" type="line"/>
      <point x="93" y="530" type="line"/>
    </contour>
    <contour>
      <point x="36" y="603" type="line"/>
      <point x="330" y="603" type="line"/>
      <point x="355" y="718" type="line"/>
      <point x="61" y="718" type="line"/>
    </contour>
  </outline>
</glyph>
<glyph name="Ibreve" format="2">
  <advance width="279"/>
  <unicode hex="012C"/>
  <outline>
    <contour>
      <point x="-10" y="0" type="line"/>
      <point x="145" y="0" type="line"/>
      <point x="292" y="690" type="line"/>
      <point x="137" y="690" type="line"/>
    </contour>
    <contour>
      <point x="239" y="814" type="curve"/>
      <point x="198" y="814"/>
      <point x="186" y="827"/>
      <point x="186" y="850" type="curve"/>
      <point x="89" y="850" type="line"/>
      <point x="88" y="843"/>
      <point x="87" y="837"/>
      <point x="87" y="831" type="curve" smooth="yes"/>
      <point x="87" y="770"/>
      <point x="140" y="730"/>
      <point x="234" y="730" type="curve"/>
      <point x="338" y="730"/>
      <point x="391" y="779"/>
      <point x="407" y="850" type="curve"/>
      <point x="310" y="850" type="line"/>
      <point x="302" y="827"/>
      <point x="280" y="814"/>
    </contour>
  </outline>
</glyph>
<glyph name="ibreve" format="2">
  <advance width="255"/>
  <unicode hex="012D"/>
  <outline>
    <contour>
      <point x="-20" y="0" type="line"/>
      <point x="129" y="0" type="line"/>
      <point x="242" y="530" type="line"/>
      <point x="93" y="530" type="line"/>
    </contour>
    <contour>
      <point x="196" y="671" type="curve"/>
      <point x="165" y="671"/>
      <point x="150" y="686"/>
      <point x="150" y="713" type="curve" smooth="yes"/>
      <point x="150" y="718"/>
      <point x="151" y="724"/>
      <point x="152" y="730" type="curve"/>
      <point x="61" y="730" type="line"/>
      <point x="59" y="718"/>
      <point x="58" y="708"/>
      <point x="58" y="697" type="curve" smooth="yes"/>
      <point x="58" y="626"/>
      <point x="108" y="585"/>
      <point x="189" y="585" type="curve"/>
      <point x="294" y="585"/>
      <point x="340" y="639"/>
      <point x="359" y="730" type="curve"/>
      <point x="268" y="730" type="line"/>
      <point x="261" y="693"/>
      <point x="233" y="671"/>
    </contour>
  </outline>
</glyph>
<glyph name="Iogonek" format="2">
  <advance width="279"/>
  <unicode hex="012E"/>
  <outline>
    <contour>
      <point x="40" y="0" type="line"/>
      <point x="-53" y="-36"/>
      <point x="-84" y="-82"/>
      <point x="-84" y="-121" type="curve"/>
      <point x="-84" y="-158"/>
      <point x="-54" y="-190"/>
      <point x="15" y="-190" type="curve"/>
      <point x="43" y="-190"/>
      <point x="78" y="-183"/>
      <point x="109" y="-170" type="curve"/>
      <point x="120" y="-75" type="line"/>
      <point x="98" y="-87"/>
      <point x="70" y="-96"/>
      <point x="51" y="-96" type="curve"/>
      <point x="38" y="-96"/>
      <point x="31" y="-90"/>
      <point x="31" y="-82" type="curve" smooth="yes"/>
      <point x="31" y="-65"/>
      <point x="56" y="-36"/>
      <point x="145" y="0" type="curve"/>
    </contour>
    <contour>
      <point x="-10" y="0" type="line"/>
      <point x="145" y="0" type="line"/>
      <point x="292" y="690" type="line"/>
      <point x="137" y="690" type="line"/>
    </contour>
  </outline>
</glyph>
<glyph name="iogonek" format="2">
  <advance width="257"/>
  <unicode hex="012F"/>
  <outline>
    <contour>
      <point x="26" y="0" type="line"/>
      <point x="-67" y="-36"/>
      <point x="-98" y="-82"/>
      <point x="-98" y="-121" type="curve"/>
      <point x="-98" y="-158"/>
      <point x="-68" y="-190"/>
      <point x="1" y="-190" type="curve"/>
      <point x="29" y="-190"/>
      <point x="64" y="-183"/>
      <point x="95" y="-170" type="curve"/>
      <point x="106" y="-75" type="line"/>
      <point x="84" y="-87"/>
      <point x="56" y="-96"/>
      <point x="37" y="-96" type="curve"/>
      <point x="24" y="-96"/>
      <point x="17" y="-90"/>
      <point x="17" y="-82" type="curve" smooth="yes"/>
      <point x="17" y="-65"/>
      <point x="42" y="-36"/>
      <point x="131" y="0" type="curve"/>
    </contour>
    <contour>
      <point x="-18" y="0" type="line"/>
      <point x="131" y="0" type="line"/>
      <point x="244" y="530" type="line"/>
      <point x="95" y="530" type="line"/>
    </contour>
    <contour>
      <point x="192" y="580" type="curve"/>
      <point x="245" y="580"/>
      <point x="287" y="617"/>
      <point x="287" y="675" type="curve"/>
      <point x="287" y="723"/>
      <point x="256" y="755"/>
      <point x="204" y="755" type="curve"/>
      <point x="152" y="755"/>
      <point x="110" y="717"/>
      <point x="110" y="659" type="curve"/>
      <point x="110" y="611"/>
      <point x="141" y="580"/>
    </contour>
  </outline>
</glyph>
<glyph name="ij" format="2">
  <advance width="514"/>
  <unicode hex="0133"/>
  <outline>
    <contour>
      <point x="-18" y="0" type="line"/>
      <point x="131" y="0" type="line"/>
      <point x="244" y="530" type="line"/>
      <point x="95" y="530" type="line"/>
    </contour>
    <contour>
      <point x="192" y="580" type="curve"/>
      <point x="245" y="580"/>
      <point x="287" y="617"/>
      <point x="287" y="675" type="curve"/>
      <point x="287" y="723"/>
      <point x="256" y="755"/>
      <point x="204" y="755" type="curve"/>
      <point x="152" y="755"/>
      <point x="110" y="717"/>
      <point x="110" y="659" type="curve"/>
      <point x="110" y="611"/>
      <point x="141" y="580"/>
    </contour>
    <contour>
      <point x="241" y="9" type="line" smooth="yes"/>
      <point x="232" y="-32"/>
      <point x="208" y="-54"/>
      <point x="167" y="-54" type="curve"/>
      <point x="142" y="-54"/>
      <point x="120" y="-49"/>
      <point x="100" y="-41" type="curve"/>
      <point x="72" y="-172" type="line"/>
      <point x="97" y="-183"/>
      <point x="136" y="-189"/>
      <point x="176" y="-189" type="curve"/>
      <point x="279" y="-189"/>
      <point x="358" y="-143"/>
      <point x="385" y="-14" type="curve" smooth="yes"/>
      <point x="501" y="530" type="line"/>
      <point x="352" y="530" type="line"/>
    </contour>
    <contour>
      <point x="449" y="580" type="curve"/>
      <point x="502" y="580"/>
      <point x="544" y="617"/>
      <point x="544" y="675" type="curve"/>
      <point x="544" y="723"/>
      <point x="513" y="755"/>
      <point x="461" y="755" type="curve"/>
      <point x="409" y="755"/>
      <point x="367" y="717"/>
      <point x="367" y="659" type="curve"/>
      <point x="367" y="611"/>
      <point x="398" y="580"/>
    </contour>
  </outline>
</glyph>
<glyph name="Kcedilla" format="2">
  <advance width="657"/>
  <unicode hex="0136"/>
  <outline>
    <contour>
      <point x="375" y="415" type="line"/>
      <point x="267" y="309" type="line"/>
      <point x="411" y="0" type="line"/>
      <point x="584" y="0" type="line"/>
    </contour>
    <contour>
      <point x="183" y="367" type="line"/>
      <point x="138" y="148" type="line"/>
      <point x="713" y="690" type="line"/>
      <point x="511" y="690" type="line"/>
    </contour>
    <contour>
      <point x="-11" y="0" type="line"/>
      <point x="144" y="0" type="line"/>
      <point x="291" y="690" type="line"/>
      <point x="136" y="690" type="line"/>
    </contour>
    <contour>
      <point x="185" y="-54" type="line"/>
      <point x="139" y="-270" type="line"/>
      <point x="229" y="-270" type="line"/>
      <point x="317" y="-54" type="line"/>
    </contour>
  </outline>
</glyph>
<glyph name="Lacute" format="2">
  <advance width="544"/>
  <unicode hex="0139"/>
  <outline>
    <contour>
      <point x="-11" y="0" type="line"/>
      <point x="144" y="0" type="line"/>
      <point x="291" y="690" type="line"/>
      <point x="136" y="690" type="line"/>
    </contour>
    <contour>
      <point x="88" y="145" type="line"/>
      <point x="57" y="0" type="line"/>
      <point x="442" y="0" type="line"/>
      <point x="473" y="145" type="line"/>
    </contour>
    <contour>
      <point x="149" y="735" type="line"/>
      <point x="274" y="735" type="line"/>
      <point x="450" y="850" type="line"/>
      <point x="277" y="850" type="line"/>
    </contour>
  </outline>
</glyph>
<glyph name="lacute" format="2">
  <advance width="255"/>
  <unicode hex="013A"/>
  <outline>
    <contour>
      <point x="-20" y="0" type="line"/>
      <point x="129" y="0" type="line"/>
      <point x="281" y="715" type="line"/>
      <point x="132" y="715" type="line"/>
    </contour>
    <contour>
      <point x="148" y="770" type="line"/>
      <point x="263" y="770" type="line"/>
      <point x="419" y="915" type="line"/>
      <point x="258" y="915" type="line"/>
    </contour>
  </outline>
</glyph>
<glyph name="Lcedilla" format="2">
  <advance width="544"/>
  <unicode hex="013B"/>
  <outline>
    <contour>
      <point x="-11" y="0" type="line"/>
      <point x="144" y="0" type="line"/>
      <point x="291" y="690" type="line"/>
      <point x="136" y="690" type="line"/>
    </contour>
    <contour>
      <point x="88" y="145" type="line"/>
      <point x="57" y="0" type="line"/>
      <point x="442" y="0" type="line"/>
      <point x="473" y="145" type="line"/>
    </contour>
    <contour>
      <point x="136" y="-54" type="line"/>
      <point x="90" y="-270" type="line"/>
      <point x="180" y="-270" type="line"/>
      <point x="268" y="-54" type="line"/>
    </contour>
  </outline>
</glyph>
<glyph name="lcedilla" format="2">
  <advance width="254"/>
  <unicode hex="013C"/>
  <outline>
    <contour>
      <point x="-20" y="0" type="line"/>
      <point x="129" y="0" type="line"/>
      <point x="281" y="715" type="line"/>
      <point x="132" y="715" type="line"/>
    </contour>
    <contour>
      <point x="-18" y="-54" type="line"/>
      <point x="-64" y="-270" type="line"/>
      <point x="26" y="-270" type="line"/>
      <point x="114" y="-54" type="line"/>
    </contour>
  </outline>
</glyph>
<glyph name="Lcaron" format="2">
  <advance width="544"/>
  <unicode hex="013D"/>
  <outline>
    <contour>
      <point x="422" y="690" type="line"/>
      <point x="356" y="383" type="line"/>
      <point x="444" y="383" type="line"/>
      <point x="572" y="690" type="line"/>
    </contour>
    <contour>
      <point x="-11" y="0" type="line"/>
      <point x="144" y="0" type="line"/>
      <point x="291" y="690" type="line"/>
      <point x="136" y="690" type="line"/>
    </contour>
    <contour>
      <point x="88" y="145" type="line"/>
      <point x="57" y="0" type="line"/>
      <point x="442" y="0" type="line"/>
      <point x="473" y="145" type="line"/>
    </contour>
  </outline>
</glyph>
<glyph name="Ldot" format="2">
  <advance width="544"/>
  <unicode hex="013F"/>
  <outline>
    <contour>
      <point x="400" y="249" type="curve"/>
      <point x="453" y="249"/>
      <point x="495" y="286"/>
      <point x="495" y="344" type="curve"/>
      <point x="495" y="392"/>
      <point x="464" y="424"/>
      <point x="412" y="424" type="curve"/>
      <point x="360" y="424"/>
      <point x="318" y="386"/>
      <point x="318" y="328" type="curve"/>
      <point x="318" y="280"/>
      <point x="349" y="249"/>
    </contour>
    <contour>
      <point x="-11" y="0" type="line"/>
      <point x="144" y="0" type="line"/>
      <point x="291" y="690" type="line"/>
      <point x="136" y="690" type="line"/>
    </contour>
    <contour>
      <point x="88" y="145" type="line"/>
      <point x="57" y="0" type="line"/>
      <point x="442" y="0" type="line"/>
      <point x="473" y="145" type="line"/>
    </contour>
  </outline>
</glyph>
<glyph name="ldot" format="2">
  <advance width="256"/>
  <unicode hex="0140"/>
  <outline>
    <contour>
      <point x="297" y="214" type="curve"/>
      <point x="350" y="214"/>
      <point x="392" y="251"/>
      <point x="392" y="309" type="curve"/>
      <point x="392" y="357"/>
      <point x="361" y="389"/>
      <point x="309" y="389" type="curve"/>
      <point x="257" y="389"/>
      <point x="215" y="351"/>
      <point x="215" y="293" type="curve"/>
      <point x="215" y="245"/>
      <point x="246" y="214"/>
    </contour>
    <contour>
      <point x="-20" y="0" type="line"/>
      <point x="129" y="0" type="line"/>
      <point x="281" y="715" type="line"/>
      <point x="132" y="715" type="line"/>
    </contour>
  </outline>
</glyph>
<glyph name="Lslash" format="2">
  <advance width="554"/>
  <unicode hex="0141"/>
  <outline>
    <contour>
      <point x="5" y="319" type="line"/>
      <point x="-25" y="180" type="line"/>
      <point x="417" y="378" type="line"/>
      <point x="447" y="517" type="line"/>
    </contour>
    <contour>
      <point x="-1" y="0" type="line"/>
      <point x="154" y="0" type="line"/>
      <point x="301" y="690" type="line"/>
      <point x="146" y="690" type="line"/>
    </contour>
    <contour>
      <point x="98" y="145" type="line"/>
      <point x="67" y="0" type="line"/>
      <point x="452" y="0" type="line"/>
      <point x="483" y="145" type="line"/>
    </contour>
  </outline>
</glyph>
<glyph name="lslash" format="2">
  <advance width="277"/>
  <unicode hex="0142"/>
  <outline>
    <contour>
      <point x="9" y="340" type="line"/>
      <point x="-18" y="212" type="line"/>
      <point x="268" y="339" type="line"/>
      <point x="293" y="467" type="line"/>
    </contour>
    <contour>
      <point x="-12" y="0" type="line"/>
      <point x="137" y="0" type="line"/>
      <point x="289" y="715" type="line"/>
      <point x="140" y="715" type="line"/>
    </contour>
    <contour>
      <point x="-12" y="0" type="line"/>
      <point x="137" y="0" type="line"/>
      <point x="289" y="715" type="line"/>
      <point x="140" y="715" type="line"/>
    </contour>
  </outline>
</glyph>
<glyph name="Nacute" format="2">
  <advance width="716"/>
  <unicode hex="0143"/>
  <outline>
    <contour>
      <point x="386" y="690" type="line"/>
      <point x="235" y="690" type="line"/>
      <point x="332" y="0" type="line"/>
      <point x="483" y="0" type="line"/>
    </contour>
    <contour>
      <point x="-11" y="0" type="line"/>
      <point x="136" y="0" type="line"/>
      <point x="283" y="690" type="line"/>
      <point x="136" y="690" type="line"/>
    </contour>
    <contour>
      <point x="435" y="0" type="line"/>
      <point x="582" y="0" type="line"/>
      <point x="729" y="690" type="line"/>
      <point x="582" y="690" type="line"/>
    </contour>
    <contour>
      <point x="367" y="735" type="line"/>
      <point x="492" y="735" type="line"/>
      <point x="668" y="850" type="line"/>
      <point x="495" y="850" type="line"/>
    </contour>
  </outline>
</glyph>
<glyph name="Ncedilla" format="2">
  <advance width="716"/>
  <unicode hex="0145"/>
  <outline>
    <contour>
      <point x="386" y="690" type="line"/>
      <point x="235" y="690" type="line"/>
      <point x="332" y="0" type="line"/>
      <point x="483" y="0" type="line"/>
    </contour>
    <contour>
      <point x="-11" y="0" type="line"/>
      <point x="136" y="0" type="line"/>
      <point x="283" y="690" type="line"/>
      <point x="136" y="690" type="line"/>
    </contour>
    <contour>
      <point x="435" y="0" type="line"/>
      <point x="582" y="0" type="line"/>
      <point x="729" y="690" type="line"/>
      <point x="582" y="690" type="line"/>
    </contour>
    <contour>
      <point x="211" y="-54" type="line"/>
      <point x="165" y="-270" type="line"/>
      <point x="255" y="-270" type="line"/>
      <point x="343" y="-54" type="line"/>
    </contour>
  </outline>
</glyph>
<glyph name="Ncaron" format="2">
  <advance width="716"/>
  <unicode hex="0147"/>
  <outline>
    <contour>
      <point x="386" y="690" type="line"/>
      <point x="235" y="690" type="line"/>
      <point x="332" y="0" type="line"/>
      <point x="483" y="0" type="line"/>
    </contour>
    <contour>
      <point x="-11" y="0" type="line"/>
      <point x="136" y="0" type="line"/>
      <point x="283" y="690" type="line"/>
      <point x="136" y="690" type="line"/>
    </contour>
    <contour>
      <point x="435" y="0" type="line"/>
      <point x="582" y="0" type="line"/>
      <point x="729" y="690" type="line"/>
      <point x="582" y="690" type="line"/>
    </contour>
    <contour>
      <point x="659" y="850" type="line"/>
      <point x="532" y="850" type="line"/>
      <point x="417" y="773" type="line"/>
      <point x="395" y="735" type="line"/>
      <point x="524" y="735" type="line"/>
    </contour>
    <contour>
      <point x="271" y="850" type="line"/>
      <point x="356" y="735" type="line"/>
      <point x="485" y="735" type="line"/>
      <point x="469" y="773" type="line"/>
      <point x="388" y="850" type="line"/>
    </contour>
  </outline>
</glyph>
<glyph name="obreve" format="2">
  <advance width="576"/>
  <unicode hex="014F"/>
  <outline>
    <contour>
      <point x="301" y="411" type="curve"/>
      <point x="355" y="411"/>
      <point x="382" y="371"/>
      <point x="382" y="312" type="curve"/>
      <point x="382" y="207"/>
      <point x="319" y="119"/>
      <point x="241" y="119" type="curve"/>
      <point x="187" y="119"/>
      <point x="160" y="159"/>
      <point x="160" y="218" type="curve"/>
      <point x="160" y="323"/>
      <point x="222" y="411"/>
    </contour>
    <contour>
      <point x="224" y="-14" type="curve"/>
      <point x="405" y="-14"/>
      <point x="536" y="143"/>
      <point x="536" y="329" type="curve"/>
      <point x="536" y="454"/>
      <point x="451" y="544"/>
      <point x="318" y="544" type="curve"/>
      <point x="137" y="544"/>
      <point x="6" y="387"/>
      <point x="6" y="201" type="curve"/>
      <point x="6" y="76"/>
      <point x="91" y="-14"/>
    </contour>
    <contour>
      <point x="356" y="671" type="curve"/>
      <point x="325" y="671"/>
      <point x="310" y="686"/>
      <point x="310" y="713" type="curve" smooth="yes"/>
      <point x="310" y="718"/>
      <point x="311" y="724"/>
      <point x="312" y="730" type="curve"/>
      <point x="221" y="730" type="line"/>
      <point x="219" y="718"/>
      <point x="218" y="708"/>
      <point x="218" y="697" type="curve" smooth="yes"/>
      <point x="218" y="626"/>
      <point x="268" y="585"/>
      <point x="349" y="585" type="curve"/>
      <point x="454" y="585"/>
      <point x="500" y="639"/>
      <point x="519" y="730" type="curve"/>
      <point x="428" y="730" type="line"/>
      <point x="421" y="693"/>
      <point x="393" y="671"/>
    </contour>
  </outline>
</glyph>
<glyph name="Ohungarumlaut" format="2">
  <advance width="727"/>
  <unicode hex="0150"/>
  <outline>
    <contour>
      <point x="400" y="558" type="curve"/>
      <point x="496" y="558"/>
      <point x="533" y="497"/>
      <point x="533" y="412" type="curve"/>
      <point x="533" y="258"/>
      <point x="447" y="132"/>
      <point x="327" y="132" type="curve"/>
      <point x="231" y="132"/>
      <point x="194" y="193"/>
      <point x="194" y="278" type="curve"/>
      <point x="194" y="432"/>
      <point x="280" y="558"/>
    </contour>
    <contour>
      <point x="422" y="704" type="curve"/>
      <point x="192" y="704"/>
      <point x="31" y="506"/>
      <point x="31" y="267" type="curve"/>
      <point x="31" y="107"/>
      <point x="133" y="-14"/>
      <point x="305" y="-14" type="curve"/>
      <point x="536" y="-14"/>
      <point x="696" y="185"/>
      <point x="696" y="424" type="curve"/>
      <point x="696" y="584"/>
      <point x="595" y="704"/>
    </contour>
    <contour>
      <point x="472" y="735" type="line"/>
      <point x="585" y="735" type="line"/>
      <point x="761" y="850" type="line"/>
      <point x="606" y="850" type="line"/>
    </contour>
    <contour>
      <point x="324" y="735" type="line"/>
      <point x="432" y="735" type="line"/>
      <point x="565" y="850" type="line"/>
      <point x="420" y="850" type="line"/>
    </contour>
  </outline>
</glyph>
<glyph name="OE" format="2">
  <advance width="1004"/>
  <unicode hex="0152"/>
  <outline>
    <contour>
      <point x="558" y="419" type="line"/>
      <point x="529" y="282" type="line"/>
      <point x="909" y="282" type="line"/>
      <point x="938" y="419" type="line"/>
    </contour>
    <contour>
      <point x="500" y="145" type="line"/>
      <point x="469" y="0" type="line"/>
      <point x="896" y="0" type="line"/>
      <point x="927" y="145" type="line"/>
    </contour>
    <contour>
      <point x="616" y="690" type="line"/>
      <point x="585" y="545" type="line"/>
      <point x="1008" y="545" type="line"/>
      <point x="1039" y="690" type="line"/>
    </contour>
    <contour>
      <point x="703" y="690" type="line"/>
      <point x="548" y="690" type="line"/>
      <point x="401" y="0" type="line"/>
      <point x="556" y="0" type="line"/>
    </contour>
    <contour>
      <point x="324" y="145" type="line"/>
      <point x="228" y="145"/>
      <point x="193" y="202"/>
      <point x="193" y="278" type="curve"/>
      <point x="193" y="424"/>
      <point x="277" y="545"/>
      <point x="412" y="545" type="curve"/>
      <point x="604" y="545" type="line"/>
      <point x="635" y="690" type="line"/>
      <point x="433" y="690" type="line"/>
      <point x="187" y="690"/>
      <point x="32" y="497"/>
      <point x="32" y="266" type="curve"/>
      <point x="32" y="115"/>
      <point x="131" y="0"/>
      <point x="304" y="0" type="curve"/>
      <point x="488" y="0" type="line"/>
      <point x="519" y="145" type="line"/>
    </contour>
  </outline>
</glyph>
<glyph name="Rcedilla" format="2">
  <advance width="642"/>
  <unicode hex="0156"/>
  <outline>
    <contour>
      <point x="386" y="0" type="line"/>
      <point x="548" y="0" type="line"/>
      <point x="406" y="299" type="line"/>
      <point x="257" y="299" type="line"/>
    </contour>
    <contour>
      <point x="-11" y="0" type="line"/>
      <point x="144" y="0" type="line"/>
      <point x="291" y="690" type="line"/>
      <point x="136" y="690" type="line"/>
    </contour>
    <contour>
      <point x="301" y="233" type="line"/>
      <point x="509" y="233"/>
      <point x="627" y="347"/>
      <point x="627" y="495" type="curve"/>
      <point x="627" y="609"/>
      <point x="543" y="690"/>
      <point x="395" y="690" type="curve"/>
      <point x="204" y="690" type="line"/>
      <point x="173" y="545" type="line"/>
      <point x="367" y="545" type="line"/>
      <point x="437" y="545"/>
      <point x="467" y="519"/>
      <point x="467" y="479" type="curve"/>
      <point x="467" y="419"/>
      <point x="424" y="378"/>
      <point x="322" y="378" type="curve"/>
      <point x="137" y="378" type="line"/>
      <point x="107" y="233" type="line"/>
    </contour>
    <contour>
      <point x="183" y="-54" type="line"/>
      <point x="137" y="-270" type="line"/>
      <point x="227" y="-270" type="line"/>
      <point x="315" y="-54" type="line"/>
    </contour>
  </outline>
</glyph>
<glyph name="rcedilla" format="2">
  <advance width="369"/>
  <unicode hex="0157"/>
  <outline>
    <contour>
      <point x="-20" y="0" type="line"/>
      <point x="129" y="0" type="line"/>
      <point x="242" y="530" type="line"/>
      <point x="93" y="530" type="line"/>
    </contour>
    <contour>
      <point x="403" y="544" type="line"/>
      <point x="275" y="544"/>
      <point x="199" y="423"/>
      <point x="160" y="238" type="curve"/>
      <point x="187" y="271" type="line"/>
      <point x="203" y="348"/>
      <point x="242" y="373"/>
      <point x="304" y="373" type="curve"/>
      <point x="366" y="373" type="line"/>
    </contour>
    <contour>
      <point x="-18" y="-54" type="line"/>
      <point x="-64" y="-270" type="line"/>
      <point x="26" y="-270" type="line"/>
      <point x="114" y="-54" type="line"/>
    </contour>
  </outline>
</glyph>
<glyph name="rcaron" format="2">
  <advance width="370"/>
  <unicode hex="0159"/>
  <outline>
    <contour>
      <point x="-20" y="0" type="line"/>
      <point x="129" y="0" type="line"/>
      <point x="242" y="530" type="line"/>
      <point x="93" y="530" type="line"/>
    </contour>
    <contour>
      <point x="403" y="544" type="line"/>
      <point x="275" y="544"/>
      <point x="199" y="423"/>
      <point x="160" y="238" type="curve"/>
      <point x="187" y="271" type="line"/>
      <point x="203" y="348"/>
      <point x="242" y="373"/>
      <point x="304" y="373" type="curve"/>
      <point x="366" y="373" type="line"/>
    </contour>
    <contour>
      <point x="112" y="730" type="line"/>
      <point x="183" y="585" type="line"/>
      <point x="289" y="585" type="line"/>
      <point x="284" y="629" type="line"/>
      <point x="216" y="730" type="line"/>
    </contour>
    <contour>
      <point x="456" y="730" type="line"/>
      <point x="340" y="730" type="line"/>
      <point x="229" y="629" type="line"/>
      <point x="217" y="585" type="line"/>
      <point x="323" y="585" type="line"/>
    </contour>
  </outline>
</glyph>
<glyph name="Scircumflex" format="2">
  <advance width="620"/>
  <unicode hex="015C"/>
  <outline>
    <contour>
      <point x="450" y="-14"/>
      <point x="556" y="79"/>
      <point x="556" y="212" type="curve"/>
      <point x="556" y="437"/>
      <point x="235" y="402"/>
      <point x="235" y="507" type="curve"/>
      <point x="235" y="540"/>
      <point x="262" y="566"/>
      <point x="337" y="566" type="curve"/>
      <point x="402" y="566"/>
      <point x="442" y="536"/>
      <point x="456" y="473" type="curve"/>
      <point x="608" y="517" type="line"/>
      <point x="581" y="640"/>
      <point x="478" y="704"/>
      <point x="350" y="704" type="curve"/>
      <point x="169" y="704"/>
      <point x="76" y="607"/>
      <point x="76" y="488" type="curve"/>
      <point x="76" y="272"/>
      <point x="391" y="310"/>
      <point x="391" y="193" type="curve"/>
      <point x="391" y="156"/>
      <point x="365" y="125"/>
      <point x="285" y="125" type="curve"/>
      <point x="212" y="125"/>
      <point x="168" y="159"/>
      <point x="150" y="236" type="curve"/>
      <point x="-6" y="190" type="line"/>
      <point x="22" y="53"/>
      <point x="127" y="-14"/>
      <point x="272" y="-14" type="curve"/>
    </contour>
    <contour>
      <point x="204" y="735" type="line"/>
      <point x="331" y="735" type="line"/>
      <point x="446" y="812" type="line"/>
      <point x="468" y="850" type="line"/>
      <point x="339" y="850" type="line"/>
    </contour>
    <contour>
      <point x="592" y="735" type="line"/>
      <point x="507" y="850" type="line"/>
      <point x="378" y="850" type="line"/>
      <point x="394" y="812" type="line"/>
      <point x="475" y="735" type="line"/>
    </contour>
  </outline>
</glyph>
<glyph name="Scedilla" format="2">
  <advance width="620"/>
  <unicode hex="015E"/>
  <outline>
    <contour>
      <point x="450" y="-14"/>
      <point x="556" y="79"/>
      <point x="556" y="212" type="curve"/>
      <point x="556" y="437"/>
      <point x="235" y="402"/>
      <point x="235" y="507" type="curve"/>
      <point x="235" y="540"/>
      <point x="262" y="566"/>
      <point x="337" y="566" type="curve"/>
      <point x="402" y="566"/>
      <point x="442" y="536"/>
      <point x="456" y="473" type="curve"/>
      <point x="608" y="517" type="line"/>
      <point x="581" y="640"/>
      <point x="478" y="704"/>
      <point x="350" y="704" type="curve"/>
      <point x="169" y="704"/>
      <point x="76" y="607"/>
      <point x="76" y="488" type="curve"/>
      <point x="76" y="272"/>
      <point x="391" y="310"/>
      <point x="391" y="193" type="curve"/>
      <point x="391" y="156"/>
      <point x="365" y="125"/>
      <point x="285" y="125" type="curve"/>
      <point x="212" y="125"/>
      <point x="168" y="159"/>
      <point x="150" y="236" type="curve"/>
      <point x="-6" y="190" type="line"/>
      <point x="22" y="53"/>
      <point x="127" y="-14"/>
      <point x="272" y="-14" type="curve"/>
    </contour>
    <contour>
      <point x="246" y="-29" type="curve"/>
      <point x="255" y="-43" type="line"/>
      <point x="272" y="9" type="line"/>
      <point x="204" y="11" type="line"/>
      <point x="171" y="-80" type="line"/>
      <point x="183" y="-76"/>
      <point x="193" y="-74"/>
      <point x="205" y="-74" type="curve"/>
      <point x="225" y="-74"/>
      <point x="235" y="-80"/>
      <point x="235" y="-91" type="curve"/>
      <point x="235" y="-103"/>
      <point x="224" y="-109"/>
      <point x="201" y="-109" type="curve"/>
      <point x="181" y="-109"/>
      <point x="159" y="-105"/>
      <point x="140" y="-94" type="curve"/>
      <point x="111" y="-174" type="line"/>
      <point x="136" y="-185"/>
      <point x="166" y="-190"/>
      <point x="194" y="-190" type="curve"/>
      <point x="286" y="-190"/>
      <point x="325" y="-146"/>
      <point x="325" y="-97" type="curve"/>
      <point x="325" y="-57"/>
      <point x="296" y="-29"/>
    </contour>
  </outline>
</glyph>
<glyph name="scaron" format="2">
  <advance width="514"/>
  <unicode hex="0161"/>
  <outline>
    <contour>
      <point x="356" y="-14"/>
      <point x="450" y="66"/>
      <point x="450" y="167" type="curve"/>
      <point x="450" y="349"/>
      <point x="192" y="316"/>
      <point x="192" y="389" type="curve"/>
      <point x="192" y="410"/>
      <point x="210" y="429"/>
      <point x="262" y="429" type="curve"/>
      <point x="310" y="429"/>
      <point x="331" y="408"/>
      <point x="344" y="362" type="curve"/>
      <point x="488" y="404" type="line"/>
      <point x="468" y="494"/>
      <point x="397" y="544"/>
      <point x="284" y="544" type="curve"/>
      <point x="133" y="544"/>
      <point x="43" y="458"/>
      <point x="43" y="368" type="curve"/>
      <point x="43" y="190"/>
      <point x="292" y="226"/>
      <point x="292" y="147" type="curve"/>
      <point x="292" y="124"/>
      <point x="275" y="102"/>
      <point x="217" y="102" type="curve"/>
      <point x="169" y="102"/>
      <point x="140" y="127"/>
      <point x="126" y="183" type="curve"/>
      <point x="-21" y="140" type="line"/>
      <point x="-8" y="38"/>
      <point x="71" y="-14"/>
      <point x="198" y="-14" type="curve"/>
    </contour>
    <contour>
      <point x="166" y="730" type="line"/>
      <point x="237" y="585" type="line"/>
      <point x="343" y="585" type="line"/>
      <point x="338" y="629" type="line"/>
      <point x="270" y="730" type="line"/>
    </contour>
    <contour>
      <point x="510" y="730" type="line"/>
      <point x="394" y="730" type="line"/>
      <point x="283" y="629" type="line"/>
      <point x="271" y="585" type="line"/>
      <point x="377" y="585" type="line"/>
    </contour>
  </outline>
</glyph>
<glyph name="Tcedilla" format="2">
  <advance width="594"/>
  <unicode hex="0162"/>
  <outline>
    <contour>
      <point x="148" y="0" type="line"/>
      <point x="302" y="0" type="line"/>
      <point x="449" y="690" type="line"/>
      <point x="295" y="690" type="line"/>
    </contour>
    <contour>
      <point x="95" y="690" type="line"/>
      <point x="64" y="545" type="line"/>
      <point x="618" y="545" type="line"/>
      <point x="649" y="690" type="line"/>
    </contour>
    <contour>
      <point x="227" y="-29" type="curve"/>
      <point x="236" y="-43" type="line"/>
      <point x="253" y="9" type="line"/>
      <point x="185" y="11" type="line"/>
      <point x="152" y="-80" type="line"/>
      <point x="164" y="-76"/>
      <point x="174" y="-74"/>
      <point x="186" y="-74" type="curve"/>
      <point x="206" y="-74"/>
      <point x="216" y="-80"/>
      <point x="216" y="-91" type="curve"/>
      <point x="216" y="-103"/>
      <point x="205" y="-109"/>
      <point x="182" y="-109" type="curve"/>
      <point x="162" y="-109"/>
      <point x="140" y="-105"/>
      <point x="121" y="-94" type="curve"/>
      <point x="92" y="-174" type="line"/>
      <point x="117" y="-185"/>
      <point x="147" y="-190"/>
      <point x="175" y="-190" type="curve"/>
      <point x="267" y="-190"/>
      <point x="306" y="-146"/>
      <point x="306" y="-97" type="curve"/>
      <point x="306" y="-57"/>
      <point x="277" y="-29"/>
    </contour>
  </outline>
</glyph>
<glyph name="Tcaron" format="2">
  <advance width="594"/>
  <unicode hex="0164"/>
  <outline>
    <contour>
      <point x="148" y="0" type="line"/>
      <point x="302" y="0" type="line"/>
      <point x="449" y="690" type="line"/>
      <point x="295" y="690" type="line"/>
    </contour>
    <contour>
      <point x="95" y="690" type="line"/>
      <point x="64" y="545" type="line"/>
      <point x="618" y="545" type="line"/>
      <point x="649" y="690" type="line"/>
    </contour>
    <contour>
      <point x="600" y="850" type="line"/>
      <point x="473" y="850" type="line"/>
      <point x="358" y="773" type="line"/>
      <point x="336" y="735" type="line"/>
      <point x="465" y="735" type="line"/>
    </contour>
    <contour>
      <point x="212" y="850" type="line"/>
      <point x="297" y="735" type="line"/>
      <point x="426" y="735" type="line"/>
      <point x="410" y="773" type="line"/>
      <point x="329" y="850" type="line"/>
    </contour>
  </outline>
</glyph>
<glyph name="Tbar" format="2">
  <advance width="594"/>
  <unicode hex="0166"/>
  <outline>
    <contour>
      <point x="66" y="367" type="line"/>
      <point x="40" y="246" type="line"/>
      <point x="514" y="246" type="line"/>
      <point x="540" y="367" type="line"/>
    </contour>
    <contour>
      <point x="148" y="0" type="line"/>
      <point x="302" y="0" type="line"/>
      <point x="449" y="690" type="line"/>
      <point x="295" y="690" type="line"/>
    </contour>
    <contour>
      <point x="95" y="690" type="line"/>
      <point x="64" y="545" type="line"/>
      <point x="618" y="545" type="line"/>
      <point x="649" y="690" type="line"/>
    </contour>
  </outline>
</glyph>
<glyph name="Uring" format="2">
  <advance width="692"/>
  <unicode hex="016E"/>
  <outline>
    <contour>
      <point x="471" y="273" type="line" smooth="yes"/>
      <point x="452" y="184"/>
      <point x="388" y="131"/>
      <point x="299" y="131" type="curve"/>
      <point x="225" y="131"/>
      <point x="189" y="163"/>
      <point x="189" y="226" type="curve" smooth="yes"/>
      <point x="189" y="240"/>
      <point x="190" y="256"/>
      <point x="194" y="273" type="curve" smooth="yes"/>
      <point x="283" y="690" type="line"/>
      <point x="129" y="690" type="line"/>
      <point x="38" y="265" type="line" smooth="yes"/>
      <point x="33" y="243"/>
      <point x="31" y="221"/>
      <point x="31" y="201" type="curve" smooth="yes"/>
      <point x="31" y="74"/>
      <point x="121" y="-14"/>
      <point x="286" y="-14" type="curve"/>
      <point x="466" y="-14"/>
      <point x="583" y="87"/>
      <point x="621" y="265" type="curve" smooth="yes"/>
      <point x="712" y="690" type="line"/>
      <point x="560" y="690" type="line"/>
    </contour>
    <contour>
      <point x="446" y="800" type="curve"/>
      <point x="428" y="800"/>
      <point x="418" y="808"/>
      <point x="418" y="823" type="curve"/>
      <point x="418" y="839"/>
      <point x="431" y="852"/>
      <point x="451" y="852" type="curve"/>
      <point x="469" y="852"/>
      <point x="479" y="844"/>
      <point x="479" y="829" type="curve"/>
      <point x="479" y="813"/>
      <point x="466" y="800"/>
    </contour>
    <contour>
      <point x="458" y="917" type="curve"/>
      <point x="388" y="917"/>
      <point x="345" y="868"/>
      <point x="345" y="815" type="curve"/>
      <point x="345" y="769"/>
      <point x="379" y="735"/>
      <point x="439" y="735" type="curve"/>
      <point x="509" y="735"/>
      <point x="552" y="784"/>
      <point x="552" y="837" type="curve"/>
      <point x="552" y="883"/>
      <point x="518" y="917"/>
    </contour>
  </outline>
</glyph>
<glyph name="uogonek" format="2">
  <advance width="585"/>
  <unicode hex="0173"/>
  <outline>
    <contour>
      <point x="355" y="0" type="line"/>
      <point x="262" y="-36"/>
      <point x="231" y="-82"/>
      <point x="231" y="-121" type="curve"/>
      <point x="231" y="-158"/>
      <point x="261" y="-190"/>
      <point x="330" y="-190" type="curve"/>
      <point x="358" y="-190"/>
      <point x="393" y="-183"/>
      <point x="424" y="-170" type="curve"/>
      <point x="435" y="-75" type="line"/>
      <point x="413" y="-87"/>
      <point x="385" y="-96"/>
      <point x="366" y="-96" type="curve"/>
      <point x="353" y="-96"/>
      <point x="346" y="-90"/>
      <point x="346" y="-82" type="curve" smooth="yes"/>
      <point x="346" y="-65"/>
      <point x="371" y="-36"/>
      <point x="460" y="0" type="curve"/>
    </contour>
    <contour>
      <point x="351" y="190" type="line"/>
      <point x="311" y="0" type="line"/>
      <point x="460" y="0" type="line"/>
      <point x="573" y="530" type="line"/>
      <point x="424" y="530" type="line"/>
      <point x="359" y="226" type="line" smooth="yes"/>
      <point x="344" y="155"/>
      <point x="298" y="117"/>
      <point x="245" y="117" type="curve"/>
      <point x="201" y="117"/>
      <point x="173" y="143"/>
      <point x="173" y="192" type="curve" smooth="yes"/>
      <point x="173" y="202"/>
      <point x="174" y="212"/>
      <point x="177" y="226" type="curve" smooth="yes"/>
      <point x="242" y="530" type="line"/>
      <point x="93" y="530" type="line"/>
      <point x="26" y="218" type="line" smooth="yes"/>
      <point x="21" y="195"/>
      <point x="19" y="174"/>
      <point x="19" y="153" type="curve" smooth="yes"/>
      <point x="19" y="55"/>
      <point x="78" y="-14"/>
      <point x="169" y="-14" type="curve"/>
      <point x="270" y="-14"/>
      <point x="353" y="73"/>
      <point x="385" y="226" type="curve"/>
    </contour>
  </outline>
</glyph>
<glyph name="wcircumflex" format="2">
  <advance width="837"/>
  <unicode hex="0175"/>
  <outline>
    <contour>
      <point x="40" y="0" type="line"/>
      <point x="172" y="0" type="line"/>
      <point x="199" y="530" type="line"/>
      <point x="51" y="530" type="line"/>
    </contour>
    <contour>
      <point x="141" y="0" type="line"/>
      <point x="275" y="0" type="line"/>
      <point x="477" y="530" type="line"/>
      <point x="342" y="530" type="line"/>
    </contour>
    <contour>
      <point x="419" y="0" type="line"/>
      <point x="552" y="0" type="line"/>
      <point x="572" y="530" type="line"/>
      <point x="441" y="530" type="line"/>
    </contour>
    <contour>
      <point x="521" y="0" type="line"/>
      <point x="653" y="0" type="line"/>
      <point x="868" y="530" type="line"/>
      <point x="713" y="530" type="line"/>
    </contour>
    <contour>
      <point x="643" y="585" type="line"/>
      <point x="572" y="730" type="line"/>
      <point x="466" y="730" type="line"/>
      <point x="471" y="686" type="line"/>
      <point x="539" y="585" type="line"/>
    </contour>
    <contour>
      <point x="299" y="585" type="line"/>
      <point x="415" y="585" type="line"/>
      <point x="526" y="686" type="line"/>
      <point x="538" y="730" type="line"/>
      <point x="432" y="730" type="line"/>
    </contour>
  </outline>
</glyph>
<glyph name="Ycircumflex" format="2">
  <advance width="640"/>
  <unicode hex="0176"/>
  <outline>
    <contour>
      <point x="236" y="220" type="line"/>
      <point x="349" y="343" type="line"/>
      <point x="234" y="690" type="line"/>
      <point x="73" y="690" type="line"/>
    </contour>
    <contour>
      <point x="277" y="343" type="line"/>
      <point x="353" y="221" type="line"/>
      <point x="717" y="690" type="line"/>
      <point x="536" y="690" type="line"/>
    </contour>
    <contour>
      <point x="170" y="0" type="line"/>
      <point x="324" y="0" type="line"/>
      <point x="405" y="381" type="line"/>
      <point x="251" y="381" type="line"/>
    </contour>
    <contour>
      <point x="215" y="735" type="line"/>
      <point x="342" y="735" type="line"/>
      <point x="457" y="812" type="line"/>
      <point x="479" y="850" type="line"/>
      <point x="350" y="850" type="line"/>
    </contour>
    <contour>
      <point x="603" y="735" type="line"/>
      <point x="518" y="850" type="line"/>
      <point x="389" y="850" type="line"/>
      <point x="405" y="812" type="line"/>
      <point x="486" y="735" type="line"/>
    </contour>
  </outline>
</glyph>
<glyph name="ycircumflex" format="2">
  <advance width="542"/>
  <unicode hex="0177"/>
  <outline>
    <contour>
      <point x="80" y="0" type="line"/>
      <point x="221" y="0" type="line"/>
      <point x="202" y="530" type="line"/>
      <point x="46" y="530" type="line"/>
    </contour>
    <contour>
      <point x="172" y="0" type="line" smooth="yes"/>
      <point x="155" y="-38"/>
      <point x="125" y="-59"/>
      <point x="64" y="-59" type="curve"/>
      <point x="27" y="-59"/>
      <point x="-5" y="-50"/>
      <point x="-31" y="-38" type="curve"/>
      <point x="-58" y="-167" type="line"/>
      <point x="-24" y="-182"/>
      <point x="15" y="-190"/>
      <point x="64" y="-190" type="curve"/>
      <point x="167" y="-190"/>
      <point x="241" y="-156"/>
      <point x="318" y="0" type="curve" smooth="yes"/>
      <point x="578" y="530" type="line"/>
      <point x="411" y="530" type="line"/>
    </contour>
    <contour>
      <point x="499" y="585" type="line"/>
      <point x="428" y="730" type="line"/>
      <point x="322" y="730" type="line"/>
      <point x="327" y="686" type="line"/>
      <point x="395" y="585" type="line"/>
    </contour>
    <contour>
      <point x="155" y="585" type="line"/>
      <point x="271" y="585" type="line"/>
      <point x="382" y="686" type="line"/>
      <point x="394" y="730" type="line"/>
      <point x="288" y="730" type="line"/>
    </contour>
  </outline>
</glyph>
<glyph name="Zacute" format="2">
  <advance width="616"/>
  <unicode hex="0179"/>
  <outline>
    <contour>
      <point x="114" y="690" type="line"/>
      <point x="84" y="550" type="line"/>
      <point x="566" y="550" type="line"/>
      <point x="632" y="587" type="line"/>
      <point x="654" y="690" type="line"/>
    </contour>
    <contour>
      <point x="-26" y="103" type="line"/>
      <point x="-48" y="0" type="line"/>
      <point x="519" y="0" type="line"/>
      <point x="549" y="140" type="line"/>
      <point x="40" y="140" type="line"/>
    </contour>
    <contour>
      <point x="-26" y="103" type="line"/>
      <point x="174" y="103" type="line"/>
      <point x="632" y="587" type="line"/>
      <point x="431" y="587" type="line"/>
    </contour>
    <contour>
      <point x="318" y="735" type="line"/>
      <point x="443" y="735" type="line"/>
      <point x="619" y="850" type="line"/>
      <point x="446" y="850" type="line"/>
    </contour>
  </outline>
</glyph>
<glyph name="zacute" format="2">
  <advance width="499"/>
  <unicode hex="017A"/>
  <outline>
    <contour>
      <point x="78" y="530" type="line"/>
      <point x="52" y="407" type="line"/>
      <point x="435" y="407" type="line"/>
      <point x="480" y="433" type="line"/>
      <point x="501" y="530" type="line"/>
    </contour>
    <contour>
      <point x="-24" y="97" type="line"/>
      <point x="-45" y="0" type="line"/>
      <point x="398" y="0" type="line"/>
      <point x="424" y="123" type="line"/>
      <point x="21" y="123" type="line"/>
    </contour>
    <contour>
      <point x="-24" y="97" type="line"/>
      <point x="156" y="88" type="line"/>
      <point x="480" y="433" type="line"/>
      <point x="300" y="442" type="line"/>
    </contour>
    <contour>
      <point x="230" y="585" type="line"/>
      <point x="345" y="585" type="line"/>
      <point x="501" y="730" type="line"/>
      <point x="340" y="730" type="line"/>
    </contour>
  </outline>
</glyph>
<glyph name="Zdotaccent" format="2">
  <advance width="616"/>
  <unicode hex="017B"/>
  <outline>
    <contour>
      <point x="114" y="690" type="line"/>
      <point x="84" y="550" type="line"/>
      <point x="566" y="550" type="line"/>
      <point x="632" y="587" type="line"/>
      <point x="654" y="690" type="line"/>
    </contour>
    <contour>
      <point x="-26" y="103" type="line"/>
      <point x="-48" y="0" type="line"/>
      <point x="519" y="0" type="line"/>
      <point x="549" y="140" type="line"/>
      <point x="40" y="140" type="line"/>
    </contour>
    <contour>
      <point x="-26" y="103" type="line"/>
      <point x="174" y="103" type="line"/>
      <point x="632" y="587" type="line"/>
      <point x="431" y="587" type="line"/>
    </contour>
    <contour>
      <point x="403" y="741" type="curve"/>
      <point x="448" y="741"/>
      <point x="484" y="771"/>
      <point x="484" y="817" type="curve"/>
      <point x="484" y="856"/>
      <point x="457" y="881"/>
      <point x="413" y="881" type="curve"/>
      <point x="368" y="881"/>
      <point x="332" y="851"/>
      <point x="332" y="804" type="curve"/>
      <point x="332" y="766"/>
      <point x="359" y="741"/>
    </contour>
  </outline>
</glyph>
<glyph name="zdotaccent" format="2">
  <advance width="499"/>
  <unicode hex="017C"/>
  <outline>
    <contour>
      <point x="78" y="530" type="line"/>
      <point x="52" y="407" type="line"/>
      <point x="435" y="407" type="line"/>
      <point x="480" y="433" type="line"/>
      <point x="501" y="530" type="line"/>
    </contour>
    <contour>
      <point x="-24" y="97" type="line"/>
      <point x="-45" y="0" type="line"/>
      <point x="398" y="0" type="line"/>
      <point x="424" y="123" type="line"/>
      <point x="21" y="123" type="line"/>
    </contour>
    <contour>
      <point x="-24" y="97" type="line"/>
      <point x="156" y="88" type="line"/>
      <point x="480" y="433" type="line"/>
      <point x="300" y="442" type="line"/>
    </contour>
    <contour>
      <point x="312" y="588" type="curve"/>
      <point x="357" y="588"/>
      <point x="393" y="620"/>
      <point x="393" y="669" type="curve"/>
      <point x="393" y="711"/>
      <point x="366" y="738"/>
      <point x="322" y="738" type="curve"/>
      <point x="277" y="738"/>
      <point x="241" y="706"/>
      <point x="241" y="656" type="curve"/>
      <point x="241" y="615"/>
      <point x="268" y="588"/>
    </contour>
  </outline>
</glyph>
<glyph name="Nhookleft" format="2">
  <advance width="716"/>
  <unicode hex="019D"/>
  <outline>
    <contour>
      <point x="-9" y="9" type="line" smooth="yes"/>
      <point x="-18" y="-32"/>
      <point x="-44" y="-54"/>
      <point x="-85" y="-54" type="curve"/>
      <point x="-110" y="-54"/>
      <point x="-132" y="-49"/>
      <point x="-152" y="-41" type="curve"/>
      <point x="-180" y="-172" type="line"/>
      <point x="-155" y="-183"/>
      <point x="-116" y="-189"/>
      <point x="-76" y="-189" type="curve"/>
      <point x="27" y="-189"/>
      <point x="106" y="-143"/>
      <point x="133" y="-14" type="curve" smooth="yes"/>
      <point x="283" y="690" type="line"/>
      <point x="136" y="690" type="line"/>
    </contour>
    <contour>
      <point x="386" y="690" type="line"/>
      <point x="235" y="690" type="line"/>
      <point x="332" y="0" type="line"/>
      <point x="483" y="0" type="line"/>
    </contour>
    <contour>
      <point x="435" y="0" type="line"/>
      <point x="582" y="0" type="line"/>
      <point x="729" y="690" type="line"/>
      <point x="582" y="690" type="line"/>
    </contour>
  </outline>
</glyph>
<glyph name="Oogonek" format="2">
  <advance width="727"/>
  <unicode hex="01EA"/>
  <outline>
    <contour>
      <point x="400" y="558" type="curve"/>
      <point x="496" y="558"/>
      <point x="533" y="497"/>
      <point x="533" y="412" type="curve"/>
      <point x="533" y="258"/>
      <point x="447" y="132"/>
      <point x="327" y="132" type="curve"/>
      <point x="231" y="132"/>
      <point x="194" y="193"/>
      <point x="194" y="278" type="curve"/>
      <point x="194" y="432"/>
      <point x="280" y="558"/>
    </contour>
    <contour>
      <point x="398" y="-3" type="curve" smooth="yes"/>
      <point x="577" y="45"/>
      <point x="696" y="218"/>
      <point x="696" y="424" type="curve"/>
      <point x="696" y="584"/>
      <point x="595" y="704"/>
      <point x="422" y="704" type="curve"/>
      <point x="192" y="704"/>
      <point x="31" y="506"/>
      <point x="31" y="267" type="curve"/>
      <point x="31" y="107"/>
      <point x="133" y="-14"/>
      <point x="305" y="-14" type="curve"/>
      <point x="292" y="-2" type="line"/>
      <point x="195" y="-36"/>
      <point x="164" y="-82"/>
      <point x="164" y="-121" type="curve"/>
      <point x="164" y="-158"/>
      <point x="194" y="-190"/>
      <point x="263" y="-190" type="curve"/>
      <point x="291" y="-190"/>
      <point x="326" y="-183"/>
      <point x="357" y="-170" type="curve"/>
      <point x="368" y="-75" type="line"/>
      <point x="346" y="-87"/>
      <point x="318" y="-96"/>
      <point x="299" y="-96" type="curve"/>
      <point x="286" y="-96"/>
      <point x="279" y="-90"/>
      <point x="279" y="-82" type="curve" smooth="yes"/>
      <point x="279" y="-65"/>
      <point x="302" y="-29"/>
    </contour>
  </outline>
</glyph>
<glyph name="oogonek" format="2">
  <advance width="576"/>
  <unicode hex="01EB"/>
  <outline>
    <contour>
      <point x="301" y="411" type="curve"/>
      <point x="355" y="411"/>
      <point x="382" y="371"/>
      <point x="382" y="312" type="curve"/>
      <point x="382" y="207"/>
      <point x="319" y="119"/>
      <point x="241" y="119" type="curve"/>
      <point x="187" y="119"/>
      <point x="160" y="159"/>
      <point x="160" y="218" type="curve"/>
      <point x="160" y="323"/>
      <point x="222" y="411"/>
    </contour>
    <contour>
      <point x="213" y="-3" type="line"/>
      <point x="120" y="-36"/>
      <point x="86" y="-82"/>
      <point x="86" y="-121" type="curve"/>
      <point x="86" y="-158"/>
      <point x="116" y="-190"/>
      <point x="185" y="-190" type="curve"/>
      <point x="213" y="-190"/>
      <point x="248" y="-183"/>
      <point x="279" y="-170" type="curve"/>
      <point x="290" y="-75" type="line"/>
      <point x="268" y="-87"/>
      <point x="240" y="-96"/>
      <point x="221" y="-96" type="curve"/>
      <point x="208" y="-96"/>
      <point x="201" y="-90"/>
      <point x="201" y="-82" type="curve" smooth="yes"/>
      <point x="201" y="-65"/>
      <point x="225" y="-30"/>
      <point x="316" y="0" type="curve" smooth="yes"/>
      <point x="448" y="44"/>
      <point x="536" y="176"/>
      <point x="536" y="329" type="curve"/>
      <point x="536" y="454"/>
      <point x="451" y="544"/>
      <point x="318" y="544" type="curve"/>
      <point x="137" y="544"/>
      <point x="6" y="387"/>
      <point x="6" y="201" type="curve"/>
      <point x="6" y="76"/>
      <point x="91" y="-14"/>
      <point x="224" y="-14" type="curve"/>
    </contour>
  </outline>
</glyph>
<glyph name="Aringacute" format="2">
  <advance width="675"/>
  <unicode hex="01FA"/>
  <outline>
    <contour>
      <point x="143" y="295" type="line"/>
      <point x="114" y="158" type="line"/>
      <point x="482" y="158" type="line"/>
      <point x="511" y="295" type="line"/>
    </contour>
    <contour>
      <point x="530" y="690" type="line"/>
      <point x="380" y="690" type="line"/>
      <point x="443" y="0" type="line"/>
      <point x="602" y="0" type="line"/>
    </contour>
    <contour>
      <point x="450" y="690" type="line"/>
      <point x="293" y="690" type="line"/>
      <point x="-73" y="0" type="line"/>
      <point x="103" y="0" type="line"/>
    </contour>
    <contour>
      <point x="410" y="934" type="line"/>
      <point x="525" y="934" type="line"/>
      <point x="662" y="1017" type="line"/>
      <point x="500" y="1017" type="line"/>
    </contour>
    <contour>
      <point x="437" y="800" type="curve"/>
      <point x="419" y="800"/>
      <point x="409" y="808"/>
      <point x="409" y="823" type="curve"/>
      <point x="409" y="839"/>
      <point x="422" y="852"/>
      <point x="442" y="852" type="curve"/>
      <point x="460" y="852"/>
      <point x="470" y="844"/>
      <point x="470" y="829" type="curve"/>
      <point x="470" y="813"/>
      <point x="457" y="800"/>
    </contour>
    <contour>
      <point x="449" y="917" type="curve"/>
      <point x="379" y="917"/>
      <point x="336" y="868"/>
      <point x="336" y="815" type="curve"/>
      <point x="336" y="769"/>
      <point x="370" y="735"/>
      <point x="430" y="735" type="curve"/>
      <point x="500" y="735"/>
      <point x="543" y="784"/>
      <point x="543" y="837" type="curve"/>
      <point x="543" y="883"/>
      <point x="509" y="917"/>
    </contour>
  </outline>
</glyph>
<glyph name="AEacute" format="2">
  <advance width="991"/>
  <unicode hex="01FC"/>
  <outline>
    <contour>
      <point x="203" y="295" type="line"/>
      <point x="174" y="162" type="line"/>
      <point x="464" y="162" type="line"/>
      <point x="493" y="295" type="line"/>
    </contour>
    <contour>
      <point x="593" y="690" type="line"/>
      <point x="426" y="690" type="line"/>
      <point x="-73" y="0" type="line"/>
      <point x="118" y="0" type="line"/>
    </contour>
    <contour>
      <point x="388" y="0" type="line"/>
      <point x="543" y="0" type="line"/>
      <point x="690" y="690" type="line"/>
      <point x="535" y="690" type="line"/>
    </contour>
    <contour>
      <point x="545" y="419" type="line"/>
      <point x="516" y="282" type="line"/>
      <point x="896" y="282" type="line"/>
      <point x="925" y="419" type="line"/>
    </contour>
    <contour>
      <point x="487" y="145" type="line"/>
      <point x="456" y="0" type="line"/>
      <point x="883" y="0" type="line"/>
      <point x="914" y="145" type="line"/>
    </contour>
    <contour>
      <point x="603" y="690" type="line"/>
      <point x="572" y="545" type="line"/>
      <point x="995" y="545" type="line"/>
      <point x="1026" y="690" type="line"/>
    </contour>
    <contour>
      <point x="546" y="735" type="line"/>
      <point x="671" y="735" type="line"/>
      <point x="847" y="850" type="line"/>
      <point x="674" y="850" type="line"/>
    </contour>
  </outline>
</glyph>
<glyph name="Tcommaaccent" format="2">
  <advance width="594"/>
  <unicode hex="021A"/>
  <outline>
    <contour>
      <point x="148" y="0" type="line"/>
      <point x="302" y="0" type="line"/>
      <point x="449" y="690" type="line"/>
      <point x="295" y="690" type="line"/>
    </contour>
    <contour>
      <point x="95" y="690" type="line"/>
      <point x="64" y="545" type="line"/>
      <point x="618" y="545" type="line"/>
      <point x="649" y="690" type="line"/>
    </contour>
    <contour>
      <point x="152" y="-54" type="line"/>
      <point x="106" y="-270" type="line"/>
      <point x="196" y="-270" type="line"/>
      <point x="284" y="-54" type="line"/>
    </contour>
  </outline>
</glyph>
<glyph name="circumflex" format="2">
  <advance width="499"/>
  <unicode hex="02C6"/>
  <anchor x="288.6549776851117" y="530" name="_top"/>
  <outline>
    <contour>
      <point x="472" y="585" type="line"/>
      <point x="401" y="730" type="line"/>
      <point x="295" y="730" type="line"/>
      <point x="300" y="686" type="line"/>
      <point x="368" y="585" type="line"/>
    </contour>
    <contour>
      <point x="128" y="585" type="line"/>
      <point x="244" y="585" type="line"/>
      <point x="355" y="686" type="line"/>
      <point x="367" y="730" type="line"/>
      <point x="261" y="730" type="line"/>
    </contour>
  </outline>
</glyph>
<glyph name="caron" format="2">
  <advance width="499"/>
  <unicode hex="02C7"/>
  <anchor x="288.6549776851117" y="530" name="_top"/>
  <outline>
    <contour>
      <point x="159" y="730" type="line"/>
      <point x="230" y="585" type="line"/>
      <point x="336" y="585" type="line"/>
      <point x="331" y="629" type="line"/>
      <point x="263" y="730" type="line"/>
    </contour>
    <contour>
      <point x="503" y="730" type="line"/>
      <point x="387" y="730" type="line"/>
      <point x="276" y="629" type="line"/>
      <point x="264" y="585" type="line"/>
      <point x="370" y="585" type="line"/>
    </contour>
  </outline>
</glyph>
<glyph name="breve" format="2">
  <advance width="499"/>
  <unicode hex="02D8"/>
  <anchor x="289" y="530" name="_top"/>
  <outline>
    <contour>
      <point x="317" y="671" type="curve"/>
      <point x="286" y="671"/>
      <point x="271" y="686"/>
      <point x="271" y="713" type="curve" smooth="yes"/>
      <point x="271" y="718"/>
      <point x="272" y="724"/>
      <point x="273" y="730" type="curve"/>
      <point x="182" y="730" type="line"/>
      <point x="180" y="718"/>
      <point x="179" y="708"/>
      <point x="179" y="697" type="curve" smooth="yes"/>
      <point x="179" y="626"/>
      <point x="229" y="585"/>
      <point x="310" y="585" type="curve"/>
      <point x="415" y="585"/>
      <point x="461" y="639"/>
      <point x="480" y="730" type="curve"/>
      <point x="389" y="730" type="line"/>
      <point x="382" y="693"/>
      <point x="354" y="671"/>
    </contour>
  </outline>
</glyph>
<glyph name="dotaccent" format="2">
  <advance width="500"/>
  <unicode hex="02D9"/>
  <anchor x="289.6549776851117" y="530" name="_top"/>
  <outline>
    <contour>
      <point x="313" y="588" type="curve"/>
      <point x="358" y="588"/>
      <point x="394" y="620"/>
      <point x="394" y="669" type="curve"/>
      <point x="394" y="711"/>
      <point x="367" y="738"/>
      <point x="323" y="738" type="curve"/>
      <point x="278" y="738"/>
      <point x="242" y="706"/>
      <point x="242" y="656" type="curve"/>
      <point x="242" y="615"/>
      <point x="269" y="588"/>
    </contour>
  </outline>
</glyph>
<glyph name="ring" format="2">
  <advance width="499"/>
  <unicode hex="02DA"/>
  <anchor x="290.0" y="530" name="_top"/>
  <outline>
    <contour>
      <point x="330.0" y="768.0" type="curve"/>
      <point x="260.0" y="768.0"/>
      <point x="213.0" y="719.0"/>
      <point x="213.0" y="661.0" type="curve"/>
      <point x="213.0" y="610"/>
      <point x="250.0" y="575.0"/>
      <point x="309.0" y="575" type="curve"/>
      <point x="379.0" y="575.0"/>
      <point x="426.0" y="624.0"/>
      <point x="426.0" y="682.0" type="curve"/>
      <point x="426.0" y="733"/>
      <point x="389.0" y="768.0"/>
    </contour>
    <contour>
      <point x="315.0" y="640.0" type="curve"/>
      <point x="296.0" y="640.0"/>
      <point x="288.0" y="651"/>
      <point x="288.0" y="666.0" type="curve"/>
      <point x="288.0" y="685"/>
      <point x="302.0" y="703.0"/>
      <point x="324.0" y="703.0" type="curve"/>
      <point x="343.0" y="703.0"/>
      <point x="351.0" y="692"/>
      <point x="351.0" y="677.0" type="curve"/>
      <point x="351.0" y="658"/>
      <point x="337.0" y="640.0"/>
    </contour>
  </outline>
</glyph>
<glyph name="ogonek" format="2">
  <advance width="499"/>
  <unicode hex="02DB"/>
  <anchor x="177" y="0" name="_bottom"/>
  <outline>
    <contour>
      <point x="161" y="0" type="line"/>
      <point x="68" y="-36"/>
      <point x="37.0" y="-82"/>
      <point x="37" y="-121" type="curve"/>
      <point x="37" y="-158"/>
      <point x="67" y="-190"/>
      <point x="136" y="-190" type="curve"/>
      <point x="164" y="-190"/>
      <point x="199" y="-183"/>
      <point x="230" y="-170" type="curve"/>
      <point x="241" y="-75" type="line"/>
      <point x="219" y="-87"/>
      <point x="191" y="-96"/>
      <point x="172" y="-96" type="curve"/>
      <point x="159" y="-96"/>
      <point x="152" y="-90"/>
      <point x="152" y="-82" type="curve" smooth="yes"/>
      <point x="152" y="-65"/>
      <point x="176.58823529411762" y="-36.470588235294116"/>
      <point x="266" y="0" type="curve"/>
    </contour>
  </outline>
</glyph>
<glyph name="tilde" format="2">
  <advance width="499"/>
  <unicode hex="02DC"/>
  <anchor x="290" y="530" name="_top"/>
  <outline>
    <contour>
      <point x="368" y="585.0" type="curve"/>
      <point x="430" y="585.0"/>
      <point x="477" y="641.0"/>
      <point x="491" y="730.0" type="curve"/>
      <point x="407" y="730.0" type="line"/>
      <point x="406" y="702.0"/>
      <point x="392" y="690.0"/>
      <point x="373" y="690.0" type="curve"/>
      <point x="341" y="690.0"/>
      <point x="323" y="730.0"/>
      <point x="265" y="730.0" type="curve"/>
      <point x="202" y="730.0"/>
      <point x="155" y="674.0"/>
      <point x="142" y="585.0" type="curve"/>
      <point x="226" y="585.0" type="line"/>
      <point x="227" y="612.0"/>
      <point x="242" y="624.0"/>
      <point x="261" y="624.0" type="curve"/>
      <point x="295" y="624.0"/>
      <point x="310" y="585.0"/>
    </contour>
  </outline>
</glyph>
<glyph name="hungarumlaut" format="2">
  <advance width="499"/>
  <unicode hex="02DD"/>
  <anchor x="289" y="530" name="_top"/>
  <outline>
    <contour>
      <point x="181" y="585.0" type="line"/>
      <point x="288" y="585.0" type="line"/>
      <point x="403" y="730.0" type="line"/>
      <point x="263" y="730.0" type="line"/>
    </contour>
    <contour>
      <point x="319" y="585.0" type="line"/>
      <point x="425" y="585.0" type="line"/>
      <point x="581" y="730.0" type="line"/>
      <point x="434" y="730.0" type="line"/>
    </contour>
  </outline>
</glyph>
<glyph name="pi" format="2">
  <advance width="644"/>
  <unicode hex="03C0"/>
  <outline>
    <contour>
      <point x="29" y="0" type="line"/>
      <point x="178" y="0" type="line"/>
      <point x="291" y="530" type="line"/>
      <point x="142" y="530" type="line"/>
    </contour>
    <contour>
      <point x="50" y="530" type="line"/>
      <point x="22" y="402" type="line"/>
      <point x="642" y="402" type="line"/>
      <point x="670" y="530" type="line"/>
    </contour>
    <contour>
      <point x="489" y="176" type="curve"/>
      <point x="565" y="530" type="line"/>
      <point x="416" y="530" type="line"/>
      <point x="341" y="180" type="line"/>
      <point x="337" y="161"/>
      <point x="335" y="143"/>
      <point x="335" y="126" type="curve" smooth="yes"/>
      <point x="335" y="42"/>
      <point x="384" y="-14"/>
      <point x="476" y="-14" type="curve"/>
      <point x="505" y="-14"/>
      <point x="531" y="-9"/>
      <point x="557" y="0" type="curve"/>
      <point x="584" y="127" type="line"/>
      <point x="565" y="120"/>
      <point x="544" y="115"/>
      <point x="525" y="115" type="curve"/>
      <point x="500" y="115"/>
      <point x="486" y="127"/>
      <point x="486" y="153" type="curve" smooth="yes"/>
      <point x="486" y="160"/>
      <point x="487" y="167"/>
    </contour>
  </outline>
</glyph>
